<mxfile host="app.diagrams.net" agent="Mozilla/5.0 (Windows NT 10.0; Win64; x64) AppleWebKit/537.36 (KHTML, like Gecko) Chrome/132.0.0.0 Safari/537.36 Edg/132.0.0.0" version="26.0.6" pages="3">
  <diagram id="C5RBs43oDa-KdzZeNtuy" name="Page-1">
    <mxGraphModel dx="1780" dy="-198" grid="1" gridSize="10" guides="1" tooltips="1" connect="1" arrows="1" fold="1" page="1" pageScale="1" pageWidth="827" pageHeight="1169" math="0" shadow="0">
      <root>
        <mxCell id="WIyWlLk6GJQsqaUBKTNV-0" />
        <mxCell id="WIyWlLk6GJQsqaUBKTNV-1" parent="WIyWlLk6GJQsqaUBKTNV-0" />
        <mxCell id="cwOBDrLdAPWHfRntNwnl-132" value="" style="rounded=0;whiteSpace=wrap;html=1;fillColor=none;" parent="WIyWlLk6GJQsqaUBKTNV-1" vertex="1">
          <mxGeometry x="490" y="1720" width="300" height="300" as="geometry" />
        </mxCell>
        <mxCell id="qqC1uzWgD0SAvwENbkAm-36" value="" style="verticalLabelPosition=bottom;verticalAlign=top;html=1;shape=mxgraph.basic.rect;fillColor2=none;strokeWidth=1;size=20;indent=5;fillColor=#000000;" parent="WIyWlLk6GJQsqaUBKTNV-1" vertex="1">
          <mxGeometry x="40" y="1230" width="900" height="40" as="geometry" />
        </mxCell>
        <mxCell id="qqC1uzWgD0SAvwENbkAm-37" value="MSN" style="text;html=1;align=center;verticalAlign=middle;whiteSpace=wrap;rounded=0;fillColor=none;fontColor=#ffffff;strokeColor=#314354;fontSize=21;" parent="WIyWlLk6GJQsqaUBKTNV-1" vertex="1">
          <mxGeometry x="40" y="1235" width="90" height="35" as="geometry" />
        </mxCell>
        <mxCell id="qqC1uzWgD0SAvwENbkAm-38" value="" style="verticalLabelPosition=bottom;verticalAlign=top;html=1;shape=mxgraph.basic.rect;fillColor2=none;strokeWidth=1;size=20;indent=5;fillColor=#000000;strokeColor=#6B6B6B;" parent="WIyWlLk6GJQsqaUBKTNV-1" vertex="1">
          <mxGeometry x="40" y="1270" width="900" height="20" as="geometry" />
        </mxCell>
        <mxCell id="qqC1uzWgD0SAvwENbkAm-41" value="Data Source" style="text;html=1;align=center;verticalAlign=middle;whiteSpace=wrap;rounded=0;fillColor=none;fontColor=#ffffff;strokeColor=none;fontSize=17;" parent="WIyWlLk6GJQsqaUBKTNV-1" vertex="1">
          <mxGeometry x="54.000000000000014" y="1265" width="160" height="30" as="geometry" />
        </mxCell>
        <mxCell id="qqC1uzWgD0SAvwENbkAm-42" value="Staging Layer" style="text;html=1;align=center;verticalAlign=middle;whiteSpace=wrap;rounded=0;fillColor=none;fontColor=#ffffff;strokeColor=none;fontSize=17;" parent="WIyWlLk6GJQsqaUBKTNV-1" vertex="1">
          <mxGeometry x="261.06" y="1265" width="160" height="30" as="geometry" />
        </mxCell>
        <mxCell id="qqC1uzWgD0SAvwENbkAm-43" value="Final Layer" style="text;html=1;align=center;verticalAlign=middle;whiteSpace=wrap;rounded=0;fillColor=none;fontColor=#ffffff;strokeColor=none;fontSize=17;" parent="WIyWlLk6GJQsqaUBKTNV-1" vertex="1">
          <mxGeometry x="540" y="1265" width="160" height="30" as="geometry" />
        </mxCell>
        <mxCell id="qqC1uzWgD0SAvwENbkAm-44" value="End PBI" style="text;html=1;align=center;verticalAlign=middle;whiteSpace=wrap;rounded=0;fillColor=none;fontColor=#ffffff;strokeColor=none;fontSize=17;" parent="WIyWlLk6GJQsqaUBKTNV-1" vertex="1">
          <mxGeometry x="785" y="1265" width="165" height="30" as="geometry" />
        </mxCell>
        <mxCell id="qqC1uzWgD0SAvwENbkAm-69" value="" style="rounded=0;whiteSpace=wrap;html=1;fillColor=none;" parent="WIyWlLk6GJQsqaUBKTNV-1" vertex="1">
          <mxGeometry x="480" y="1290" width="310" height="300" as="geometry" />
        </mxCell>
        <mxCell id="qqC1uzWgD0SAvwENbkAm-70" value="" style="rounded=0;whiteSpace=wrap;html=1;fillColor=none;" parent="WIyWlLk6GJQsqaUBKTNV-1" vertex="1">
          <mxGeometry x="790" y="1290" width="150" height="300" as="geometry" />
        </mxCell>
        <mxCell id="qqC1uzWgD0SAvwENbkAm-77" value="" style="rounded=0;whiteSpace=wrap;html=1;fillColor=none;movable=1;resizable=1;rotatable=1;deletable=1;editable=1;locked=0;connectable=1;" parent="WIyWlLk6GJQsqaUBKTNV-1" vertex="1">
          <mxGeometry x="40" y="1290" width="210" height="300" as="geometry" />
        </mxCell>
        <mxCell id="qqC1uzWgD0SAvwENbkAm-67" value="MSN Ads Dashboard" style="shape=image;verticalLabelPosition=bottom;labelBackgroundColor=default;verticalAlign=top;aspect=fixed;imageAspect=0;image=data:image/svg+xml,PHN2ZyB4bWxuczp4bGluaz0iaHR0cDovL3d3dy53My5vcmcvMTk5OS94bGluayIgeG1sbnM9Imh0dHA6Ly93d3cudzMub3JnLzIwMDAvc3ZnIiB2ZXJzaW9uPSIxLjEiIHZpZXdCb3g9IjAgMCA2MzAgNjMwIiBoZWlnaHQ9IjYzMHB4IiB3aWR0aD0iNjMwcHgiPiYjeGE7ICAgICYjeGE7ICAgIDx0aXRsZT5QQkkgTG9nbzwvdGl0bGU+JiN4YTsgICAgPGRlc2M+Q3JlYXRlZCB3aXRoIFNrZXRjaC48L2Rlc2M+JiN4YTsgICAgPGRlZnM+JiN4YTsgICAgICAgIDxsaW5lYXJHcmFkaWVudCBpZD0ibGluZWFyR3JhZGllbnQtMSIgeTI9IjEwMCUiIHgyPSI1MCUiIHkxPSIwJSIgeDE9IjUwJSI+JiN4YTsgICAgICAgICAgICA8c3RvcCBvZmZzZXQ9IjAlIiBzdG9wLWNvbG9yPSIjRUJCQjE0Ii8+JiN4YTsgICAgICAgICAgICA8c3RvcCBvZmZzZXQ9IjEwMCUiIHN0b3AtY29sb3I9IiNCMjU0MDAiLz4mI3hhOyAgICAgICAgPC9saW5lYXJHcmFkaWVudD4mI3hhOyAgICAgICAgPGxpbmVhckdyYWRpZW50IGlkPSJsaW5lYXJHcmFkaWVudC0yIiB5Mj0iMTAwJSIgeDI9IjUwJSIgeTE9IjAlIiB4MT0iNTAlIj4mI3hhOyAgICAgICAgICAgIDxzdG9wIG9mZnNldD0iMCUiIHN0b3AtY29sb3I9IiNGOUU1ODMiLz4mI3hhOyAgICAgICAgICAgIDxzdG9wIG9mZnNldD0iMTAwJSIgc3RvcC1jb2xvcj0iI0RFOTgwMCIvPiYjeGE7ICAgICAgICA8L2xpbmVhckdyYWRpZW50PiYjeGE7ICAgICAgICA8cGF0aCBpZD0icGF0aC0zIiBkPSJNMzQ2LDYwNCBMMzQ2LDYzMCBMMzIwLDYzMCBMMTUzLDYzMCBDMTM4LjY0MDU5Nyw2MzAgMTI3LDYxOC4zNTk0MDMgMTI3LDYwNCBMMTI3LDE4MyBDMTI3LDE2OC42NDA1OTcgMTM4LjY0MDU5NywxNTcgMTUzLDE1NyBMMzIwLDE1NyBDMzM0LjM1OTQwMywxNTcgMzQ2LDE2OC42NDA1OTcgMzQ2LDE4MyBMMzQ2LDYwNCBaIi8+JiN4YTsgICAgICAgIDxmaWx0ZXIgaWQ9ImZpbHRlci00IiBmaWx0ZXJVbml0cz0ib2JqZWN0Qm91bmRpbmdCb3giIGhlaWdodD0iMTE2LjklIiB3aWR0aD0iMTM2LjUlIiB5PSItNi4zJSIgeD0iLTkuMSUiPiYjeGE7ICAgICAgICAgICAgPGZlT2Zmc2V0IHJlc3VsdD0ic2hhZG93T2Zmc2V0T3V0ZXIxIiBpbj0iU291cmNlQWxwaGEiIGR5PSIxMCIgZHg9IjIwIi8+JiN4YTsgICAgICAgICAgICA8ZmVHYXVzc2lhbkJsdXIgcmVzdWx0PSJzaGFkb3dCbHVyT3V0ZXIxIiBpbj0ic2hhZG93T2Zmc2V0T3V0ZXIxIiBzdGREZXZpYXRpb249IjEwIi8+JiN4YTsgICAgICAgICAgICA8ZmVDb2xvck1hdHJpeCBpbj0ic2hhZG93Qmx1ck91dGVyMSIgdHlwZT0ibWF0cml4IiB2YWx1ZXM9IjAgMCAwIDAgMCAgIDAgMCAwIDAgMCAgIDAgMCAwIDAgMCAgMCAwIDAgMC4wNTMwMjExOTc2IDAiLz4mI3hhOyAgICAgICAgPC9maWx0ZXI+JiN4YTsgICAgICAgIDxsaW5lYXJHcmFkaWVudCBpZD0ibGluZWFyR3JhZGllbnQtNSIgeTI9IjEwMCUiIHgyPSI1MCUiIHkxPSIwJSIgeDE9IjUwJSI+JiN4YTsgICAgICAgICAgICA8c3RvcCBvZmZzZXQ9IjAlIiBzdG9wLWNvbG9yPSIjRjlFNjhCIi8+JiN4YTsgICAgICAgICAgICA8c3RvcCBvZmZzZXQ9IjEwMCUiIHN0b3AtY29sb3I9IiNGM0NEMzIiLz4mI3hhOyAgICAgICAgPC9saW5lYXJHcmFkaWVudD4mI3hhOyAgICA8L2RlZnM+JiN4YTsgICAgPGcgZmlsbC1ydWxlPSJldmVub2RkIiBmaWxsPSJub25lIiBzdHJva2Utd2lkdGg9IjEiIHN0cm9rZT0ibm9uZSIgaWQ9IlBCSS1Mb2dvIj4mI3hhOyAgICAgICAgPGcgdHJhbnNmb3JtPSJ0cmFuc2xhdGUoNzcuNTAwMDAwLCAwLjAwMDAwMCkiIGlkPSJHcm91cCI+JiN4YTsgICAgICAgICAgICA8cmVjdCByeD0iMjYiIGhlaWdodD0iNjMwIiB3aWR0aD0iMjE5IiB5PSIwIiB4PSIyNTYiIGZpbGw9InVybCgjbGluZWFyR3JhZGllbnQtMSkiIGlkPSJSZWN0YW5nbGUiLz4mI3hhOyAgICAgICAgICAgIDxnIGlkPSJDb21iaW5lZC1TaGFwZSI+JiN4YTsgICAgICAgICAgICAgICAgPHVzZSB4bGluazpocmVmPSIjcGF0aC0zIiBmaWx0ZXI9InVybCgjZmlsdGVyLTQpIiBmaWxsLW9wYWNpdHk9IjEiIGZpbGw9ImJsYWNrIi8+JiN4YTsgICAgICAgICAgICAgICAgPHVzZSB4bGluazpocmVmPSIjcGF0aC0zIiBmaWxsLXJ1bGU9ImV2ZW5vZGQiIGZpbGw9InVybCgjbGluZWFyR3JhZGllbnQtMikiLz4mI3hhOyAgICAgICAgICAgIDwvZz4mI3hhOyAgICAgICAgICAgIDxwYXRoIGZpbGw9InVybCgjbGluZWFyR3JhZGllbnQtNSkiIGlkPSJDb21iaW5lZC1TaGFwZSIgZD0iTTIxOSw2MDQgTDIxOSw2MzAgTDE5Myw2MzAgTDI2LDYzMCBDMTEuNjQwNTk2NSw2MzAgMS43NTg1MTk3NWUtMTUsNjE4LjM1OTQwMyAwLDYwNCBMMCwzNDEgQy0xLjc1ODUxOTc1ZS0xNSwzMjYuNjQwNTk3IDExLjY0MDU5NjUsMzE1IDI2LDMxNSBMMTkzLDMxNSBDMjA3LjM1OTQwMywzMTUgMjE5LDMyNi42NDA1OTcgMjE5LDM0MSBMMjE5LDYwNCBaIi8+JiN4YTsgICAgICAgIDwvZz4mI3hhOyAgICA8L2c+JiN4YTs8L3N2Zz4=;fontSize=11;" parent="WIyWlLk6GJQsqaUBKTNV-1" vertex="1">
          <mxGeometry x="840" y="1321.75" width="50" height="50" as="geometry" />
        </mxCell>
        <mxCell id="qqC1uzWgD0SAvwENbkAm-81" value="ADLS Gen 2" style="image;aspect=fixed;html=1;points=[];align=center;fontSize=12;image=img/lib/azure2/storage/Data_Lake_Storage_Gen1.svg;" parent="WIyWlLk6GJQsqaUBKTNV-1" vertex="1">
          <mxGeometry x="343.46" y="1400" width="43.08" height="35" as="geometry" />
        </mxCell>
        <mxCell id="qqC1uzWgD0SAvwENbkAm-60" value="" style="image;aspect=fixed;html=1;points=[];align=center;fontSize=12;image=img/lib/azure2/analytics/Azure_Databricks.svg;" parent="WIyWlLk6GJQsqaUBKTNV-1" vertex="1">
          <mxGeometry x="230" y="1390" width="50.79" height="55" as="geometry" />
        </mxCell>
        <mxCell id="cwOBDrLdAPWHfRntNwnl-18" style="edgeStyle=entityRelationEdgeStyle;rounded=0;orthogonalLoop=1;jettySize=auto;html=1;" parent="WIyWlLk6GJQsqaUBKTNV-1" source="qqC1uzWgD0SAvwENbkAm-45" target="qqC1uzWgD0SAvwENbkAm-60" edge="1">
          <mxGeometry relative="1" as="geometry" />
        </mxCell>
        <mxCell id="cwOBDrLdAPWHfRntNwnl-22" style="edgeStyle=entityRelationEdgeStyle;rounded=0;orthogonalLoop=1;jettySize=auto;html=1;" parent="WIyWlLk6GJQsqaUBKTNV-1" source="qqC1uzWgD0SAvwENbkAm-79" target="qqC1uzWgD0SAvwENbkAm-60" edge="1">
          <mxGeometry relative="1" as="geometry" />
        </mxCell>
        <mxCell id="cwOBDrLdAPWHfRntNwnl-23" style="edgeStyle=entityRelationEdgeStyle;rounded=0;orthogonalLoop=1;jettySize=auto;html=1;" parent="WIyWlLk6GJQsqaUBKTNV-1" source="qqC1uzWgD0SAvwENbkAm-46" target="qqC1uzWgD0SAvwENbkAm-60" edge="1">
          <mxGeometry relative="1" as="geometry" />
        </mxCell>
        <mxCell id="cwOBDrLdAPWHfRntNwnl-24" value="" style="edgeStyle=entityRelationEdgeStyle;rounded=0;orthogonalLoop=1;jettySize=auto;html=1;strokeColor=none;" parent="WIyWlLk6GJQsqaUBKTNV-1" source="qqC1uzWgD0SAvwENbkAm-79" target="qqC1uzWgD0SAvwENbkAm-60" edge="1">
          <mxGeometry relative="1" as="geometry">
            <mxPoint x="317.21" y="2705" as="targetPoint" />
            <mxPoint x="238.41999999999996" y="2633" as="sourcePoint" />
          </mxGeometry>
        </mxCell>
        <mxCell id="qqC1uzWgD0SAvwENbkAm-46" value="Agora Dataset" style="shape=image;verticalLabelPosition=bottom;labelBackgroundColor=default;verticalAlign=top;aspect=fixed;imageAspect=0;image=data:image/png,iVBORw0KGgoAAAANSUhEUgAAAEAAAABACAYAAACqaXHeAAAABGdBTUEAALGPC/xhBQAAAAFzUkdCAK7OHOkAAAAgY0hSTQAAeiYAAICEAAD6AAAAgOgAAHUwAADqYAAAOpgAABdwnLpRPAAAAAZiS0dEAP8A/wD/oL2nkwAAAAlwSFlzAAAOwwAADsMBx2+oZAAABbtJREFUeNrdm0moHFUUhr+q7pen+BwCooKIZCFKVg44kLgQxYUDgi5EwZCF+kzkmeAAggOYhQOoycKY4YkKzgvJwmxcmKBiRCQgCgkISTAaE5yjIuYl3V0uzjmp6rLm6VXlh+J2375ddc9/z3SHAoED9PTzFcCbwAHgGOB17BpouQXYp58PAO8AV6mMPZX5uPAAk8B6YNQCIYpeQy33AIuAH0L1I2ADcFJIdiaBjwIMDjpKhAl6jQr3c6De5PKAbSrzcazXH+Y6KriHb65rVKbTgUOBkfcCMnrAyyb8Uv1zVwUP2v02wFW5pmIIsO/HgKUuMA30tbKL8BCn9pvKMgrUx2GkMk8D7I9hqSuXjf6dKtyElqeQrAEe8B3A0RYIUdbuN6rQfXzPnkSAXUdpgRBFL/P4X6uwqPB5CPDMYXQNHuLs5oC7gX8QP+DlvVFXCRhq+SiwE1H9YdGbzbcqF7X7Ldr/XkieE9oELHx9D6wM1BVG1wgw3Af8REG77yoBA+3vs8CHlLT7IObbpvMkO5/iT2UdonHC+QBPhT4M3IuMukNJ1Td0gQBzcquBb6lh3jLf6p0l5L2qfe2Rjlwm0GYCLNXdBZwWEq4yAtpqAp4KMkDs/i8qCHlRaCsB5ugeBz6nwpAXhflW9biQt1X7l3eQOm0CI0TVDwIrmnhg2wgwrAR+VDJqX6qbb5UPq/6L2q9+Qp8rywTbQoCFvC+ABSFBouBWRYADXJxfaSqHhz/N/YX4VNfqzwOuBN5XMqLMxAUWI4uklYfPupCk2uCbxbvAulBdIbgtuyB+tHqIn7gFuAOZHJWWrysbIi7iJ85FtvEgW1qcKltbw2AcNiD2n5WAVHSBANPSVYj6H6ny5m0nwEXs/hLgOa3LMiVuNQEu/v5dEhxk5CeBzcDJ+JOkytAHvmpQ+BGybb0M+JL4GA6+138auFw/97VMI85TwrYC5yB7gLHENZ3qvqLPTdI+U/MbGc8Ug6tEdhAinAfkygSbCoNDRO13AjMB4qPgaPuzEK9fBqNAGakBfer3A54K/y9yIGGOZNW3mP8ScD6+6heBGyidpAZ1wgR9BPE3SVpnKz/TwO36uVSqmwVNrOq+p89KCmE2GIuRNcA4263UB9SpAbaRuQ/f7uNG3jx3Dwl5p1JDyItCEyYwDfxK8qqu/fYUcDVi95UmPE0TYBuZa5Cja0mruhbvrwWewF8baAR1EGCOa7sSYOv7UbCQtxDYpHWNLl5UTYDZsZ3Zsw2OtOevAy7A15zOEmBObgbYS7aQtwxYTkMhL6oTVcESlk1I2EvK222WtwhYy3ioyvqcSjLYqgiwkPcNkvBAvNOzWd4E8DZwZuB7HlSivVUQ4OGf2bsH/8xeEgEesAT4G9GWPCFviJwE3xV4fmkBqsj2Vuckta4kp9GNkbQze2kd7ZW43IT7NkKAzdH3A2fXPKp5kHs9oCxWIGf2FjDumY2gOAT3ArK0H3vRKUP7zCij+s/oPRqP3wmoXQMsYfkMeBI/l78LuAH4E5nNrUXm/+HFD/sebD+FZINJ7ZcD1yNT5SngBSTsJi2uZEKedwONycPAhfp/282d1d+OaHmr1ocdo5G+OdT+tpT2r4fa3xzTPtcLEy5yGgOy2ZMxvYr/n9kbhMq0UQn/L+0MUPj+Zezf/nvQBT7O2GGbo78GvIGv+gYbCRsxJ1AGL4NbUfsiMFk/cRHVTZuFWaq7G3gwI2FBtsfibsXti8DmIrMusAOxRwf/Bapwh4qc2bMRWoi8lbob2RMYVNS+KGyTZBbYYer0MHARcB2+LdpSsp3cegz/zF6WTplAE8BlwBnAHxnbX6pE/B7xexGYIwRx2tuBh4JCzgE3Ia+TuvhJx1A/fwA8j686eR+e1dFZe2tX5aaNpc8bVdY5wHEZV/EZ5BXzt5A3r3vIguYDJR4cfDU/yxQ2b/ssOIQcq1kC3I+Efgfw/gOY1xdt9xaodwAAAABJRU5ErkJggg==;" parent="WIyWlLk6GJQsqaUBKTNV-1" vertex="1">
          <mxGeometry x="102.43" y="1483" width="36" height="36" as="geometry" />
        </mxCell>
        <mxCell id="qqC1uzWgD0SAvwENbkAm-79" value="Dah_Historical" style="image;aspect=fixed;html=1;points=[];align=center;fontSize=11;image=img/lib/azure2/databases/SQL_Data_Warehouses.svg;strokeColor=#0080F0;labelBackgroundColor=#ffffff;strokeWidth=2;shadow=0;dashed=0;" parent="WIyWlLk6GJQsqaUBKTNV-1" vertex="1">
          <mxGeometry x="96.91" y="1321.33" width="41.52" height="42.17" as="geometry" />
        </mxCell>
        <mxCell id="qqC1uzWgD0SAvwENbkAm-45" value="Dah_Rolling" style="image;aspect=fixed;html=1;points=[];align=center;fontSize=11;image=img/lib/azure2/databases/SQL_Data_Warehouses.svg;strokeColor=#0080F0;labelBackgroundColor=#ffffff;strokeWidth=2;shadow=0;dashed=0;" parent="WIyWlLk6GJQsqaUBKTNV-1" vertex="1">
          <mxGeometry x="96.91" y="1396.4299999999998" width="41.51" height="42.15" as="geometry" />
        </mxCell>
        <mxCell id="cwOBDrLdAPWHfRntNwnl-25" value="" style="group" parent="WIyWlLk6GJQsqaUBKTNV-1" vertex="1" connectable="0">
          <mxGeometry x="550.62" y="1330" width="39.38" height="33.5" as="geometry" />
        </mxCell>
        <mxCell id="qqC1uzWgD0SAvwENbkAm-96" value="gold_dahrolling" style="image;aspect=fixed;html=1;points=[];align=center;fontSize=12;image=img/lib/azure2/general/Table.svg;imageBackground=default;" parent="cwOBDrLdAPWHfRntNwnl-25" vertex="1">
          <mxGeometry width="38.97422467956777" height="31.670268911786913" as="geometry" />
        </mxCell>
        <mxCell id="cwOBDrLdAPWHfRntNwnl-1" value="" style="image;sketch=0;aspect=fixed;html=1;points=[];align=center;fontSize=12;image=img/lib/mscae/Databricks.svg;" parent="cwOBDrLdAPWHfRntNwnl-25" vertex="1">
          <mxGeometry x="19.79391806986682" y="14.5" width="19.58608193013322" height="18.804222166373478" as="geometry" />
        </mxCell>
        <mxCell id="cwOBDrLdAPWHfRntNwnl-26" value="" style="group;fontSize=11;" parent="WIyWlLk6GJQsqaUBKTNV-1" vertex="1" connectable="0">
          <mxGeometry x="550.62" y="1410" width="39.379999999999995" height="35.5" as="geometry" />
        </mxCell>
        <mxCell id="qqC1uzWgD0SAvwENbkAm-62" value="agora_native" style="image;aspect=fixed;html=1;points=[];align=center;fontSize=12;image=img/lib/azure2/general/Table.svg;imageBackground=default;" parent="cwOBDrLdAPWHfRntNwnl-26" vertex="1">
          <mxGeometry width="39.38" height="32" as="geometry" />
        </mxCell>
        <mxCell id="cwOBDrLdAPWHfRntNwnl-10" value="" style="image;sketch=0;aspect=fixed;html=1;points=[];align=center;fontSize=12;image=img/lib/mscae/Databricks.svg;" parent="cwOBDrLdAPWHfRntNwnl-26" vertex="1">
          <mxGeometry x="19.590000000000032" y="16.5" width="19.79" height="19" as="geometry" />
        </mxCell>
        <mxCell id="cwOBDrLdAPWHfRntNwnl-27" value="MSN Video Dashboard" style="shape=image;verticalLabelPosition=bottom;labelBackgroundColor=default;verticalAlign=top;aspect=fixed;imageAspect=0;image=data:image/svg+xml,PHN2ZyB4bWxuczp4bGluaz0iaHR0cDovL3d3dy53My5vcmcvMTk5OS94bGluayIgeG1sbnM9Imh0dHA6Ly93d3cudzMub3JnLzIwMDAvc3ZnIiB2ZXJzaW9uPSIxLjEiIHZpZXdCb3g9IjAgMCA2MzAgNjMwIiBoZWlnaHQ9IjYzMHB4IiB3aWR0aD0iNjMwcHgiPiYjeGE7ICAgICYjeGE7ICAgIDx0aXRsZT5QQkkgTG9nbzwvdGl0bGU+JiN4YTsgICAgPGRlc2M+Q3JlYXRlZCB3aXRoIFNrZXRjaC48L2Rlc2M+JiN4YTsgICAgPGRlZnM+JiN4YTsgICAgICAgIDxsaW5lYXJHcmFkaWVudCBpZD0ibGluZWFyR3JhZGllbnQtMSIgeTI9IjEwMCUiIHgyPSI1MCUiIHkxPSIwJSIgeDE9IjUwJSI+JiN4YTsgICAgICAgICAgICA8c3RvcCBvZmZzZXQ9IjAlIiBzdG9wLWNvbG9yPSIjRUJCQjE0Ii8+JiN4YTsgICAgICAgICAgICA8c3RvcCBvZmZzZXQ9IjEwMCUiIHN0b3AtY29sb3I9IiNCMjU0MDAiLz4mI3hhOyAgICAgICAgPC9saW5lYXJHcmFkaWVudD4mI3hhOyAgICAgICAgPGxpbmVhckdyYWRpZW50IGlkPSJsaW5lYXJHcmFkaWVudC0yIiB5Mj0iMTAwJSIgeDI9IjUwJSIgeTE9IjAlIiB4MT0iNTAlIj4mI3hhOyAgICAgICAgICAgIDxzdG9wIG9mZnNldD0iMCUiIHN0b3AtY29sb3I9IiNGOUU1ODMiLz4mI3hhOyAgICAgICAgICAgIDxzdG9wIG9mZnNldD0iMTAwJSIgc3RvcC1jb2xvcj0iI0RFOTgwMCIvPiYjeGE7ICAgICAgICA8L2xpbmVhckdyYWRpZW50PiYjeGE7ICAgICAgICA8cGF0aCBpZD0icGF0aC0zIiBkPSJNMzQ2LDYwNCBMMzQ2LDYzMCBMMzIwLDYzMCBMMTUzLDYzMCBDMTM4LjY0MDU5Nyw2MzAgMTI3LDYxOC4zNTk0MDMgMTI3LDYwNCBMMTI3LDE4MyBDMTI3LDE2OC42NDA1OTcgMTM4LjY0MDU5NywxNTcgMTUzLDE1NyBMMzIwLDE1NyBDMzM0LjM1OTQwMywxNTcgMzQ2LDE2OC42NDA1OTcgMzQ2LDE4MyBMMzQ2LDYwNCBaIi8+JiN4YTsgICAgICAgIDxmaWx0ZXIgaWQ9ImZpbHRlci00IiBmaWx0ZXJVbml0cz0ib2JqZWN0Qm91bmRpbmdCb3giIGhlaWdodD0iMTE2LjklIiB3aWR0aD0iMTM2LjUlIiB5PSItNi4zJSIgeD0iLTkuMSUiPiYjeGE7ICAgICAgICAgICAgPGZlT2Zmc2V0IHJlc3VsdD0ic2hhZG93T2Zmc2V0T3V0ZXIxIiBpbj0iU291cmNlQWxwaGEiIGR5PSIxMCIgZHg9IjIwIi8+JiN4YTsgICAgICAgICAgICA8ZmVHYXVzc2lhbkJsdXIgcmVzdWx0PSJzaGFkb3dCbHVyT3V0ZXIxIiBpbj0ic2hhZG93T2Zmc2V0T3V0ZXIxIiBzdGREZXZpYXRpb249IjEwIi8+JiN4YTsgICAgICAgICAgICA8ZmVDb2xvck1hdHJpeCBpbj0ic2hhZG93Qmx1ck91dGVyMSIgdHlwZT0ibWF0cml4IiB2YWx1ZXM9IjAgMCAwIDAgMCAgIDAgMCAwIDAgMCAgIDAgMCAwIDAgMCAgMCAwIDAgMC4wNTMwMjExOTc2IDAiLz4mI3hhOyAgICAgICAgPC9maWx0ZXI+JiN4YTsgICAgICAgIDxsaW5lYXJHcmFkaWVudCBpZD0ibGluZWFyR3JhZGllbnQtNSIgeTI9IjEwMCUiIHgyPSI1MCUiIHkxPSIwJSIgeDE9IjUwJSI+JiN4YTsgICAgICAgICAgICA8c3RvcCBvZmZzZXQ9IjAlIiBzdG9wLWNvbG9yPSIjRjlFNjhCIi8+JiN4YTsgICAgICAgICAgICA8c3RvcCBvZmZzZXQ9IjEwMCUiIHN0b3AtY29sb3I9IiNGM0NEMzIiLz4mI3hhOyAgICAgICAgPC9saW5lYXJHcmFkaWVudD4mI3hhOyAgICA8L2RlZnM+JiN4YTsgICAgPGcgZmlsbC1ydWxlPSJldmVub2RkIiBmaWxsPSJub25lIiBzdHJva2Utd2lkdGg9IjEiIHN0cm9rZT0ibm9uZSIgaWQ9IlBCSS1Mb2dvIj4mI3hhOyAgICAgICAgPGcgdHJhbnNmb3JtPSJ0cmFuc2xhdGUoNzcuNTAwMDAwLCAwLjAwMDAwMCkiIGlkPSJHcm91cCI+JiN4YTsgICAgICAgICAgICA8cmVjdCByeD0iMjYiIGhlaWdodD0iNjMwIiB3aWR0aD0iMjE5IiB5PSIwIiB4PSIyNTYiIGZpbGw9InVybCgjbGluZWFyR3JhZGllbnQtMSkiIGlkPSJSZWN0YW5nbGUiLz4mI3hhOyAgICAgICAgICAgIDxnIGlkPSJDb21iaW5lZC1TaGFwZSI+JiN4YTsgICAgICAgICAgICAgICAgPHVzZSB4bGluazpocmVmPSIjcGF0aC0zIiBmaWx0ZXI9InVybCgjZmlsdGVyLTQpIiBmaWxsLW9wYWNpdHk9IjEiIGZpbGw9ImJsYWNrIi8+JiN4YTsgICAgICAgICAgICAgICAgPHVzZSB4bGluazpocmVmPSIjcGF0aC0zIiBmaWxsLXJ1bGU9ImV2ZW5vZGQiIGZpbGw9InVybCgjbGluZWFyR3JhZGllbnQtMikiLz4mI3hhOyAgICAgICAgICAgIDwvZz4mI3hhOyAgICAgICAgICAgIDxwYXRoIGZpbGw9InVybCgjbGluZWFyR3JhZGllbnQtNSkiIGlkPSJDb21iaW5lZC1TaGFwZSIgZD0iTTIxOSw2MDQgTDIxOSw2MzAgTDE5Myw2MzAgTDI2LDYzMCBDMTEuNjQwNTk2NSw2MzAgMS43NTg1MTk3NWUtMTUsNjE4LjM1OTQwMyAwLDYwNCBMMCwzNDEgQy0xLjc1ODUxOTc1ZS0xNSwzMjYuNjQwNTk3IDExLjY0MDU5NjUsMzE1IDI2LDMxNSBMMTkzLDMxNSBDMjA3LjM1OTQwMywzMTUgMjE5LDMyNi42NDA1OTcgMjE5LDM0MSBMMjE5LDYwNCBaIi8+JiN4YTsgICAgICAgIDwvZz4mI3hhOyAgICA8L2c+JiN4YTs8L3N2Zz4=;fontSize=11;" parent="WIyWlLk6GJQsqaUBKTNV-1" vertex="1">
          <mxGeometry x="840" y="1458.2900000000002" width="50" height="50" as="geometry" />
        </mxCell>
        <mxCell id="cwOBDrLdAPWHfRntNwnl-62" style="rounded=0;orthogonalLoop=1;jettySize=auto;html=1;" parent="WIyWlLk6GJQsqaUBKTNV-1" source="cwOBDrLdAPWHfRntNwnl-28" edge="1">
          <mxGeometry relative="1" as="geometry">
            <mxPoint x="550" y="1360" as="targetPoint" />
          </mxGeometry>
        </mxCell>
        <mxCell id="cwOBDrLdAPWHfRntNwnl-28" value="" style="image;aspect=fixed;html=1;points=[];align=center;fontSize=12;image=img/lib/azure2/analytics/Azure_Databricks.svg;" parent="WIyWlLk6GJQsqaUBKTNV-1" vertex="1">
          <mxGeometry x="450.99" y="1390.18" width="50.79" height="55" as="geometry" />
        </mxCell>
        <mxCell id="cwOBDrLdAPWHfRntNwnl-29" value="" style="group" parent="WIyWlLk6GJQsqaUBKTNV-1" vertex="1" connectable="0">
          <mxGeometry x="550.62" y="1483.5" width="39.379999999999995" height="35.5" as="geometry" />
        </mxCell>
        <mxCell id="cwOBDrLdAPWHfRntNwnl-30" value="gold_video" style="image;aspect=fixed;html=1;points=[];align=center;fontSize=12;image=img/lib/azure2/general/Table.svg;imageBackground=default;" parent="cwOBDrLdAPWHfRntNwnl-29" vertex="1">
          <mxGeometry width="39.38" height="32" as="geometry" />
        </mxCell>
        <mxCell id="cwOBDrLdAPWHfRntNwnl-31" value="" style="image;sketch=0;aspect=fixed;html=1;points=[];align=center;fontSize=12;image=img/lib/mscae/Databricks.svg;" parent="cwOBDrLdAPWHfRntNwnl-29" vertex="1">
          <mxGeometry x="19.590000000000032" y="16.5" width="19.79" height="19" as="geometry" />
        </mxCell>
        <mxCell id="cwOBDrLdAPWHfRntNwnl-51" style="edgeStyle=orthogonalEdgeStyle;rounded=0;orthogonalLoop=1;jettySize=auto;html=1;entryX=-0.003;entryY=0.652;entryDx=0;entryDy=0;entryPerimeter=0;" parent="WIyWlLk6GJQsqaUBKTNV-1" source="cwOBDrLdAPWHfRntNwnl-1" target="cwOBDrLdAPWHfRntNwnl-7" edge="1">
          <mxGeometry relative="1" as="geometry" />
        </mxCell>
        <mxCell id="cwOBDrLdAPWHfRntNwnl-52" style="edgeStyle=orthogonalEdgeStyle;rounded=0;orthogonalLoop=1;jettySize=auto;html=1;entryX=-0.02;entryY=0.538;entryDx=0;entryDy=0;entryPerimeter=0;" parent="WIyWlLk6GJQsqaUBKTNV-1" source="cwOBDrLdAPWHfRntNwnl-1" target="cwOBDrLdAPWHfRntNwnl-3" edge="1">
          <mxGeometry relative="1" as="geometry" />
        </mxCell>
        <mxCell id="cwOBDrLdAPWHfRntNwnl-41" value="gold_dah_video_monthly" style="image;aspect=fixed;html=1;points=[];align=center;fontSize=10;image=img/lib/azure2/general/Table.svg;imageBackground=default;" parent="WIyWlLk6GJQsqaUBKTNV-1" vertex="1">
          <mxGeometry x="700" y="1508.2924144005285" width="28.476562500000007" height="23.139918740477402" as="geometry" />
        </mxCell>
        <mxCell id="cwOBDrLdAPWHfRntNwnl-42" value="" style="html=1;verticalLabelPosition=bottom;align=center;labelBackgroundColor=#ffffff;verticalAlign=top;strokeWidth=2;strokeColor=#0080F0;shadow=0;dashed=0;shape=mxgraph.ios7.icons.eye;" parent="WIyWlLk6GJQsqaUBKTNV-1" vertex="1">
          <mxGeometry x="716.65" y="1520.18" width="13.35" height="9.82" as="geometry" />
        </mxCell>
        <mxCell id="cwOBDrLdAPWHfRntNwnl-44" value="gold_dah_video_4m_vw" style="image;aspect=fixed;html=1;points=[];align=center;fontSize=10;image=img/lib/azure2/general/Table.svg;imageBackground=default;" parent="WIyWlLk6GJQsqaUBKTNV-1" vertex="1">
          <mxGeometry x="700" y="1450" width="28.476562500000007" height="23.139918740477402" as="geometry" />
        </mxCell>
        <mxCell id="cwOBDrLdAPWHfRntNwnl-45" value="" style="html=1;verticalLabelPosition=bottom;align=center;labelBackgroundColor=#ffffff;verticalAlign=top;strokeWidth=2;strokeColor=#0080F0;shadow=0;dashed=0;shape=mxgraph.ios7.icons.eye;" parent="WIyWlLk6GJQsqaUBKTNV-1" vertex="1">
          <mxGeometry x="716.65" y="1461.89" width="13.35" height="8.11" as="geometry" />
        </mxCell>
        <mxCell id="cwOBDrLdAPWHfRntNwnl-3" value="gold_dah_monthly" style="image;aspect=fixed;html=1;points=[];align=center;fontSize=10;image=img/lib/azure2/general/Table.svg;imageBackground=default;" parent="WIyWlLk6GJQsqaUBKTNV-1" vertex="1">
          <mxGeometry x="700" y="1378.2924144005285" width="28.476562500000007" height="23.139918740477402" as="geometry" />
        </mxCell>
        <mxCell id="cwOBDrLdAPWHfRntNwnl-2" value="" style="html=1;verticalLabelPosition=bottom;align=center;labelBackgroundColor=#ffffff;verticalAlign=top;strokeWidth=2;strokeColor=#0080F0;shadow=0;dashed=0;shape=mxgraph.ios7.icons.eye;" parent="WIyWlLk6GJQsqaUBKTNV-1" vertex="1">
          <mxGeometry x="716.65" y="1390.18" width="13.35" height="9.82" as="geometry" />
        </mxCell>
        <mxCell id="cwOBDrLdAPWHfRntNwnl-7" value="gold_dahrolling_4m_vw" style="image;aspect=fixed;html=1;points=[];align=center;fontSize=10;image=img/lib/azure2/general/Table.svg;imageBackground=default;" parent="WIyWlLk6GJQsqaUBKTNV-1" vertex="1">
          <mxGeometry x="700" y="1320" width="28.476562500000007" height="23.139918740477402" as="geometry" />
        </mxCell>
        <mxCell id="cwOBDrLdAPWHfRntNwnl-8" value="" style="html=1;verticalLabelPosition=bottom;align=center;labelBackgroundColor=#ffffff;verticalAlign=top;strokeWidth=2;strokeColor=#0080F0;shadow=0;dashed=0;shape=mxgraph.ios7.icons.eye;" parent="WIyWlLk6GJQsqaUBKTNV-1" vertex="1">
          <mxGeometry x="716.65" y="1331.89" width="13.35" height="8.11" as="geometry" />
        </mxCell>
        <mxCell id="cwOBDrLdAPWHfRntNwnl-57" style="rounded=0;orthogonalLoop=1;jettySize=auto;html=1;entryX=0.013;entryY=0.476;entryDx=0;entryDy=0;entryPerimeter=0;" parent="WIyWlLk6GJQsqaUBKTNV-1" source="qqC1uzWgD0SAvwENbkAm-81" target="cwOBDrLdAPWHfRntNwnl-28" edge="1">
          <mxGeometry relative="1" as="geometry" />
        </mxCell>
        <mxCell id="cwOBDrLdAPWHfRntNwnl-60" style="edgeStyle=orthogonalEdgeStyle;rounded=0;orthogonalLoop=1;jettySize=auto;html=1;entryX=-0.02;entryY=0.534;entryDx=0;entryDy=0;entryPerimeter=0;" parent="WIyWlLk6GJQsqaUBKTNV-1" source="cwOBDrLdAPWHfRntNwnl-30" target="cwOBDrLdAPWHfRntNwnl-44" edge="1">
          <mxGeometry relative="1" as="geometry" />
        </mxCell>
        <mxCell id="cwOBDrLdAPWHfRntNwnl-61" style="edgeStyle=orthogonalEdgeStyle;rounded=0;orthogonalLoop=1;jettySize=auto;html=1;" parent="WIyWlLk6GJQsqaUBKTNV-1" source="cwOBDrLdAPWHfRntNwnl-31" target="cwOBDrLdAPWHfRntNwnl-41" edge="1">
          <mxGeometry relative="1" as="geometry">
            <Array as="points">
              <mxPoint x="645" y="1500" />
              <mxPoint x="645" y="1520" />
            </Array>
          </mxGeometry>
        </mxCell>
        <mxCell id="cwOBDrLdAPWHfRntNwnl-63" style="rounded=0;orthogonalLoop=1;jettySize=auto;html=1;entryX=0.046;entryY=0.409;entryDx=0;entryDy=0;entryPerimeter=0;" parent="WIyWlLk6GJQsqaUBKTNV-1" source="cwOBDrLdAPWHfRntNwnl-28" target="qqC1uzWgD0SAvwENbkAm-62" edge="1">
          <mxGeometry relative="1" as="geometry" />
        </mxCell>
        <mxCell id="cwOBDrLdAPWHfRntNwnl-64" style="rounded=0;orthogonalLoop=1;jettySize=auto;html=1;entryX=0.055;entryY=0.292;entryDx=0;entryDy=0;entryPerimeter=0;" parent="WIyWlLk6GJQsqaUBKTNV-1" source="cwOBDrLdAPWHfRntNwnl-28" target="cwOBDrLdAPWHfRntNwnl-30" edge="1">
          <mxGeometry relative="1" as="geometry" />
        </mxCell>
        <mxCell id="cwOBDrLdAPWHfRntNwnl-73" value="" style="verticalLabelPosition=bottom;verticalAlign=top;html=1;shape=mxgraph.basic.rect;fillColor2=none;strokeWidth=1;size=20;indent=5;fillColor=#000000;" parent="WIyWlLk6GJQsqaUBKTNV-1" vertex="1">
          <mxGeometry x="47" y="1660" width="900" height="40" as="geometry" />
        </mxCell>
        <mxCell id="cwOBDrLdAPWHfRntNwnl-74" value="MSN" style="text;html=1;align=center;verticalAlign=middle;whiteSpace=wrap;rounded=0;fillColor=none;fontColor=#ffffff;strokeColor=#314354;fontSize=21;" parent="WIyWlLk6GJQsqaUBKTNV-1" vertex="1">
          <mxGeometry x="47" y="1665" width="90" height="35" as="geometry" />
        </mxCell>
        <mxCell id="cwOBDrLdAPWHfRntNwnl-75" value="" style="verticalLabelPosition=bottom;verticalAlign=top;html=1;shape=mxgraph.basic.rect;fillColor2=none;strokeWidth=1;size=20;indent=5;fillColor=#000000;strokeColor=#6B6B6B;" parent="WIyWlLk6GJQsqaUBKTNV-1" vertex="1">
          <mxGeometry x="47" y="1700" width="900" height="20" as="geometry" />
        </mxCell>
        <mxCell id="cwOBDrLdAPWHfRntNwnl-76" value="Data Source" style="text;html=1;align=center;verticalAlign=middle;whiteSpace=wrap;rounded=0;fillColor=none;fontColor=#ffffff;strokeColor=none;fontSize=17;" parent="WIyWlLk6GJQsqaUBKTNV-1" vertex="1">
          <mxGeometry x="54.000000000000014" y="1695" width="160" height="30" as="geometry" />
        </mxCell>
        <mxCell id="cwOBDrLdAPWHfRntNwnl-77" value="Staging Layer" style="text;html=1;align=center;verticalAlign=middle;whiteSpace=wrap;rounded=0;fillColor=none;fontColor=#ffffff;strokeColor=none;fontSize=17;" parent="WIyWlLk6GJQsqaUBKTNV-1" vertex="1">
          <mxGeometry x="268.06" y="1695" width="160" height="30" as="geometry" />
        </mxCell>
        <mxCell id="cwOBDrLdAPWHfRntNwnl-78" value="Final Layer" style="text;html=1;align=center;verticalAlign=middle;whiteSpace=wrap;rounded=0;fillColor=none;fontColor=#ffffff;strokeColor=none;fontSize=17;" parent="WIyWlLk6GJQsqaUBKTNV-1" vertex="1">
          <mxGeometry x="547" y="1695" width="160" height="30" as="geometry" />
        </mxCell>
        <mxCell id="cwOBDrLdAPWHfRntNwnl-79" value="End PBI" style="text;html=1;align=center;verticalAlign=middle;whiteSpace=wrap;rounded=0;fillColor=none;fontColor=#ffffff;strokeColor=none;fontSize=17;" parent="WIyWlLk6GJQsqaUBKTNV-1" vertex="1">
          <mxGeometry x="792" y="1695" width="160" height="30" as="geometry" />
        </mxCell>
        <mxCell id="cwOBDrLdAPWHfRntNwnl-81" value="" style="rounded=0;whiteSpace=wrap;html=1;fillColor=none;" parent="WIyWlLk6GJQsqaUBKTNV-1" vertex="1">
          <mxGeometry x="790" y="1720" width="157" height="300" as="geometry" />
        </mxCell>
        <mxCell id="cwOBDrLdAPWHfRntNwnl-82" value="" style="rounded=0;whiteSpace=wrap;html=1;fillColor=none;movable=1;resizable=1;rotatable=1;deletable=1;editable=1;locked=0;connectable=1;" parent="WIyWlLk6GJQsqaUBKTNV-1" vertex="1">
          <mxGeometry x="257" y="1720" width="233" height="300" as="geometry" />
        </mxCell>
        <mxCell id="cwOBDrLdAPWHfRntNwnl-83" value="" style="rounded=0;whiteSpace=wrap;html=1;fillColor=none;movable=1;resizable=1;rotatable=1;deletable=1;editable=1;locked=0;connectable=1;" parent="WIyWlLk6GJQsqaUBKTNV-1" vertex="1">
          <mxGeometry x="47" y="1720" width="210" height="300" as="geometry" />
        </mxCell>
        <mxCell id="cwOBDrLdAPWHfRntNwnl-84" value="MSN Ads Dashboard" style="shape=image;verticalLabelPosition=bottom;labelBackgroundColor=default;verticalAlign=top;aspect=fixed;imageAspect=0;image=data:image/svg+xml,PHN2ZyB4bWxuczp4bGluaz0iaHR0cDovL3d3dy53My5vcmcvMTk5OS94bGluayIgeG1sbnM9Imh0dHA6Ly93d3cudzMub3JnLzIwMDAvc3ZnIiB2ZXJzaW9uPSIxLjEiIHZpZXdCb3g9IjAgMCA2MzAgNjMwIiBoZWlnaHQ9IjYzMHB4IiB3aWR0aD0iNjMwcHgiPiYjeGE7ICAgICYjeGE7ICAgIDx0aXRsZT5QQkkgTG9nbzwvdGl0bGU+JiN4YTsgICAgPGRlc2M+Q3JlYXRlZCB3aXRoIFNrZXRjaC48L2Rlc2M+JiN4YTsgICAgPGRlZnM+JiN4YTsgICAgICAgIDxsaW5lYXJHcmFkaWVudCBpZD0ibGluZWFyR3JhZGllbnQtMSIgeTI9IjEwMCUiIHgyPSI1MCUiIHkxPSIwJSIgeDE9IjUwJSI+JiN4YTsgICAgICAgICAgICA8c3RvcCBvZmZzZXQ9IjAlIiBzdG9wLWNvbG9yPSIjRUJCQjE0Ii8+JiN4YTsgICAgICAgICAgICA8c3RvcCBvZmZzZXQ9IjEwMCUiIHN0b3AtY29sb3I9IiNCMjU0MDAiLz4mI3hhOyAgICAgICAgPC9saW5lYXJHcmFkaWVudD4mI3hhOyAgICAgICAgPGxpbmVhckdyYWRpZW50IGlkPSJsaW5lYXJHcmFkaWVudC0yIiB5Mj0iMTAwJSIgeDI9IjUwJSIgeTE9IjAlIiB4MT0iNTAlIj4mI3hhOyAgICAgICAgICAgIDxzdG9wIG9mZnNldD0iMCUiIHN0b3AtY29sb3I9IiNGOUU1ODMiLz4mI3hhOyAgICAgICAgICAgIDxzdG9wIG9mZnNldD0iMTAwJSIgc3RvcC1jb2xvcj0iI0RFOTgwMCIvPiYjeGE7ICAgICAgICA8L2xpbmVhckdyYWRpZW50PiYjeGE7ICAgICAgICA8cGF0aCBpZD0icGF0aC0zIiBkPSJNMzQ2LDYwNCBMMzQ2LDYzMCBMMzIwLDYzMCBMMTUzLDYzMCBDMTM4LjY0MDU5Nyw2MzAgMTI3LDYxOC4zNTk0MDMgMTI3LDYwNCBMMTI3LDE4MyBDMTI3LDE2OC42NDA1OTcgMTM4LjY0MDU5NywxNTcgMTUzLDE1NyBMMzIwLDE1NyBDMzM0LjM1OTQwMywxNTcgMzQ2LDE2OC42NDA1OTcgMzQ2LDE4MyBMMzQ2LDYwNCBaIi8+JiN4YTsgICAgICAgIDxmaWx0ZXIgaWQ9ImZpbHRlci00IiBmaWx0ZXJVbml0cz0ib2JqZWN0Qm91bmRpbmdCb3giIGhlaWdodD0iMTE2LjklIiB3aWR0aD0iMTM2LjUlIiB5PSItNi4zJSIgeD0iLTkuMSUiPiYjeGE7ICAgICAgICAgICAgPGZlT2Zmc2V0IHJlc3VsdD0ic2hhZG93T2Zmc2V0T3V0ZXIxIiBpbj0iU291cmNlQWxwaGEiIGR5PSIxMCIgZHg9IjIwIi8+JiN4YTsgICAgICAgICAgICA8ZmVHYXVzc2lhbkJsdXIgcmVzdWx0PSJzaGFkb3dCbHVyT3V0ZXIxIiBpbj0ic2hhZG93T2Zmc2V0T3V0ZXIxIiBzdGREZXZpYXRpb249IjEwIi8+JiN4YTsgICAgICAgICAgICA8ZmVDb2xvck1hdHJpeCBpbj0ic2hhZG93Qmx1ck91dGVyMSIgdHlwZT0ibWF0cml4IiB2YWx1ZXM9IjAgMCAwIDAgMCAgIDAgMCAwIDAgMCAgIDAgMCAwIDAgMCAgMCAwIDAgMC4wNTMwMjExOTc2IDAiLz4mI3hhOyAgICAgICAgPC9maWx0ZXI+JiN4YTsgICAgICAgIDxsaW5lYXJHcmFkaWVudCBpZD0ibGluZWFyR3JhZGllbnQtNSIgeTI9IjEwMCUiIHgyPSI1MCUiIHkxPSIwJSIgeDE9IjUwJSI+JiN4YTsgICAgICAgICAgICA8c3RvcCBvZmZzZXQ9IjAlIiBzdG9wLWNvbG9yPSIjRjlFNjhCIi8+JiN4YTsgICAgICAgICAgICA8c3RvcCBvZmZzZXQ9IjEwMCUiIHN0b3AtY29sb3I9IiNGM0NEMzIiLz4mI3hhOyAgICAgICAgPC9saW5lYXJHcmFkaWVudD4mI3hhOyAgICA8L2RlZnM+JiN4YTsgICAgPGcgZmlsbC1ydWxlPSJldmVub2RkIiBmaWxsPSJub25lIiBzdHJva2Utd2lkdGg9IjEiIHN0cm9rZT0ibm9uZSIgaWQ9IlBCSS1Mb2dvIj4mI3hhOyAgICAgICAgPGcgdHJhbnNmb3JtPSJ0cmFuc2xhdGUoNzcuNTAwMDAwLCAwLjAwMDAwMCkiIGlkPSJHcm91cCI+JiN4YTsgICAgICAgICAgICA8cmVjdCByeD0iMjYiIGhlaWdodD0iNjMwIiB3aWR0aD0iMjE5IiB5PSIwIiB4PSIyNTYiIGZpbGw9InVybCgjbGluZWFyR3JhZGllbnQtMSkiIGlkPSJSZWN0YW5nbGUiLz4mI3hhOyAgICAgICAgICAgIDxnIGlkPSJDb21iaW5lZC1TaGFwZSI+JiN4YTsgICAgICAgICAgICAgICAgPHVzZSB4bGluazpocmVmPSIjcGF0aC0zIiBmaWx0ZXI9InVybCgjZmlsdGVyLTQpIiBmaWxsLW9wYWNpdHk9IjEiIGZpbGw9ImJsYWNrIi8+JiN4YTsgICAgICAgICAgICAgICAgPHVzZSB4bGluazpocmVmPSIjcGF0aC0zIiBmaWxsLXJ1bGU9ImV2ZW5vZGQiIGZpbGw9InVybCgjbGluZWFyR3JhZGllbnQtMikiLz4mI3hhOyAgICAgICAgICAgIDwvZz4mI3hhOyAgICAgICAgICAgIDxwYXRoIGZpbGw9InVybCgjbGluZWFyR3JhZGllbnQtNSkiIGlkPSJDb21iaW5lZC1TaGFwZSIgZD0iTTIxOSw2MDQgTDIxOSw2MzAgTDE5Myw2MzAgTDI2LDYzMCBDMTEuNjQwNTk2NSw2MzAgMS43NTg1MTk3NWUtMTUsNjE4LjM1OTQwMyAwLDYwNCBMMCwzNDEgQy0xLjc1ODUxOTc1ZS0xNSwzMjYuNjQwNTk3IDExLjY0MDU5NjUsMzE1IDI2LDMxNSBMMTkzLDMxNSBDMjA3LjM1OTQwMywzMTUgMjE5LDMyNi42NDA1OTcgMjE5LDM0MSBMMjE5LDYwNCBaIi8+JiN4YTsgICAgICAgIDwvZz4mI3hhOyAgICA8L2c+JiN4YTs8L3N2Zz4=;fontSize=11;" parent="WIyWlLk6GJQsqaUBKTNV-1" vertex="1">
          <mxGeometry x="847" y="1770" width="50" height="50" as="geometry" />
        </mxCell>
        <mxCell id="cwOBDrLdAPWHfRntNwnl-85" value="ADLS Gen 2" style="image;aspect=fixed;html=1;points=[];align=center;fontSize=12;image=img/lib/azure2/storage/Data_Lake_Storage_Gen1.svg;" parent="WIyWlLk6GJQsqaUBKTNV-1" vertex="1">
          <mxGeometry x="350.46" y="1830" width="43.08" height="35" as="geometry" />
        </mxCell>
        <mxCell id="cwOBDrLdAPWHfRntNwnl-86" style="rounded=0;orthogonalLoop=1;jettySize=auto;html=1;" parent="WIyWlLk6GJQsqaUBKTNV-1" source="cwOBDrLdAPWHfRntNwnl-87" target="cwOBDrLdAPWHfRntNwnl-85" edge="1">
          <mxGeometry relative="1" as="geometry" />
        </mxCell>
        <mxCell id="cwOBDrLdAPWHfRntNwnl-87" value="" style="image;aspect=fixed;html=1;points=[];align=center;fontSize=12;image=img/lib/azure2/analytics/Azure_Databricks.svg;" parent="WIyWlLk6GJQsqaUBKTNV-1" vertex="1">
          <mxGeometry x="237" y="1820" width="50.79" height="55" as="geometry" />
        </mxCell>
        <mxCell id="cwOBDrLdAPWHfRntNwnl-88" style="edgeStyle=entityRelationEdgeStyle;rounded=0;orthogonalLoop=1;jettySize=auto;html=1;" parent="WIyWlLk6GJQsqaUBKTNV-1" source="cwOBDrLdAPWHfRntNwnl-95" target="cwOBDrLdAPWHfRntNwnl-87" edge="1">
          <mxGeometry relative="1" as="geometry" />
        </mxCell>
        <mxCell id="cwOBDrLdAPWHfRntNwnl-89" style="edgeStyle=entityRelationEdgeStyle;rounded=0;orthogonalLoop=1;jettySize=auto;html=1;" parent="WIyWlLk6GJQsqaUBKTNV-1" source="cwOBDrLdAPWHfRntNwnl-94" target="cwOBDrLdAPWHfRntNwnl-87" edge="1">
          <mxGeometry relative="1" as="geometry" />
        </mxCell>
        <mxCell id="cwOBDrLdAPWHfRntNwnl-90" style="edgeStyle=entityRelationEdgeStyle;rounded=0;orthogonalLoop=1;jettySize=auto;html=1;" parent="WIyWlLk6GJQsqaUBKTNV-1" source="cwOBDrLdAPWHfRntNwnl-92" target="cwOBDrLdAPWHfRntNwnl-87" edge="1">
          <mxGeometry relative="1" as="geometry" />
        </mxCell>
        <mxCell id="cwOBDrLdAPWHfRntNwnl-91" value="" style="edgeStyle=entityRelationEdgeStyle;rounded=0;orthogonalLoop=1;jettySize=auto;html=1;strokeColor=none;" parent="WIyWlLk6GJQsqaUBKTNV-1" source="cwOBDrLdAPWHfRntNwnl-94" target="cwOBDrLdAPWHfRntNwnl-87" edge="1">
          <mxGeometry relative="1" as="geometry">
            <mxPoint x="324.21" y="3135" as="targetPoint" />
            <mxPoint x="245.41999999999996" y="3063" as="sourcePoint" />
          </mxGeometry>
        </mxCell>
        <mxCell id="cwOBDrLdAPWHfRntNwnl-92" value="Agora Dataset" style="shape=image;verticalLabelPosition=bottom;labelBackgroundColor=default;verticalAlign=top;aspect=fixed;imageAspect=0;image=data:image/png,iVBORw0KGgoAAAANSUhEUgAAAEAAAABACAYAAACqaXHeAAAABGdBTUEAALGPC/xhBQAAAAFzUkdCAK7OHOkAAAAgY0hSTQAAeiYAAICEAAD6AAAAgOgAAHUwAADqYAAAOpgAABdwnLpRPAAAAAZiS0dEAP8A/wD/oL2nkwAAAAlwSFlzAAAOwwAADsMBx2+oZAAABbtJREFUeNrdm0moHFUUhr+q7pen+BwCooKIZCFKVg44kLgQxYUDgi5EwZCF+kzkmeAAggOYhQOoycKY4YkKzgvJwmxcmKBiRCQgCgkISTAaE5yjIuYl3V0uzjmp6rLm6VXlh+J2375ddc9/z3SHAoED9PTzFcCbwAHgGOB17BpouQXYp58PAO8AV6mMPZX5uPAAk8B6YNQCIYpeQy33AIuAH0L1I2ADcFJIdiaBjwIMDjpKhAl6jQr3c6De5PKAbSrzcazXH+Y6KriHb65rVKbTgUOBkfcCMnrAyyb8Uv1zVwUP2v02wFW5pmIIsO/HgKUuMA30tbKL8BCn9pvKMgrUx2GkMk8D7I9hqSuXjf6dKtyElqeQrAEe8B3A0RYIUdbuN6rQfXzPnkSAXUdpgRBFL/P4X6uwqPB5CPDMYXQNHuLs5oC7gX8QP+DlvVFXCRhq+SiwE1H9YdGbzbcqF7X7Ldr/XkieE9oELHx9D6wM1BVG1wgw3Af8REG77yoBA+3vs8CHlLT7IObbpvMkO5/iT2UdonHC+QBPhT4M3IuMukNJ1Td0gQBzcquBb6lh3jLf6p0l5L2qfe2Rjlwm0GYCLNXdBZwWEq4yAtpqAp4KMkDs/i8qCHlRaCsB5ugeBz6nwpAXhflW9biQt1X7l3eQOm0CI0TVDwIrmnhg2wgwrAR+VDJqX6qbb5UPq/6L2q9+Qp8rywTbQoCFvC+ABSFBouBWRYADXJxfaSqHhz/N/YX4VNfqzwOuBN5XMqLMxAUWI4uklYfPupCk2uCbxbvAulBdIbgtuyB+tHqIn7gFuAOZHJWWrysbIi7iJ85FtvEgW1qcKltbw2AcNiD2n5WAVHSBANPSVYj6H6ny5m0nwEXs/hLgOa3LMiVuNQEu/v5dEhxk5CeBzcDJ+JOkytAHvmpQ+BGybb0M+JL4GA6+138auFw/97VMI85TwrYC5yB7gLHENZ3qvqLPTdI+U/MbGc8Ug6tEdhAinAfkygSbCoNDRO13AjMB4qPgaPuzEK9fBqNAGakBfer3A54K/y9yIGGOZNW3mP8ScD6+6heBGyidpAZ1wgR9BPE3SVpnKz/TwO36uVSqmwVNrOq+p89KCmE2GIuRNcA4263UB9SpAbaRuQ/f7uNG3jx3Dwl5p1JDyItCEyYwDfxK8qqu/fYUcDVi95UmPE0TYBuZa5Cja0mruhbvrwWewF8baAR1EGCOa7sSYOv7UbCQtxDYpHWNLl5UTYDZsZ3Zsw2OtOevAy7A15zOEmBObgbYS7aQtwxYTkMhL6oTVcESlk1I2EvK222WtwhYy3ioyvqcSjLYqgiwkPcNkvBAvNOzWd4E8DZwZuB7HlSivVUQ4OGf2bsH/8xeEgEesAT4G9GWPCFviJwE3xV4fmkBqsj2Vuckta4kp9GNkbQze2kd7ZW43IT7NkKAzdH3A2fXPKp5kHs9oCxWIGf2FjDumY2gOAT3ArK0H3vRKUP7zCij+s/oPRqP3wmoXQMsYfkMeBI/l78LuAH4E5nNrUXm/+HFD/sebD+FZINJ7ZcD1yNT5SngBSTsJi2uZEKedwONycPAhfp/282d1d+OaHmr1ocdo5G+OdT+tpT2r4fa3xzTPtcLEy5yGgOy2ZMxvYr/n9kbhMq0UQn/L+0MUPj+Zezf/nvQBT7O2GGbo78GvIGv+gYbCRsxJ1AGL4NbUfsiMFk/cRHVTZuFWaq7G3gwI2FBtsfibsXti8DmIrMusAOxRwf/Bapwh4qc2bMRWoi8lbob2RMYVNS+KGyTZBbYYer0MHARcB2+LdpSsp3cegz/zF6WTplAE8BlwBnAHxnbX6pE/B7xexGYIwRx2tuBh4JCzgE3Ia+TuvhJx1A/fwA8j686eR+e1dFZe2tX5aaNpc8bVdY5wHEZV/EZ5BXzt5A3r3vIguYDJR4cfDU/yxQ2b/ssOIQcq1kC3I+Efgfw/gOY1xdt9xaodwAAAABJRU5ErkJggg==;" parent="WIyWlLk6GJQsqaUBKTNV-1" vertex="1">
          <mxGeometry x="109.43" y="1913" width="36" height="36" as="geometry" />
        </mxCell>
        <mxCell id="cwOBDrLdAPWHfRntNwnl-93" style="edgeStyle=entityRelationEdgeStyle;rounded=0;orthogonalLoop=1;jettySize=auto;html=1;strokeColor=none;" parent="WIyWlLk6GJQsqaUBKTNV-1" edge="1">
          <mxGeometry relative="1" as="geometry">
            <mxPoint x="218.86" y="1814.66" as="targetPoint" />
            <mxPoint x="279.64999999999975" y="1827.16" as="sourcePoint" />
          </mxGeometry>
        </mxCell>
        <mxCell id="cwOBDrLdAPWHfRntNwnl-94" value="Dah_Historical" style="image;aspect=fixed;html=1;points=[];align=center;fontSize=11;image=img/lib/azure2/databases/SQL_Data_Warehouses.svg;strokeColor=#0080F0;labelBackgroundColor=#ffffff;strokeWidth=2;shadow=0;dashed=0;" parent="WIyWlLk6GJQsqaUBKTNV-1" vertex="1">
          <mxGeometry x="103.91" y="1751.33" width="41.52" height="42.17" as="geometry" />
        </mxCell>
        <mxCell id="cwOBDrLdAPWHfRntNwnl-95" value="Dah_Rolling" style="image;aspect=fixed;html=1;points=[];align=center;fontSize=11;image=img/lib/azure2/databases/SQL_Data_Warehouses.svg;strokeColor=#0080F0;labelBackgroundColor=#ffffff;strokeWidth=2;shadow=0;dashed=0;" parent="WIyWlLk6GJQsqaUBKTNV-1" vertex="1">
          <mxGeometry x="103.91" y="1826.4299999999998" width="41.51" height="42.15" as="geometry" />
        </mxCell>
        <mxCell id="cwOBDrLdAPWHfRntNwnl-102" value="MSN Video Dashboard" style="shape=image;verticalLabelPosition=bottom;labelBackgroundColor=default;verticalAlign=top;aspect=fixed;imageAspect=0;image=data:image/svg+xml,PHN2ZyB4bWxuczp4bGluaz0iaHR0cDovL3d3dy53My5vcmcvMTk5OS94bGluayIgeG1sbnM9Imh0dHA6Ly93d3cudzMub3JnLzIwMDAvc3ZnIiB2ZXJzaW9uPSIxLjEiIHZpZXdCb3g9IjAgMCA2MzAgNjMwIiBoZWlnaHQ9IjYzMHB4IiB3aWR0aD0iNjMwcHgiPiYjeGE7ICAgICYjeGE7ICAgIDx0aXRsZT5QQkkgTG9nbzwvdGl0bGU+JiN4YTsgICAgPGRlc2M+Q3JlYXRlZCB3aXRoIFNrZXRjaC48L2Rlc2M+JiN4YTsgICAgPGRlZnM+JiN4YTsgICAgICAgIDxsaW5lYXJHcmFkaWVudCBpZD0ibGluZWFyR3JhZGllbnQtMSIgeTI9IjEwMCUiIHgyPSI1MCUiIHkxPSIwJSIgeDE9IjUwJSI+JiN4YTsgICAgICAgICAgICA8c3RvcCBvZmZzZXQ9IjAlIiBzdG9wLWNvbG9yPSIjRUJCQjE0Ii8+JiN4YTsgICAgICAgICAgICA8c3RvcCBvZmZzZXQ9IjEwMCUiIHN0b3AtY29sb3I9IiNCMjU0MDAiLz4mI3hhOyAgICAgICAgPC9saW5lYXJHcmFkaWVudD4mI3hhOyAgICAgICAgPGxpbmVhckdyYWRpZW50IGlkPSJsaW5lYXJHcmFkaWVudC0yIiB5Mj0iMTAwJSIgeDI9IjUwJSIgeTE9IjAlIiB4MT0iNTAlIj4mI3hhOyAgICAgICAgICAgIDxzdG9wIG9mZnNldD0iMCUiIHN0b3AtY29sb3I9IiNGOUU1ODMiLz4mI3hhOyAgICAgICAgICAgIDxzdG9wIG9mZnNldD0iMTAwJSIgc3RvcC1jb2xvcj0iI0RFOTgwMCIvPiYjeGE7ICAgICAgICA8L2xpbmVhckdyYWRpZW50PiYjeGE7ICAgICAgICA8cGF0aCBpZD0icGF0aC0zIiBkPSJNMzQ2LDYwNCBMMzQ2LDYzMCBMMzIwLDYzMCBMMTUzLDYzMCBDMTM4LjY0MDU5Nyw2MzAgMTI3LDYxOC4zNTk0MDMgMTI3LDYwNCBMMTI3LDE4MyBDMTI3LDE2OC42NDA1OTcgMTM4LjY0MDU5NywxNTcgMTUzLDE1NyBMMzIwLDE1NyBDMzM0LjM1OTQwMywxNTcgMzQ2LDE2OC42NDA1OTcgMzQ2LDE4MyBMMzQ2LDYwNCBaIi8+JiN4YTsgICAgICAgIDxmaWx0ZXIgaWQ9ImZpbHRlci00IiBmaWx0ZXJVbml0cz0ib2JqZWN0Qm91bmRpbmdCb3giIGhlaWdodD0iMTE2LjklIiB3aWR0aD0iMTM2LjUlIiB5PSItNi4zJSIgeD0iLTkuMSUiPiYjeGE7ICAgICAgICAgICAgPGZlT2Zmc2V0IHJlc3VsdD0ic2hhZG93T2Zmc2V0T3V0ZXIxIiBpbj0iU291cmNlQWxwaGEiIGR5PSIxMCIgZHg9IjIwIi8+JiN4YTsgICAgICAgICAgICA8ZmVHYXVzc2lhbkJsdXIgcmVzdWx0PSJzaGFkb3dCbHVyT3V0ZXIxIiBpbj0ic2hhZG93T2Zmc2V0T3V0ZXIxIiBzdGREZXZpYXRpb249IjEwIi8+JiN4YTsgICAgICAgICAgICA8ZmVDb2xvck1hdHJpeCBpbj0ic2hhZG93Qmx1ck91dGVyMSIgdHlwZT0ibWF0cml4IiB2YWx1ZXM9IjAgMCAwIDAgMCAgIDAgMCAwIDAgMCAgIDAgMCAwIDAgMCAgMCAwIDAgMC4wNTMwMjExOTc2IDAiLz4mI3hhOyAgICAgICAgPC9maWx0ZXI+JiN4YTsgICAgICAgIDxsaW5lYXJHcmFkaWVudCBpZD0ibGluZWFyR3JhZGllbnQtNSIgeTI9IjEwMCUiIHgyPSI1MCUiIHkxPSIwJSIgeDE9IjUwJSI+JiN4YTsgICAgICAgICAgICA8c3RvcCBvZmZzZXQ9IjAlIiBzdG9wLWNvbG9yPSIjRjlFNjhCIi8+JiN4YTsgICAgICAgICAgICA8c3RvcCBvZmZzZXQ9IjEwMCUiIHN0b3AtY29sb3I9IiNGM0NEMzIiLz4mI3hhOyAgICAgICAgPC9saW5lYXJHcmFkaWVudD4mI3hhOyAgICA8L2RlZnM+JiN4YTsgICAgPGcgZmlsbC1ydWxlPSJldmVub2RkIiBmaWxsPSJub25lIiBzdHJva2Utd2lkdGg9IjEiIHN0cm9rZT0ibm9uZSIgaWQ9IlBCSS1Mb2dvIj4mI3hhOyAgICAgICAgPGcgdHJhbnNmb3JtPSJ0cmFuc2xhdGUoNzcuNTAwMDAwLCAwLjAwMDAwMCkiIGlkPSJHcm91cCI+JiN4YTsgICAgICAgICAgICA8cmVjdCByeD0iMjYiIGhlaWdodD0iNjMwIiB3aWR0aD0iMjE5IiB5PSIwIiB4PSIyNTYiIGZpbGw9InVybCgjbGluZWFyR3JhZGllbnQtMSkiIGlkPSJSZWN0YW5nbGUiLz4mI3hhOyAgICAgICAgICAgIDxnIGlkPSJDb21iaW5lZC1TaGFwZSI+JiN4YTsgICAgICAgICAgICAgICAgPHVzZSB4bGluazpocmVmPSIjcGF0aC0zIiBmaWx0ZXI9InVybCgjZmlsdGVyLTQpIiBmaWxsLW9wYWNpdHk9IjEiIGZpbGw9ImJsYWNrIi8+JiN4YTsgICAgICAgICAgICAgICAgPHVzZSB4bGluazpocmVmPSIjcGF0aC0zIiBmaWxsLXJ1bGU9ImV2ZW5vZGQiIGZpbGw9InVybCgjbGluZWFyR3JhZGllbnQtMikiLz4mI3hhOyAgICAgICAgICAgIDwvZz4mI3hhOyAgICAgICAgICAgIDxwYXRoIGZpbGw9InVybCgjbGluZWFyR3JhZGllbnQtNSkiIGlkPSJDb21iaW5lZC1TaGFwZSIgZD0iTTIxOSw2MDQgTDIxOSw2MzAgTDE5Myw2MzAgTDI2LDYzMCBDMTEuNjQwNTk2NSw2MzAgMS43NTg1MTk3NWUtMTUsNjE4LjM1OTQwMyAwLDYwNCBMMCwzNDEgQy0xLjc1ODUxOTc1ZS0xNSwzMjYuNjQwNTk3IDExLjY0MDU5NjUsMzE1IDI2LDMxNSBMMTkzLDMxNSBDMjA3LjM1OTQwMywzMTUgMjE5LDMyNi42NDA1OTcgMjE5LDM0MSBMMjE5LDYwNCBaIi8+JiN4YTsgICAgICAgIDwvZz4mI3hhOyAgICA8L2c+JiN4YTs8L3N2Zz4=;fontSize=11;" parent="WIyWlLk6GJQsqaUBKTNV-1" vertex="1">
          <mxGeometry x="847" y="1888.2900000000002" width="50" height="50" as="geometry" />
        </mxCell>
        <mxCell id="cwOBDrLdAPWHfRntNwnl-129" style="edgeStyle=entityRelationEdgeStyle;rounded=0;orthogonalLoop=1;jettySize=auto;html=1;" parent="WIyWlLk6GJQsqaUBKTNV-1" source="cwOBDrLdAPWHfRntNwnl-104" target="cwOBDrLdAPWHfRntNwnl-113" edge="1">
          <mxGeometry relative="1" as="geometry" />
        </mxCell>
        <mxCell id="cwOBDrLdAPWHfRntNwnl-131" style="edgeStyle=entityRelationEdgeStyle;rounded=0;orthogonalLoop=1;jettySize=auto;html=1;" parent="WIyWlLk6GJQsqaUBKTNV-1" source="cwOBDrLdAPWHfRntNwnl-104" target="cwOBDrLdAPWHfRntNwnl-111" edge="1">
          <mxGeometry relative="1" as="geometry" />
        </mxCell>
        <mxCell id="cwOBDrLdAPWHfRntNwnl-104" value="" style="image;aspect=fixed;html=1;points=[];align=center;fontSize=12;image=img/lib/azure2/analytics/Azure_Databricks.svg;" parent="WIyWlLk6GJQsqaUBKTNV-1" vertex="1">
          <mxGeometry x="457.99" y="1820.18" width="50.79" height="55" as="geometry" />
        </mxCell>
        <mxCell id="cwOBDrLdAPWHfRntNwnl-119" style="rounded=0;orthogonalLoop=1;jettySize=auto;html=1;entryX=0.013;entryY=0.476;entryDx=0;entryDy=0;entryPerimeter=0;" parent="WIyWlLk6GJQsqaUBKTNV-1" source="cwOBDrLdAPWHfRntNwnl-85" target="cwOBDrLdAPWHfRntNwnl-104" edge="1">
          <mxGeometry relative="1" as="geometry" />
        </mxCell>
        <mxCell id="cwOBDrLdAPWHfRntNwnl-124" style="edgeStyle=entityRelationEdgeStyle;rounded=0;orthogonalLoop=1;jettySize=auto;html=1;entryX=0.076;entryY=0.652;entryDx=0;entryDy=0;entryPerimeter=0;" parent="WIyWlLk6GJQsqaUBKTNV-1" source="cwOBDrLdAPWHfRntNwnl-104" target="cwOBDrLdAPWHfRntNwnl-117" edge="1">
          <mxGeometry relative="1" as="geometry" />
        </mxCell>
        <mxCell id="cwOBDrLdAPWHfRntNwnl-128" style="edgeStyle=entityRelationEdgeStyle;rounded=0;orthogonalLoop=1;jettySize=auto;html=1;entryX=0.085;entryY=0.711;entryDx=0;entryDy=0;entryPerimeter=0;" parent="WIyWlLk6GJQsqaUBKTNV-1" source="cwOBDrLdAPWHfRntNwnl-104" target="cwOBDrLdAPWHfRntNwnl-115" edge="1">
          <mxGeometry relative="1" as="geometry" />
        </mxCell>
        <mxCell id="cwOBDrLdAPWHfRntNwnl-133" value="" style="group" parent="WIyWlLk6GJQsqaUBKTNV-1" vertex="1" connectable="0">
          <mxGeometry x="660" y="1754" width="30" height="23.13991874047747" as="geometry" />
        </mxCell>
        <mxCell id="cwOBDrLdAPWHfRntNwnl-117" value="gold_dahrolling_4m_vw" style="image;aspect=fixed;html=1;points=[];align=center;fontSize=10;image=img/lib/azure2/general/Table.svg;imageBackground=default;" parent="cwOBDrLdAPWHfRntNwnl-133" vertex="1">
          <mxGeometry width="28.476562500000007" height="23.139918740477402" as="geometry" />
        </mxCell>
        <mxCell id="cwOBDrLdAPWHfRntNwnl-118" value="" style="html=1;verticalLabelPosition=bottom;align=center;labelBackgroundColor=#ffffff;verticalAlign=top;strokeWidth=2;strokeColor=#0080F0;shadow=0;dashed=0;shape=mxgraph.ios7.icons.eye;" parent="cwOBDrLdAPWHfRntNwnl-133" vertex="1">
          <mxGeometry x="16.649999999999977" y="11.8900000000001" width="13.35" height="8.11" as="geometry" />
        </mxCell>
        <mxCell id="cwOBDrLdAPWHfRntNwnl-134" style="edgeStyle=orthogonalEdgeStyle;rounded=0;orthogonalLoop=1;jettySize=auto;html=1;" parent="WIyWlLk6GJQsqaUBKTNV-1" source="cwOBDrLdAPWHfRntNwnl-118" target="cwOBDrLdAPWHfRntNwnl-84" edge="1">
          <mxGeometry relative="1" as="geometry" />
        </mxCell>
        <mxCell id="cwOBDrLdAPWHfRntNwnl-135" value="" style="group" parent="WIyWlLk6GJQsqaUBKTNV-1" vertex="1" connectable="0">
          <mxGeometry x="660" y="1808.2924144005285" width="30" height="23.13991874047747" as="geometry" />
        </mxCell>
        <mxCell id="cwOBDrLdAPWHfRntNwnl-115" value="gold_dah_monthly" style="image;aspect=fixed;html=1;points=[];align=center;fontSize=10;image=img/lib/azure2/general/Table.svg;imageBackground=default;" parent="cwOBDrLdAPWHfRntNwnl-135" vertex="1">
          <mxGeometry width="28.476562500000007" height="23.139918740477402" as="geometry" />
        </mxCell>
        <mxCell id="cwOBDrLdAPWHfRntNwnl-116" value="" style="html=1;verticalLabelPosition=bottom;align=center;labelBackgroundColor=#ffffff;verticalAlign=top;strokeWidth=2;strokeColor=#0080F0;shadow=0;dashed=0;shape=mxgraph.ios7.icons.eye;" parent="cwOBDrLdAPWHfRntNwnl-135" vertex="1">
          <mxGeometry x="16.649999999999977" y="11.88758559947155" width="13.35" height="9.82" as="geometry" />
        </mxCell>
        <mxCell id="cwOBDrLdAPWHfRntNwnl-136" style="edgeStyle=orthogonalEdgeStyle;rounded=0;orthogonalLoop=1;jettySize=auto;html=1;" parent="WIyWlLk6GJQsqaUBKTNV-1" source="cwOBDrLdAPWHfRntNwnl-115" target="cwOBDrLdAPWHfRntNwnl-84" edge="1">
          <mxGeometry relative="1" as="geometry" />
        </mxCell>
        <mxCell id="cwOBDrLdAPWHfRntNwnl-137" value="" style="group" parent="WIyWlLk6GJQsqaUBKTNV-1" vertex="1" connectable="0">
          <mxGeometry x="660" y="1875.18" width="30" height="23.13991874047747" as="geometry" />
        </mxCell>
        <mxCell id="cwOBDrLdAPWHfRntNwnl-113" value="gold_dah_video_4m_vw" style="image;aspect=fixed;html=1;points=[];align=center;fontSize=10;image=img/lib/azure2/general/Table.svg;imageBackground=default;" parent="cwOBDrLdAPWHfRntNwnl-137" vertex="1">
          <mxGeometry width="28.476562500000007" height="23.139918740477402" as="geometry" />
        </mxCell>
        <mxCell id="cwOBDrLdAPWHfRntNwnl-114" value="" style="html=1;verticalLabelPosition=bottom;align=center;labelBackgroundColor=#ffffff;verticalAlign=top;strokeWidth=2;strokeColor=#0080F0;shadow=0;dashed=0;shape=mxgraph.ios7.icons.eye;" parent="cwOBDrLdAPWHfRntNwnl-137" vertex="1">
          <mxGeometry x="16.649999999999977" y="11.8900000000001" width="13.35" height="8.11" as="geometry" />
        </mxCell>
        <mxCell id="cwOBDrLdAPWHfRntNwnl-138" value="" style="group" parent="WIyWlLk6GJQsqaUBKTNV-1" vertex="1" connectable="0">
          <mxGeometry x="660" y="1938.2924144005285" width="30" height="23.13991874047747" as="geometry" />
        </mxCell>
        <mxCell id="cwOBDrLdAPWHfRntNwnl-111" value="gold_dah_video_monthly" style="image;aspect=fixed;html=1;points=[];align=center;fontSize=10;image=img/lib/azure2/general/Table.svg;imageBackground=default;" parent="cwOBDrLdAPWHfRntNwnl-138" vertex="1">
          <mxGeometry width="28.476562500000007" height="23.139918740477402" as="geometry" />
        </mxCell>
        <mxCell id="cwOBDrLdAPWHfRntNwnl-112" value="" style="html=1;verticalLabelPosition=bottom;align=center;labelBackgroundColor=#ffffff;verticalAlign=top;strokeWidth=2;strokeColor=#0080F0;shadow=0;dashed=0;shape=mxgraph.ios7.icons.eye;" parent="cwOBDrLdAPWHfRntNwnl-138" vertex="1">
          <mxGeometry x="16.649999999999977" y="11.88758559947155" width="13.35" height="9.82" as="geometry" />
        </mxCell>
        <mxCell id="cwOBDrLdAPWHfRntNwnl-143" value="" style="edgeStyle=entityRelationEdgeStyle;rounded=0;orthogonalLoop=1;jettySize=auto;html=1;strokeColor=none;" parent="WIyWlLk6GJQsqaUBKTNV-1" target="cwOBDrLdAPWHfRntNwnl-141" edge="1">
          <mxGeometry relative="1" as="geometry">
            <mxPoint x="211.86" y="1384.66" as="targetPoint" />
            <mxPoint x="272.64999999999975" y="1397.16" as="sourcePoint" />
          </mxGeometry>
        </mxCell>
        <mxCell id="qqC1uzWgD0SAvwENbkAm-71" value="" style="rounded=0;whiteSpace=wrap;html=1;fillColor=none;movable=1;resizable=1;rotatable=1;deletable=1;editable=1;locked=0;connectable=1;" parent="WIyWlLk6GJQsqaUBKTNV-1" vertex="1">
          <mxGeometry x="250" y="1290" width="230" height="300" as="geometry" />
        </mxCell>
        <mxCell id="cwOBDrLdAPWHfRntNwnl-56" style="rounded=0;orthogonalLoop=1;jettySize=auto;html=1;" parent="WIyWlLk6GJQsqaUBKTNV-1" source="qqC1uzWgD0SAvwENbkAm-60" target="qqC1uzWgD0SAvwENbkAm-81" edge="1">
          <mxGeometry relative="1" as="geometry" />
        </mxCell>
        <mxCell id="cwOBDrLdAPWHfRntNwnl-141" value="" style="image;aspect=fixed;html=1;points=[];align=center;fontSize=12;image=img/lib/azure2/security/Key_Vaults.svg;" parent="WIyWlLk6GJQsqaUBKTNV-1" vertex="1">
          <mxGeometry x="300" y="1407.5" width="20" height="20" as="geometry" />
        </mxCell>
        <mxCell id="cwOBDrLdAPWHfRntNwnl-147" value="" style="image;aspect=fixed;html=1;points=[];align=center;fontSize=12;image=img/lib/azure2/security/Key_Vaults.svg;" parent="WIyWlLk6GJQsqaUBKTNV-1" vertex="1">
          <mxGeometry x="401.06" y="1407.5" width="20" height="20" as="geometry" />
        </mxCell>
        <mxCell id="d011Ky8ZdNKHxYDOr_Va-3" value="" style="verticalLabelPosition=bottom;verticalAlign=top;html=1;shape=mxgraph.basic.rect;fillColor2=none;strokeWidth=1;size=20;indent=5;fillColor=#000000;" parent="WIyWlLk6GJQsqaUBKTNV-1" vertex="1">
          <mxGeometry x="47" y="2120" width="903" height="40" as="geometry" />
        </mxCell>
        <mxCell id="d011Ky8ZdNKHxYDOr_Va-4" value="MSN" style="text;html=1;align=center;verticalAlign=middle;whiteSpace=wrap;rounded=0;fillColor=none;fontColor=#ffffff;strokeColor=#314354;fontSize=21;" parent="WIyWlLk6GJQsqaUBKTNV-1" vertex="1">
          <mxGeometry x="47" y="2125" width="90" height="35" as="geometry" />
        </mxCell>
        <mxCell id="d011Ky8ZdNKHxYDOr_Va-5" value="" style="verticalLabelPosition=bottom;verticalAlign=top;html=1;shape=mxgraph.basic.rect;fillColor2=none;strokeWidth=1;size=20;indent=5;fillColor=#000000;strokeColor=#6B6B6B;" parent="WIyWlLk6GJQsqaUBKTNV-1" vertex="1">
          <mxGeometry x="45.5" y="2160" width="904.5" height="20" as="geometry" />
        </mxCell>
        <mxCell id="d011Ky8ZdNKHxYDOr_Va-6" value="Data Source" style="text;html=1;align=center;verticalAlign=middle;whiteSpace=wrap;rounded=0;fillColor=none;fontColor=#ffffff;strokeColor=none;fontSize=17;" parent="WIyWlLk6GJQsqaUBKTNV-1" vertex="1">
          <mxGeometry x="61.000000000000014" y="2155" width="160" height="30" as="geometry" />
        </mxCell>
        <mxCell id="d011Ky8ZdNKHxYDOr_Va-7" value="Staging Layer" style="text;html=1;align=center;verticalAlign=middle;whiteSpace=wrap;rounded=0;fillColor=none;fontColor=#ffffff;strokeColor=none;fontSize=17;" parent="WIyWlLk6GJQsqaUBKTNV-1" vertex="1">
          <mxGeometry x="268.06" y="2155" width="160" height="30" as="geometry" />
        </mxCell>
        <mxCell id="d011Ky8ZdNKHxYDOr_Va-8" value="Final Layer" style="text;html=1;align=center;verticalAlign=middle;whiteSpace=wrap;rounded=0;fillColor=none;fontColor=#ffffff;strokeColor=none;fontSize=17;" parent="WIyWlLk6GJQsqaUBKTNV-1" vertex="1">
          <mxGeometry x="547" y="2155" width="160" height="30" as="geometry" />
        </mxCell>
        <mxCell id="d011Ky8ZdNKHxYDOr_Va-9" value="End PBI" style="text;html=1;align=center;verticalAlign=middle;whiteSpace=wrap;rounded=0;fillColor=none;fontColor=#ffffff;strokeColor=none;fontSize=17;" parent="WIyWlLk6GJQsqaUBKTNV-1" vertex="1">
          <mxGeometry x="792" y="2155" width="165" height="30" as="geometry" />
        </mxCell>
        <mxCell id="d011Ky8ZdNKHxYDOr_Va-10" value="" style="rounded=0;whiteSpace=wrap;html=1;fillColor=none;movable=0;resizable=0;rotatable=0;deletable=0;editable=0;locked=1;connectable=0;" parent="WIyWlLk6GJQsqaUBKTNV-1" vertex="1">
          <mxGeometry x="487" y="2180" width="310" height="300" as="geometry" />
        </mxCell>
        <mxCell id="d011Ky8ZdNKHxYDOr_Va-11" value="" style="rounded=0;whiteSpace=wrap;html=1;fillColor=none;movable=0;resizable=0;rotatable=0;deletable=0;editable=0;locked=1;connectable=0;" parent="WIyWlLk6GJQsqaUBKTNV-1" vertex="1">
          <mxGeometry x="797" y="2180" width="150" height="300" as="geometry" />
        </mxCell>
        <mxCell id="d011Ky8ZdNKHxYDOr_Va-12" value="" style="rounded=0;whiteSpace=wrap;html=1;fillColor=none;movable=1;resizable=1;rotatable=1;deletable=1;editable=1;locked=0;connectable=1;" parent="WIyWlLk6GJQsqaUBKTNV-1" vertex="1">
          <mxGeometry x="47" y="2180" width="210" height="300" as="geometry" />
        </mxCell>
        <mxCell id="d011Ky8ZdNKHxYDOr_Va-13" value="MSN Ads Dashboard" style="shape=image;verticalLabelPosition=bottom;labelBackgroundColor=default;verticalAlign=top;aspect=fixed;imageAspect=0;image=data:image/svg+xml,PHN2ZyB4bWxuczp4bGluaz0iaHR0cDovL3d3dy53My5vcmcvMTk5OS94bGluayIgeG1sbnM9Imh0dHA6Ly93d3cudzMub3JnLzIwMDAvc3ZnIiB2ZXJzaW9uPSIxLjEiIHZpZXdCb3g9IjAgMCA2MzAgNjMwIiBoZWlnaHQ9IjYzMHB4IiB3aWR0aD0iNjMwcHgiPiYjeGE7ICAgICYjeGE7ICAgIDx0aXRsZT5QQkkgTG9nbzwvdGl0bGU+JiN4YTsgICAgPGRlc2M+Q3JlYXRlZCB3aXRoIFNrZXRjaC48L2Rlc2M+JiN4YTsgICAgPGRlZnM+JiN4YTsgICAgICAgIDxsaW5lYXJHcmFkaWVudCBpZD0ibGluZWFyR3JhZGllbnQtMSIgeTI9IjEwMCUiIHgyPSI1MCUiIHkxPSIwJSIgeDE9IjUwJSI+JiN4YTsgICAgICAgICAgICA8c3RvcCBvZmZzZXQ9IjAlIiBzdG9wLWNvbG9yPSIjRUJCQjE0Ii8+JiN4YTsgICAgICAgICAgICA8c3RvcCBvZmZzZXQ9IjEwMCUiIHN0b3AtY29sb3I9IiNCMjU0MDAiLz4mI3hhOyAgICAgICAgPC9saW5lYXJHcmFkaWVudD4mI3hhOyAgICAgICAgPGxpbmVhckdyYWRpZW50IGlkPSJsaW5lYXJHcmFkaWVudC0yIiB5Mj0iMTAwJSIgeDI9IjUwJSIgeTE9IjAlIiB4MT0iNTAlIj4mI3hhOyAgICAgICAgICAgIDxzdG9wIG9mZnNldD0iMCUiIHN0b3AtY29sb3I9IiNGOUU1ODMiLz4mI3hhOyAgICAgICAgICAgIDxzdG9wIG9mZnNldD0iMTAwJSIgc3RvcC1jb2xvcj0iI0RFOTgwMCIvPiYjeGE7ICAgICAgICA8L2xpbmVhckdyYWRpZW50PiYjeGE7ICAgICAgICA8cGF0aCBpZD0icGF0aC0zIiBkPSJNMzQ2LDYwNCBMMzQ2LDYzMCBMMzIwLDYzMCBMMTUzLDYzMCBDMTM4LjY0MDU5Nyw2MzAgMTI3LDYxOC4zNTk0MDMgMTI3LDYwNCBMMTI3LDE4MyBDMTI3LDE2OC42NDA1OTcgMTM4LjY0MDU5NywxNTcgMTUzLDE1NyBMMzIwLDE1NyBDMzM0LjM1OTQwMywxNTcgMzQ2LDE2OC42NDA1OTcgMzQ2LDE4MyBMMzQ2LDYwNCBaIi8+JiN4YTsgICAgICAgIDxmaWx0ZXIgaWQ9ImZpbHRlci00IiBmaWx0ZXJVbml0cz0ib2JqZWN0Qm91bmRpbmdCb3giIGhlaWdodD0iMTE2LjklIiB3aWR0aD0iMTM2LjUlIiB5PSItNi4zJSIgeD0iLTkuMSUiPiYjeGE7ICAgICAgICAgICAgPGZlT2Zmc2V0IHJlc3VsdD0ic2hhZG93T2Zmc2V0T3V0ZXIxIiBpbj0iU291cmNlQWxwaGEiIGR5PSIxMCIgZHg9IjIwIi8+JiN4YTsgICAgICAgICAgICA8ZmVHYXVzc2lhbkJsdXIgcmVzdWx0PSJzaGFkb3dCbHVyT3V0ZXIxIiBpbj0ic2hhZG93T2Zmc2V0T3V0ZXIxIiBzdGREZXZpYXRpb249IjEwIi8+JiN4YTsgICAgICAgICAgICA8ZmVDb2xvck1hdHJpeCBpbj0ic2hhZG93Qmx1ck91dGVyMSIgdHlwZT0ibWF0cml4IiB2YWx1ZXM9IjAgMCAwIDAgMCAgIDAgMCAwIDAgMCAgIDAgMCAwIDAgMCAgMCAwIDAgMC4wNTMwMjExOTc2IDAiLz4mI3hhOyAgICAgICAgPC9maWx0ZXI+JiN4YTsgICAgICAgIDxsaW5lYXJHcmFkaWVudCBpZD0ibGluZWFyR3JhZGllbnQtNSIgeTI9IjEwMCUiIHgyPSI1MCUiIHkxPSIwJSIgeDE9IjUwJSI+JiN4YTsgICAgICAgICAgICA8c3RvcCBvZmZzZXQ9IjAlIiBzdG9wLWNvbG9yPSIjRjlFNjhCIi8+JiN4YTsgICAgICAgICAgICA8c3RvcCBvZmZzZXQ9IjEwMCUiIHN0b3AtY29sb3I9IiNGM0NEMzIiLz4mI3hhOyAgICAgICAgPC9saW5lYXJHcmFkaWVudD4mI3hhOyAgICA8L2RlZnM+JiN4YTsgICAgPGcgZmlsbC1ydWxlPSJldmVub2RkIiBmaWxsPSJub25lIiBzdHJva2Utd2lkdGg9IjEiIHN0cm9rZT0ibm9uZSIgaWQ9IlBCSS1Mb2dvIj4mI3hhOyAgICAgICAgPGcgdHJhbnNmb3JtPSJ0cmFuc2xhdGUoNzcuNTAwMDAwLCAwLjAwMDAwMCkiIGlkPSJHcm91cCI+JiN4YTsgICAgICAgICAgICA8cmVjdCByeD0iMjYiIGhlaWdodD0iNjMwIiB3aWR0aD0iMjE5IiB5PSIwIiB4PSIyNTYiIGZpbGw9InVybCgjbGluZWFyR3JhZGllbnQtMSkiIGlkPSJSZWN0YW5nbGUiLz4mI3hhOyAgICAgICAgICAgIDxnIGlkPSJDb21iaW5lZC1TaGFwZSI+JiN4YTsgICAgICAgICAgICAgICAgPHVzZSB4bGluazpocmVmPSIjcGF0aC0zIiBmaWx0ZXI9InVybCgjZmlsdGVyLTQpIiBmaWxsLW9wYWNpdHk9IjEiIGZpbGw9ImJsYWNrIi8+JiN4YTsgICAgICAgICAgICAgICAgPHVzZSB4bGluazpocmVmPSIjcGF0aC0zIiBmaWxsLXJ1bGU9ImV2ZW5vZGQiIGZpbGw9InVybCgjbGluZWFyR3JhZGllbnQtMikiLz4mI3hhOyAgICAgICAgICAgIDwvZz4mI3hhOyAgICAgICAgICAgIDxwYXRoIGZpbGw9InVybCgjbGluZWFyR3JhZGllbnQtNSkiIGlkPSJDb21iaW5lZC1TaGFwZSIgZD0iTTIxOSw2MDQgTDIxOSw2MzAgTDE5Myw2MzAgTDI2LDYzMCBDMTEuNjQwNTk2NSw2MzAgMS43NTg1MTk3NWUtMTUsNjE4LjM1OTQwMyAwLDYwNCBMMCwzNDEgQy0xLjc1ODUxOTc1ZS0xNSwzMjYuNjQwNTk3IDExLjY0MDU5NjUsMzE1IDI2LDMxNSBMMTkzLDMxNSBDMjA3LjM1OTQwMywzMTUgMjE5LDMyNi42NDA1OTcgMjE5LDM0MSBMMjE5LDYwNCBaIi8+JiN4YTsgICAgICAgIDwvZz4mI3hhOyAgICA8L2c+JiN4YTs8L3N2Zz4=;fontSize=11;" parent="WIyWlLk6GJQsqaUBKTNV-1" vertex="1">
          <mxGeometry x="827" y="2232.1099999999997" width="54.32" height="54.32" as="geometry" />
        </mxCell>
        <mxCell id="d011Ky8ZdNKHxYDOr_Va-14" value="ADLS Gen 2" style="image;aspect=fixed;html=1;points=[];align=center;fontSize=12;image=img/lib/azure2/storage/Data_Lake_Storage_Gen1.svg;" parent="WIyWlLk6GJQsqaUBKTNV-1" vertex="1">
          <mxGeometry x="350.46" y="2290" width="43.08" height="35" as="geometry" />
        </mxCell>
        <mxCell id="d011Ky8ZdNKHxYDOr_Va-15" value="" style="image;aspect=fixed;html=1;points=[];align=center;fontSize=12;image=img/lib/azure2/analytics/Azure_Databricks.svg;" parent="WIyWlLk6GJQsqaUBKTNV-1" vertex="1">
          <mxGeometry x="237" y="2280" width="50.79" height="55" as="geometry" />
        </mxCell>
        <mxCell id="d011Ky8ZdNKHxYDOr_Va-16" style="edgeStyle=entityRelationEdgeStyle;rounded=0;orthogonalLoop=1;jettySize=auto;html=1;" parent="WIyWlLk6GJQsqaUBKTNV-1" source="d011Ky8ZdNKHxYDOr_Va-22" target="d011Ky8ZdNKHxYDOr_Va-15" edge="1">
          <mxGeometry relative="1" as="geometry" />
        </mxCell>
        <mxCell id="d011Ky8ZdNKHxYDOr_Va-17" style="edgeStyle=entityRelationEdgeStyle;rounded=0;orthogonalLoop=1;jettySize=auto;html=1;" parent="WIyWlLk6GJQsqaUBKTNV-1" source="d011Ky8ZdNKHxYDOr_Va-21" target="d011Ky8ZdNKHxYDOr_Va-15" edge="1">
          <mxGeometry relative="1" as="geometry" />
        </mxCell>
        <mxCell id="d011Ky8ZdNKHxYDOr_Va-18" style="edgeStyle=entityRelationEdgeStyle;rounded=0;orthogonalLoop=1;jettySize=auto;html=1;" parent="WIyWlLk6GJQsqaUBKTNV-1" source="d011Ky8ZdNKHxYDOr_Va-20" target="d011Ky8ZdNKHxYDOr_Va-15" edge="1">
          <mxGeometry relative="1" as="geometry" />
        </mxCell>
        <mxCell id="d011Ky8ZdNKHxYDOr_Va-19" value="" style="edgeStyle=entityRelationEdgeStyle;rounded=0;orthogonalLoop=1;jettySize=auto;html=1;strokeColor=none;" parent="WIyWlLk6GJQsqaUBKTNV-1" source="d011Ky8ZdNKHxYDOr_Va-21" target="d011Ky8ZdNKHxYDOr_Va-15" edge="1">
          <mxGeometry relative="1" as="geometry">
            <mxPoint x="324.21" y="3595" as="targetPoint" />
            <mxPoint x="245.41999999999996" y="3523" as="sourcePoint" />
          </mxGeometry>
        </mxCell>
        <mxCell id="d011Ky8ZdNKHxYDOr_Va-20" value="Agora Dataset" style="shape=image;verticalLabelPosition=bottom;labelBackgroundColor=default;verticalAlign=top;aspect=fixed;imageAspect=0;image=data:image/png,iVBORw0KGgoAAAANSUhEUgAAAEAAAABACAYAAACqaXHeAAAABGdBTUEAALGPC/xhBQAAAAFzUkdCAK7OHOkAAAAgY0hSTQAAeiYAAICEAAD6AAAAgOgAAHUwAADqYAAAOpgAABdwnLpRPAAAAAZiS0dEAP8A/wD/oL2nkwAAAAlwSFlzAAAOwwAADsMBx2+oZAAABbtJREFUeNrdm0moHFUUhr+q7pen+BwCooKIZCFKVg44kLgQxYUDgi5EwZCF+kzkmeAAggOYhQOoycKY4YkKzgvJwmxcmKBiRCQgCgkISTAaE5yjIuYl3V0uzjmp6rLm6VXlh+J2375ddc9/z3SHAoED9PTzFcCbwAHgGOB17BpouQXYp58PAO8AV6mMPZX5uPAAk8B6YNQCIYpeQy33AIuAH0L1I2ADcFJIdiaBjwIMDjpKhAl6jQr3c6De5PKAbSrzcazXH+Y6KriHb65rVKbTgUOBkfcCMnrAyyb8Uv1zVwUP2v02wFW5pmIIsO/HgKUuMA30tbKL8BCn9pvKMgrUx2GkMk8D7I9hqSuXjf6dKtyElqeQrAEe8B3A0RYIUdbuN6rQfXzPnkSAXUdpgRBFL/P4X6uwqPB5CPDMYXQNHuLs5oC7gX8QP+DlvVFXCRhq+SiwE1H9YdGbzbcqF7X7Ldr/XkieE9oELHx9D6wM1BVG1wgw3Af8REG77yoBA+3vs8CHlLT7IObbpvMkO5/iT2UdonHC+QBPhT4M3IuMukNJ1Td0gQBzcquBb6lh3jLf6p0l5L2qfe2Rjlwm0GYCLNXdBZwWEq4yAtpqAp4KMkDs/i8qCHlRaCsB5ugeBz6nwpAXhflW9biQt1X7l3eQOm0CI0TVDwIrmnhg2wgwrAR+VDJqX6qbb5UPq/6L2q9+Qp8rywTbQoCFvC+ABSFBouBWRYADXJxfaSqHhz/N/YX4VNfqzwOuBN5XMqLMxAUWI4uklYfPupCk2uCbxbvAulBdIbgtuyB+tHqIn7gFuAOZHJWWrysbIi7iJ85FtvEgW1qcKltbw2AcNiD2n5WAVHSBANPSVYj6H6ny5m0nwEXs/hLgOa3LMiVuNQEu/v5dEhxk5CeBzcDJ+JOkytAHvmpQ+BGybb0M+JL4GA6+138auFw/97VMI85TwrYC5yB7gLHENZ3qvqLPTdI+U/MbGc8Ug6tEdhAinAfkygSbCoNDRO13AjMB4qPgaPuzEK9fBqNAGakBfer3A54K/y9yIGGOZNW3mP8ScD6+6heBGyidpAZ1wgR9BPE3SVpnKz/TwO36uVSqmwVNrOq+p89KCmE2GIuRNcA4263UB9SpAbaRuQ/f7uNG3jx3Dwl5p1JDyItCEyYwDfxK8qqu/fYUcDVi95UmPE0TYBuZa5Cja0mruhbvrwWewF8baAR1EGCOa7sSYOv7UbCQtxDYpHWNLl5UTYDZsZ3Zsw2OtOevAy7A15zOEmBObgbYS7aQtwxYTkMhL6oTVcESlk1I2EvK222WtwhYy3ioyvqcSjLYqgiwkPcNkvBAvNOzWd4E8DZwZuB7HlSivVUQ4OGf2bsH/8xeEgEesAT4G9GWPCFviJwE3xV4fmkBqsj2Vuckta4kp9GNkbQze2kd7ZW43IT7NkKAzdH3A2fXPKp5kHs9oCxWIGf2FjDumY2gOAT3ArK0H3vRKUP7zCij+s/oPRqP3wmoXQMsYfkMeBI/l78LuAH4E5nNrUXm/+HFD/sebD+FZINJ7ZcD1yNT5SngBSTsJi2uZEKedwONycPAhfp/282d1d+OaHmr1ocdo5G+OdT+tpT2r4fa3xzTPtcLEy5yGgOy2ZMxvYr/n9kbhMq0UQn/L+0MUPj+Zezf/nvQBT7O2GGbo78GvIGv+gYbCRsxJ1AGL4NbUfsiMFk/cRHVTZuFWaq7G3gwI2FBtsfibsXti8DmIrMusAOxRwf/Bapwh4qc2bMRWoi8lbob2RMYVNS+KGyTZBbYYer0MHARcB2+LdpSsp3cegz/zF6WTplAE8BlwBnAHxnbX6pE/B7xexGYIwRx2tuBh4JCzgE3Ia+TuvhJx1A/fwA8j686eR+e1dFZe2tX5aaNpc8bVdY5wHEZV/EZ5BXzt5A3r3vIguYDJR4cfDU/yxQ2b/ssOIQcq1kC3I+Efgfw/gOY1xdt9xaodwAAAABJRU5ErkJggg==;" parent="WIyWlLk6GJQsqaUBKTNV-1" vertex="1">
          <mxGeometry x="109.43" y="2373" width="36" height="36" as="geometry" />
        </mxCell>
        <mxCell id="d011Ky8ZdNKHxYDOr_Va-21" value="Dah_Historical" style="image;aspect=fixed;html=1;points=[];align=center;fontSize=11;image=img/lib/azure2/databases/SQL_Data_Warehouses.svg;strokeColor=#0080F0;labelBackgroundColor=#ffffff;strokeWidth=2;shadow=0;dashed=0;" parent="WIyWlLk6GJQsqaUBKTNV-1" vertex="1">
          <mxGeometry x="103.91" y="2211.33" width="41.52" height="42.17" as="geometry" />
        </mxCell>
        <mxCell id="d011Ky8ZdNKHxYDOr_Va-22" value="Dah_Rolling" style="image;aspect=fixed;html=1;points=[];align=center;fontSize=11;image=img/lib/azure2/databases/SQL_Data_Warehouses.svg;strokeColor=#0080F0;labelBackgroundColor=#ffffff;strokeWidth=2;shadow=0;dashed=0;" parent="WIyWlLk6GJQsqaUBKTNV-1" vertex="1">
          <mxGeometry x="103.91" y="2286.43" width="41.51" height="42.15" as="geometry" />
        </mxCell>
        <mxCell id="d011Ky8ZdNKHxYDOr_Va-23" value="" style="group" parent="WIyWlLk6GJQsqaUBKTNV-1" vertex="1" connectable="0">
          <mxGeometry x="560" y="2200" width="39.38" height="33.5" as="geometry" />
        </mxCell>
        <mxCell id="d011Ky8ZdNKHxYDOr_Va-24" value="gold_dahrolling" style="image;aspect=fixed;html=1;points=[];align=center;fontSize=12;image=img/lib/azure2/general/Table.svg;imageBackground=default;" parent="d011Ky8ZdNKHxYDOr_Va-23" vertex="1">
          <mxGeometry width="38.97422467956777" height="31.670268911786913" as="geometry" />
        </mxCell>
        <mxCell id="d011Ky8ZdNKHxYDOr_Va-25" value="" style="image;sketch=0;aspect=fixed;html=1;points=[];align=center;fontSize=12;image=img/lib/mscae/Databricks.svg;" parent="d011Ky8ZdNKHxYDOr_Va-23" vertex="1">
          <mxGeometry x="19.79391806986682" y="14.5" width="19.58608193013322" height="18.804222166373478" as="geometry" />
        </mxCell>
        <mxCell id="d011Ky8ZdNKHxYDOr_Va-26" value="" style="group;fontSize=11;" parent="WIyWlLk6GJQsqaUBKTNV-1" vertex="1" connectable="0">
          <mxGeometry x="560" y="2280" width="40" height="42.5" as="geometry" />
        </mxCell>
        <mxCell id="d011Ky8ZdNKHxYDOr_Va-27" value="agora_native" style="image;aspect=fixed;html=1;points=[];align=center;fontSize=12;image=img/lib/azure2/general/Table.svg;imageBackground=default;" parent="d011Ky8ZdNKHxYDOr_Va-26" vertex="1">
          <mxGeometry width="40.00000000000001" height="32.503809040121894" as="geometry" />
        </mxCell>
        <mxCell id="d011Ky8ZdNKHxYDOr_Va-28" value="" style="image;sketch=0;aspect=fixed;html=1;points=[];align=center;fontSize=12;image=img/lib/mscae/Databricks.svg;" parent="d011Ky8ZdNKHxYDOr_Va-26" vertex="1">
          <mxGeometry x="19.898425596749654" y="19.753521126760564" width="20.101574403250382" height="19.299136617572373" as="geometry" />
        </mxCell>
        <mxCell id="d011Ky8ZdNKHxYDOr_Va-29" value="MSN Video Dashboard" style="shape=image;verticalLabelPosition=bottom;labelBackgroundColor=default;verticalAlign=top;aspect=fixed;imageAspect=0;image=data:image/svg+xml,PHN2ZyB4bWxuczp4bGluaz0iaHR0cDovL3d3dy53My5vcmcvMTk5OS94bGluayIgeG1sbnM9Imh0dHA6Ly93d3cudzMub3JnLzIwMDAvc3ZnIiB2ZXJzaW9uPSIxLjEiIHZpZXdCb3g9IjAgMCA2MzAgNjMwIiBoZWlnaHQ9IjYzMHB4IiB3aWR0aD0iNjMwcHgiPiYjeGE7ICAgICYjeGE7ICAgIDx0aXRsZT5QQkkgTG9nbzwvdGl0bGU+JiN4YTsgICAgPGRlc2M+Q3JlYXRlZCB3aXRoIFNrZXRjaC48L2Rlc2M+JiN4YTsgICAgPGRlZnM+JiN4YTsgICAgICAgIDxsaW5lYXJHcmFkaWVudCBpZD0ibGluZWFyR3JhZGllbnQtMSIgeTI9IjEwMCUiIHgyPSI1MCUiIHkxPSIwJSIgeDE9IjUwJSI+JiN4YTsgICAgICAgICAgICA8c3RvcCBvZmZzZXQ9IjAlIiBzdG9wLWNvbG9yPSIjRUJCQjE0Ii8+JiN4YTsgICAgICAgICAgICA8c3RvcCBvZmZzZXQ9IjEwMCUiIHN0b3AtY29sb3I9IiNCMjU0MDAiLz4mI3hhOyAgICAgICAgPC9saW5lYXJHcmFkaWVudD4mI3hhOyAgICAgICAgPGxpbmVhckdyYWRpZW50IGlkPSJsaW5lYXJHcmFkaWVudC0yIiB5Mj0iMTAwJSIgeDI9IjUwJSIgeTE9IjAlIiB4MT0iNTAlIj4mI3hhOyAgICAgICAgICAgIDxzdG9wIG9mZnNldD0iMCUiIHN0b3AtY29sb3I9IiNGOUU1ODMiLz4mI3hhOyAgICAgICAgICAgIDxzdG9wIG9mZnNldD0iMTAwJSIgc3RvcC1jb2xvcj0iI0RFOTgwMCIvPiYjeGE7ICAgICAgICA8L2xpbmVhckdyYWRpZW50PiYjeGE7ICAgICAgICA8cGF0aCBpZD0icGF0aC0zIiBkPSJNMzQ2LDYwNCBMMzQ2LDYzMCBMMzIwLDYzMCBMMTUzLDYzMCBDMTM4LjY0MDU5Nyw2MzAgMTI3LDYxOC4zNTk0MDMgMTI3LDYwNCBMMTI3LDE4MyBDMTI3LDE2OC42NDA1OTcgMTM4LjY0MDU5NywxNTcgMTUzLDE1NyBMMzIwLDE1NyBDMzM0LjM1OTQwMywxNTcgMzQ2LDE2OC42NDA1OTcgMzQ2LDE4MyBMMzQ2LDYwNCBaIi8+JiN4YTsgICAgICAgIDxmaWx0ZXIgaWQ9ImZpbHRlci00IiBmaWx0ZXJVbml0cz0ib2JqZWN0Qm91bmRpbmdCb3giIGhlaWdodD0iMTE2LjklIiB3aWR0aD0iMTM2LjUlIiB5PSItNi4zJSIgeD0iLTkuMSUiPiYjeGE7ICAgICAgICAgICAgPGZlT2Zmc2V0IHJlc3VsdD0ic2hhZG93T2Zmc2V0T3V0ZXIxIiBpbj0iU291cmNlQWxwaGEiIGR5PSIxMCIgZHg9IjIwIi8+JiN4YTsgICAgICAgICAgICA8ZmVHYXVzc2lhbkJsdXIgcmVzdWx0PSJzaGFkb3dCbHVyT3V0ZXIxIiBpbj0ic2hhZG93T2Zmc2V0T3V0ZXIxIiBzdGREZXZpYXRpb249IjEwIi8+JiN4YTsgICAgICAgICAgICA8ZmVDb2xvck1hdHJpeCBpbj0ic2hhZG93Qmx1ck91dGVyMSIgdHlwZT0ibWF0cml4IiB2YWx1ZXM9IjAgMCAwIDAgMCAgIDAgMCAwIDAgMCAgIDAgMCAwIDAgMCAgMCAwIDAgMC4wNTMwMjExOTc2IDAiLz4mI3hhOyAgICAgICAgPC9maWx0ZXI+JiN4YTsgICAgICAgIDxsaW5lYXJHcmFkaWVudCBpZD0ibGluZWFyR3JhZGllbnQtNSIgeTI9IjEwMCUiIHgyPSI1MCUiIHkxPSIwJSIgeDE9IjUwJSI+JiN4YTsgICAgICAgICAgICA8c3RvcCBvZmZzZXQ9IjAlIiBzdG9wLWNvbG9yPSIjRjlFNjhCIi8+JiN4YTsgICAgICAgICAgICA8c3RvcCBvZmZzZXQ9IjEwMCUiIHN0b3AtY29sb3I9IiNGM0NEMzIiLz4mI3hhOyAgICAgICAgPC9saW5lYXJHcmFkaWVudD4mI3hhOyAgICA8L2RlZnM+JiN4YTsgICAgPGcgZmlsbC1ydWxlPSJldmVub2RkIiBmaWxsPSJub25lIiBzdHJva2Utd2lkdGg9IjEiIHN0cm9rZT0ibm9uZSIgaWQ9IlBCSS1Mb2dvIj4mI3hhOyAgICAgICAgPGcgdHJhbnNmb3JtPSJ0cmFuc2xhdGUoNzcuNTAwMDAwLCAwLjAwMDAwMCkiIGlkPSJHcm91cCI+JiN4YTsgICAgICAgICAgICA8cmVjdCByeD0iMjYiIGhlaWdodD0iNjMwIiB3aWR0aD0iMjE5IiB5PSIwIiB4PSIyNTYiIGZpbGw9InVybCgjbGluZWFyR3JhZGllbnQtMSkiIGlkPSJSZWN0YW5nbGUiLz4mI3hhOyAgICAgICAgICAgIDxnIGlkPSJDb21iaW5lZC1TaGFwZSI+JiN4YTsgICAgICAgICAgICAgICAgPHVzZSB4bGluazpocmVmPSIjcGF0aC0zIiBmaWx0ZXI9InVybCgjZmlsdGVyLTQpIiBmaWxsLW9wYWNpdHk9IjEiIGZpbGw9ImJsYWNrIi8+JiN4YTsgICAgICAgICAgICAgICAgPHVzZSB4bGluazpocmVmPSIjcGF0aC0zIiBmaWxsLXJ1bGU9ImV2ZW5vZGQiIGZpbGw9InVybCgjbGluZWFyR3JhZGllbnQtMikiLz4mI3hhOyAgICAgICAgICAgIDwvZz4mI3hhOyAgICAgICAgICAgIDxwYXRoIGZpbGw9InVybCgjbGluZWFyR3JhZGllbnQtNSkiIGlkPSJDb21iaW5lZC1TaGFwZSIgZD0iTTIxOSw2MDQgTDIxOSw2MzAgTDE5Myw2MzAgTDI2LDYzMCBDMTEuNjQwNTk2NSw2MzAgMS43NTg1MTk3NWUtMTUsNjE4LjM1OTQwMyAwLDYwNCBMMCwzNDEgQy0xLjc1ODUxOTc1ZS0xNSwzMjYuNjQwNTk3IDExLjY0MDU5NjUsMzE1IDI2LDMxNSBMMTkzLDMxNSBDMjA3LjM1OTQwMywzMTUgMjE5LDMyNi42NDA1OTcgMjE5LDM0MSBMMjE5LDYwNCBaIi8+JiN4YTsgICAgICAgIDwvZz4mI3hhOyAgICA8L2c+JiN4YTs8L3N2Zz4=;fontSize=11;" parent="WIyWlLk6GJQsqaUBKTNV-1" vertex="1">
          <mxGeometry x="827" y="2328.58" width="54.82" height="54.82" as="geometry" />
        </mxCell>
        <mxCell id="d011Ky8ZdNKHxYDOr_Va-31" value="" style="image;aspect=fixed;html=1;points=[];align=center;fontSize=12;image=img/lib/azure2/analytics/Azure_Databricks.svg;" parent="WIyWlLk6GJQsqaUBKTNV-1" vertex="1">
          <mxGeometry x="457.99" y="2280.1800000000003" width="50.79" height="55" as="geometry" />
        </mxCell>
        <mxCell id="d011Ky8ZdNKHxYDOr_Va-32" value="" style="group" parent="WIyWlLk6GJQsqaUBKTNV-1" vertex="1" connectable="0">
          <mxGeometry x="560" y="2360" width="39.379999999999995" height="35.5" as="geometry" />
        </mxCell>
        <mxCell id="d011Ky8ZdNKHxYDOr_Va-33" value="gold_video" style="image;aspect=fixed;html=1;points=[];align=center;fontSize=12;image=img/lib/azure2/general/Table.svg;imageBackground=default;" parent="d011Ky8ZdNKHxYDOr_Va-32" vertex="1">
          <mxGeometry width="39.38" height="32" as="geometry" />
        </mxCell>
        <mxCell id="d011Ky8ZdNKHxYDOr_Va-34" value="" style="image;sketch=0;aspect=fixed;html=1;points=[];align=center;fontSize=12;image=img/lib/mscae/Databricks.svg;" parent="d011Ky8ZdNKHxYDOr_Va-32" vertex="1">
          <mxGeometry x="19.590000000000032" y="16.5" width="19.79" height="19" as="geometry" />
        </mxCell>
        <mxCell id="d011Ky8ZdNKHxYDOr_Va-45" style="rounded=0;orthogonalLoop=1;jettySize=auto;html=1;entryX=0.013;entryY=0.476;entryDx=0;entryDy=0;entryPerimeter=0;" parent="WIyWlLk6GJQsqaUBKTNV-1" source="d011Ky8ZdNKHxYDOr_Va-14" target="d011Ky8ZdNKHxYDOr_Va-31" edge="1">
          <mxGeometry relative="1" as="geometry" />
        </mxCell>
        <mxCell id="d011Ky8ZdNKHxYDOr_Va-52" value="" style="edgeStyle=entityRelationEdgeStyle;rounded=0;orthogonalLoop=1;jettySize=auto;html=1;strokeColor=none;" parent="WIyWlLk6GJQsqaUBKTNV-1" target="d011Ky8ZdNKHxYDOr_Va-55" edge="1">
          <mxGeometry relative="1" as="geometry">
            <mxPoint x="218.86" y="2274.6600000000003" as="targetPoint" />
            <mxPoint x="279.64999999999975" y="2287.1600000000003" as="sourcePoint" />
          </mxGeometry>
        </mxCell>
        <mxCell id="d011Ky8ZdNKHxYDOr_Va-53" value="" style="rounded=0;whiteSpace=wrap;html=1;fillColor=none;movable=1;resizable=1;rotatable=1;deletable=1;editable=1;locked=0;connectable=1;" parent="WIyWlLk6GJQsqaUBKTNV-1" vertex="1">
          <mxGeometry x="257" y="2180" width="230" height="300" as="geometry" />
        </mxCell>
        <mxCell id="d011Ky8ZdNKHxYDOr_Va-54" style="rounded=0;orthogonalLoop=1;jettySize=auto;html=1;" parent="WIyWlLk6GJQsqaUBKTNV-1" source="d011Ky8ZdNKHxYDOr_Va-15" target="d011Ky8ZdNKHxYDOr_Va-14" edge="1">
          <mxGeometry relative="1" as="geometry" />
        </mxCell>
        <mxCell id="d011Ky8ZdNKHxYDOr_Va-55" value="" style="image;aspect=fixed;html=1;points=[];align=center;fontSize=12;image=img/lib/azure2/security/Key_Vaults.svg;" parent="WIyWlLk6GJQsqaUBKTNV-1" vertex="1">
          <mxGeometry x="307" y="2297.5" width="20" height="20" as="geometry" />
        </mxCell>
        <mxCell id="d011Ky8ZdNKHxYDOr_Va-56" value="" style="image;aspect=fixed;html=1;points=[];align=center;fontSize=12;image=img/lib/azure2/security/Key_Vaults.svg;" parent="WIyWlLk6GJQsqaUBKTNV-1" vertex="1">
          <mxGeometry x="408.06" y="2297.5" width="20" height="20" as="geometry" />
        </mxCell>
        <mxCell id="d011Ky8ZdNKHxYDOr_Va-58" style="edgeStyle=orthogonalEdgeStyle;rounded=0;orthogonalLoop=1;jettySize=auto;html=1;entryX=0.005;entryY=0.276;entryDx=0;entryDy=0;entryPerimeter=0;" parent="WIyWlLk6GJQsqaUBKTNV-1" source="d011Ky8ZdNKHxYDOr_Va-25" target="d011Ky8ZdNKHxYDOr_Va-11" edge="1">
          <mxGeometry relative="1" as="geometry" />
        </mxCell>
        <mxCell id="d011Ky8ZdNKHxYDOr_Va-59" style="edgeStyle=orthogonalEdgeStyle;rounded=0;orthogonalLoop=1;jettySize=auto;html=1;entryX=0.005;entryY=0.28;entryDx=0;entryDy=0;entryPerimeter=0;" parent="WIyWlLk6GJQsqaUBKTNV-1" source="d011Ky8ZdNKHxYDOr_Va-27" target="d011Ky8ZdNKHxYDOr_Va-11" edge="1">
          <mxGeometry relative="1" as="geometry" />
        </mxCell>
        <mxCell id="_MW-_2W470qqxfyPle1O-2" style="edgeStyle=orthogonalEdgeStyle;rounded=0;orthogonalLoop=1;jettySize=auto;html=1;" parent="WIyWlLk6GJQsqaUBKTNV-1" source="d011Ky8ZdNKHxYDOr_Va-33" edge="1">
          <mxGeometry relative="1" as="geometry">
            <mxPoint x="501.0000000000001" y="2371.75" as="sourcePoint" />
            <mxPoint x="700" y="2265.75" as="targetPoint" />
            <Array as="points">
              <mxPoint x="580" y="2372" />
              <mxPoint x="700" y="2372" />
            </Array>
          </mxGeometry>
        </mxCell>
        <mxCell id="d011Ky8ZdNKHxYDOr_Va-61" value="" style="group;fontSize=11;" parent="WIyWlLk6GJQsqaUBKTNV-1" vertex="1" connectable="0">
          <mxGeometry x="690.62" y="2250" width="39.379999999999995" height="35.5" as="geometry" />
        </mxCell>
        <mxCell id="d011Ky8ZdNKHxYDOr_Va-62" value="pbi_msn_ads" style="image;aspect=fixed;html=1;points=[];align=center;fontSize=12;image=img/lib/azure2/general/Table.svg;imageBackground=default;" parent="d011Ky8ZdNKHxYDOr_Va-61" vertex="1">
          <mxGeometry width="39.38" height="32" as="geometry" />
        </mxCell>
        <mxCell id="d011Ky8ZdNKHxYDOr_Va-63" value="" style="image;sketch=0;aspect=fixed;html=1;points=[];align=center;fontSize=12;image=img/lib/mscae/Databricks.svg;" parent="d011Ky8ZdNKHxYDOr_Va-61" vertex="1">
          <mxGeometry x="19.590000000000032" y="16.5" width="19.79" height="19" as="geometry" />
        </mxCell>
        <mxCell id="_MW-_2W470qqxfyPle1O-4" value="" style="endArrow=classic;html=1;rounded=0;" parent="WIyWlLk6GJQsqaUBKTNV-1" edge="1">
          <mxGeometry width="50" height="50" relative="1" as="geometry">
            <mxPoint x="700" y="2370" as="sourcePoint" />
            <mxPoint x="790" y="2370" as="targetPoint" />
          </mxGeometry>
        </mxCell>
        <mxCell id="_MW-_2W470qqxfyPle1O-5" value="AdFormat=Display" style="text;html=1;align=center;verticalAlign=middle;whiteSpace=wrap;rounded=0;fontSize=7;textOpacity=70;" parent="WIyWlLk6GJQsqaUBKTNV-1" vertex="1">
          <mxGeometry x="673.3" y="2220.16" width="43.35" height="24.5" as="geometry" />
        </mxCell>
      </root>
    </mxGraphModel>
  </diagram>
  <diagram name="export" id="lWkhqGZlhD-4vBA-Pvva">
    <mxGraphModel dx="1466" dy="-369" grid="1" gridSize="10" guides="1" tooltips="1" connect="1" arrows="1" fold="1" page="1" pageScale="1" pageWidth="827" pageHeight="1169" math="0" shadow="0">
      <root>
        <mxCell id="_iYfOwLK8mp77zguB-YN-0" />
        <mxCell id="_iYfOwLK8mp77zguB-YN-1" parent="_iYfOwLK8mp77zguB-YN-0" />
        <mxCell id="_iYfOwLK8mp77zguB-YN-98" value="" style="verticalLabelPosition=bottom;verticalAlign=top;html=1;shape=mxgraph.basic.rect;fillColor2=none;strokeWidth=1;size=20;indent=5;fillColor=#000000;" vertex="1" parent="_iYfOwLK8mp77zguB-YN-1">
          <mxGeometry x="91.5" y="1280" width="903" height="40" as="geometry" />
        </mxCell>
        <mxCell id="_iYfOwLK8mp77zguB-YN-99" value="MSN" style="text;html=1;align=center;verticalAlign=middle;whiteSpace=wrap;rounded=0;fillColor=none;fontColor=#ffffff;strokeColor=#314354;fontSize=21;" vertex="1" parent="_iYfOwLK8mp77zguB-YN-1">
          <mxGeometry x="91.5" y="1285" width="90" height="35" as="geometry" />
        </mxCell>
        <mxCell id="_iYfOwLK8mp77zguB-YN-100" value="" style="verticalLabelPosition=bottom;verticalAlign=top;html=1;shape=mxgraph.basic.rect;fillColor2=none;strokeWidth=1;size=20;indent=5;fillColor=#000000;strokeColor=#6B6B6B;" vertex="1" parent="_iYfOwLK8mp77zguB-YN-1">
          <mxGeometry x="90" y="1320" width="904.5" height="20" as="geometry" />
        </mxCell>
        <mxCell id="_iYfOwLK8mp77zguB-YN-101" value="Data Source" style="text;html=1;align=center;verticalAlign=middle;whiteSpace=wrap;rounded=0;fillColor=none;fontColor=#ffffff;strokeColor=none;fontSize=17;" vertex="1" parent="_iYfOwLK8mp77zguB-YN-1">
          <mxGeometry x="105.50000000000001" y="1315" width="160" height="30" as="geometry" />
        </mxCell>
        <mxCell id="_iYfOwLK8mp77zguB-YN-102" value="Staging Layer" style="text;html=1;align=center;verticalAlign=middle;whiteSpace=wrap;rounded=0;fillColor=none;fontColor=#ffffff;strokeColor=none;fontSize=17;" vertex="1" parent="_iYfOwLK8mp77zguB-YN-1">
          <mxGeometry x="312.56" y="1315" width="160" height="30" as="geometry" />
        </mxCell>
        <mxCell id="_iYfOwLK8mp77zguB-YN-103" value="Final Layer" style="text;html=1;align=center;verticalAlign=middle;whiteSpace=wrap;rounded=0;fillColor=none;fontColor=#ffffff;strokeColor=none;fontSize=17;" vertex="1" parent="_iYfOwLK8mp77zguB-YN-1">
          <mxGeometry x="591.5" y="1315" width="160" height="30" as="geometry" />
        </mxCell>
        <mxCell id="_iYfOwLK8mp77zguB-YN-104" value="End PBI" style="text;html=1;align=center;verticalAlign=middle;whiteSpace=wrap;rounded=0;fillColor=none;fontColor=#ffffff;strokeColor=none;fontSize=17;" vertex="1" parent="_iYfOwLK8mp77zguB-YN-1">
          <mxGeometry x="836.5" y="1315" width="165" height="30" as="geometry" />
        </mxCell>
        <mxCell id="_iYfOwLK8mp77zguB-YN-105" value="" style="rounded=0;whiteSpace=wrap;html=1;fillColor=none;movable=1;resizable=1;rotatable=1;deletable=1;editable=1;locked=0;connectable=1;" vertex="1" parent="_iYfOwLK8mp77zguB-YN-1">
          <mxGeometry x="531.5" y="1340" width="310" height="300" as="geometry" />
        </mxCell>
        <mxCell id="_iYfOwLK8mp77zguB-YN-106" value="" style="rounded=0;whiteSpace=wrap;html=1;fillColor=none;movable=1;resizable=1;rotatable=1;deletable=1;editable=1;locked=0;connectable=1;" vertex="1" parent="_iYfOwLK8mp77zguB-YN-1">
          <mxGeometry x="841.5" y="1340" width="150" height="300" as="geometry" />
        </mxCell>
        <mxCell id="_iYfOwLK8mp77zguB-YN-107" value="" style="rounded=0;whiteSpace=wrap;html=1;fillColor=none;movable=1;resizable=1;rotatable=1;deletable=1;editable=1;locked=0;connectable=1;" vertex="1" parent="_iYfOwLK8mp77zguB-YN-1">
          <mxGeometry x="91.5" y="1340" width="210" height="300" as="geometry" />
        </mxCell>
        <mxCell id="_iYfOwLK8mp77zguB-YN-108" value="MSN Ads Dashboard" style="shape=image;verticalLabelPosition=bottom;labelBackgroundColor=default;verticalAlign=top;aspect=fixed;imageAspect=0;image=data:image/svg+xml,PHN2ZyB4bWxuczp4bGluaz0iaHR0cDovL3d3dy53My5vcmcvMTk5OS94bGluayIgeG1sbnM9Imh0dHA6Ly93d3cudzMub3JnLzIwMDAvc3ZnIiB2ZXJzaW9uPSIxLjEiIHZpZXdCb3g9IjAgMCA2MzAgNjMwIiBoZWlnaHQ9IjYzMHB4IiB3aWR0aD0iNjMwcHgiPiYjeGE7ICAgICYjeGE7ICAgIDx0aXRsZT5QQkkgTG9nbzwvdGl0bGU+JiN4YTsgICAgPGRlc2M+Q3JlYXRlZCB3aXRoIFNrZXRjaC48L2Rlc2M+JiN4YTsgICAgPGRlZnM+JiN4YTsgICAgICAgIDxsaW5lYXJHcmFkaWVudCBpZD0ibGluZWFyR3JhZGllbnQtMSIgeTI9IjEwMCUiIHgyPSI1MCUiIHkxPSIwJSIgeDE9IjUwJSI+JiN4YTsgICAgICAgICAgICA8c3RvcCBvZmZzZXQ9IjAlIiBzdG9wLWNvbG9yPSIjRUJCQjE0Ii8+JiN4YTsgICAgICAgICAgICA8c3RvcCBvZmZzZXQ9IjEwMCUiIHN0b3AtY29sb3I9IiNCMjU0MDAiLz4mI3hhOyAgICAgICAgPC9saW5lYXJHcmFkaWVudD4mI3hhOyAgICAgICAgPGxpbmVhckdyYWRpZW50IGlkPSJsaW5lYXJHcmFkaWVudC0yIiB5Mj0iMTAwJSIgeDI9IjUwJSIgeTE9IjAlIiB4MT0iNTAlIj4mI3hhOyAgICAgICAgICAgIDxzdG9wIG9mZnNldD0iMCUiIHN0b3AtY29sb3I9IiNGOUU1ODMiLz4mI3hhOyAgICAgICAgICAgIDxzdG9wIG9mZnNldD0iMTAwJSIgc3RvcC1jb2xvcj0iI0RFOTgwMCIvPiYjeGE7ICAgICAgICA8L2xpbmVhckdyYWRpZW50PiYjeGE7ICAgICAgICA8cGF0aCBpZD0icGF0aC0zIiBkPSJNMzQ2LDYwNCBMMzQ2LDYzMCBMMzIwLDYzMCBMMTUzLDYzMCBDMTM4LjY0MDU5Nyw2MzAgMTI3LDYxOC4zNTk0MDMgMTI3LDYwNCBMMTI3LDE4MyBDMTI3LDE2OC42NDA1OTcgMTM4LjY0MDU5NywxNTcgMTUzLDE1NyBMMzIwLDE1NyBDMzM0LjM1OTQwMywxNTcgMzQ2LDE2OC42NDA1OTcgMzQ2LDE4MyBMMzQ2LDYwNCBaIi8+JiN4YTsgICAgICAgIDxmaWx0ZXIgaWQ9ImZpbHRlci00IiBmaWx0ZXJVbml0cz0ib2JqZWN0Qm91bmRpbmdCb3giIGhlaWdodD0iMTE2LjklIiB3aWR0aD0iMTM2LjUlIiB5PSItNi4zJSIgeD0iLTkuMSUiPiYjeGE7ICAgICAgICAgICAgPGZlT2Zmc2V0IHJlc3VsdD0ic2hhZG93T2Zmc2V0T3V0ZXIxIiBpbj0iU291cmNlQWxwaGEiIGR5PSIxMCIgZHg9IjIwIi8+JiN4YTsgICAgICAgICAgICA8ZmVHYXVzc2lhbkJsdXIgcmVzdWx0PSJzaGFkb3dCbHVyT3V0ZXIxIiBpbj0ic2hhZG93T2Zmc2V0T3V0ZXIxIiBzdGREZXZpYXRpb249IjEwIi8+JiN4YTsgICAgICAgICAgICA8ZmVDb2xvck1hdHJpeCBpbj0ic2hhZG93Qmx1ck91dGVyMSIgdHlwZT0ibWF0cml4IiB2YWx1ZXM9IjAgMCAwIDAgMCAgIDAgMCAwIDAgMCAgIDAgMCAwIDAgMCAgMCAwIDAgMC4wNTMwMjExOTc2IDAiLz4mI3hhOyAgICAgICAgPC9maWx0ZXI+JiN4YTsgICAgICAgIDxsaW5lYXJHcmFkaWVudCBpZD0ibGluZWFyR3JhZGllbnQtNSIgeTI9IjEwMCUiIHgyPSI1MCUiIHkxPSIwJSIgeDE9IjUwJSI+JiN4YTsgICAgICAgICAgICA8c3RvcCBvZmZzZXQ9IjAlIiBzdG9wLWNvbG9yPSIjRjlFNjhCIi8+JiN4YTsgICAgICAgICAgICA8c3RvcCBvZmZzZXQ9IjEwMCUiIHN0b3AtY29sb3I9IiNGM0NEMzIiLz4mI3hhOyAgICAgICAgPC9saW5lYXJHcmFkaWVudD4mI3hhOyAgICA8L2RlZnM+JiN4YTsgICAgPGcgZmlsbC1ydWxlPSJldmVub2RkIiBmaWxsPSJub25lIiBzdHJva2Utd2lkdGg9IjEiIHN0cm9rZT0ibm9uZSIgaWQ9IlBCSS1Mb2dvIj4mI3hhOyAgICAgICAgPGcgdHJhbnNmb3JtPSJ0cmFuc2xhdGUoNzcuNTAwMDAwLCAwLjAwMDAwMCkiIGlkPSJHcm91cCI+JiN4YTsgICAgICAgICAgICA8cmVjdCByeD0iMjYiIGhlaWdodD0iNjMwIiB3aWR0aD0iMjE5IiB5PSIwIiB4PSIyNTYiIGZpbGw9InVybCgjbGluZWFyR3JhZGllbnQtMSkiIGlkPSJSZWN0YW5nbGUiLz4mI3hhOyAgICAgICAgICAgIDxnIGlkPSJDb21iaW5lZC1TaGFwZSI+JiN4YTsgICAgICAgICAgICAgICAgPHVzZSB4bGluazpocmVmPSIjcGF0aC0zIiBmaWx0ZXI9InVybCgjZmlsdGVyLTQpIiBmaWxsLW9wYWNpdHk9IjEiIGZpbGw9ImJsYWNrIi8+JiN4YTsgICAgICAgICAgICAgICAgPHVzZSB4bGluazpocmVmPSIjcGF0aC0zIiBmaWxsLXJ1bGU9ImV2ZW5vZGQiIGZpbGw9InVybCgjbGluZWFyR3JhZGllbnQtMikiLz4mI3hhOyAgICAgICAgICAgIDwvZz4mI3hhOyAgICAgICAgICAgIDxwYXRoIGZpbGw9InVybCgjbGluZWFyR3JhZGllbnQtNSkiIGlkPSJDb21iaW5lZC1TaGFwZSIgZD0iTTIxOSw2MDQgTDIxOSw2MzAgTDE5Myw2MzAgTDI2LDYzMCBDMTEuNjQwNTk2NSw2MzAgMS43NTg1MTk3NWUtMTUsNjE4LjM1OTQwMyAwLDYwNCBMMCwzNDEgQy0xLjc1ODUxOTc1ZS0xNSwzMjYuNjQwNTk3IDExLjY0MDU5NjUsMzE1IDI2LDMxNSBMMTkzLDMxNSBDMjA3LjM1OTQwMywzMTUgMjE5LDMyNi42NDA1OTcgMjE5LDM0MSBMMjE5LDYwNCBaIi8+JiN4YTsgICAgICAgIDwvZz4mI3hhOyAgICA8L2c+JiN4YTs8L3N2Zz4=;fontSize=11;" vertex="1" parent="_iYfOwLK8mp77zguB-YN-1">
          <mxGeometry x="871.5" y="1392.1099999999997" width="54.32" height="54.32" as="geometry" />
        </mxCell>
        <mxCell id="_iYfOwLK8mp77zguB-YN-109" value="ADLS Gen 2" style="image;aspect=fixed;html=1;points=[];align=center;fontSize=12;image=img/lib/azure2/storage/Data_Lake_Storage_Gen1.svg;" vertex="1" parent="_iYfOwLK8mp77zguB-YN-1">
          <mxGeometry x="394.96" y="1450" width="43.08" height="35" as="geometry" />
        </mxCell>
        <mxCell id="_iYfOwLK8mp77zguB-YN-110" value="" style="image;aspect=fixed;html=1;points=[];align=center;fontSize=12;image=img/lib/azure2/analytics/Azure_Databricks.svg;" vertex="1" parent="_iYfOwLK8mp77zguB-YN-1">
          <mxGeometry x="281.5" y="1440" width="50.79" height="55" as="geometry" />
        </mxCell>
        <mxCell id="_iYfOwLK8mp77zguB-YN-111" style="edgeStyle=entityRelationEdgeStyle;rounded=0;orthogonalLoop=1;jettySize=auto;html=1;" edge="1" parent="_iYfOwLK8mp77zguB-YN-1" source="_iYfOwLK8mp77zguB-YN-117" target="_iYfOwLK8mp77zguB-YN-110">
          <mxGeometry relative="1" as="geometry" />
        </mxCell>
        <mxCell id="_iYfOwLK8mp77zguB-YN-112" style="edgeStyle=entityRelationEdgeStyle;rounded=0;orthogonalLoop=1;jettySize=auto;html=1;" edge="1" parent="_iYfOwLK8mp77zguB-YN-1" source="_iYfOwLK8mp77zguB-YN-116" target="_iYfOwLK8mp77zguB-YN-110">
          <mxGeometry relative="1" as="geometry" />
        </mxCell>
        <mxCell id="_iYfOwLK8mp77zguB-YN-113" style="edgeStyle=entityRelationEdgeStyle;rounded=0;orthogonalLoop=1;jettySize=auto;html=1;" edge="1" parent="_iYfOwLK8mp77zguB-YN-1" source="_iYfOwLK8mp77zguB-YN-115" target="_iYfOwLK8mp77zguB-YN-110">
          <mxGeometry relative="1" as="geometry" />
        </mxCell>
        <mxCell id="_iYfOwLK8mp77zguB-YN-114" value="" style="edgeStyle=entityRelationEdgeStyle;rounded=0;orthogonalLoop=1;jettySize=auto;html=1;strokeColor=none;" edge="1" parent="_iYfOwLK8mp77zguB-YN-1" source="_iYfOwLK8mp77zguB-YN-116" target="_iYfOwLK8mp77zguB-YN-110">
          <mxGeometry relative="1" as="geometry">
            <mxPoint x="368.71" y="2755" as="targetPoint" />
            <mxPoint x="289.91999999999996" y="2683" as="sourcePoint" />
          </mxGeometry>
        </mxCell>
        <mxCell id="_iYfOwLK8mp77zguB-YN-115" value="Agora Dataset" style="shape=image;verticalLabelPosition=bottom;labelBackgroundColor=default;verticalAlign=top;aspect=fixed;imageAspect=0;image=data:image/png,iVBORw0KGgoAAAANSUhEUgAAAEAAAABACAYAAACqaXHeAAAABGdBTUEAALGPC/xhBQAAAAFzUkdCAK7OHOkAAAAgY0hSTQAAeiYAAICEAAD6AAAAgOgAAHUwAADqYAAAOpgAABdwnLpRPAAAAAZiS0dEAP8A/wD/oL2nkwAAAAlwSFlzAAAOwwAADsMBx2+oZAAABbtJREFUeNrdm0moHFUUhr+q7pen+BwCooKIZCFKVg44kLgQxYUDgi5EwZCF+kzkmeAAggOYhQOoycKY4YkKzgvJwmxcmKBiRCQgCgkISTAaE5yjIuYl3V0uzjmp6rLm6VXlh+J2375ddc9/z3SHAoED9PTzFcCbwAHgGOB17BpouQXYp58PAO8AV6mMPZX5uPAAk8B6YNQCIYpeQy33AIuAH0L1I2ADcFJIdiaBjwIMDjpKhAl6jQr3c6De5PKAbSrzcazXH+Y6KriHb65rVKbTgUOBkfcCMnrAyyb8Uv1zVwUP2v02wFW5pmIIsO/HgKUuMA30tbKL8BCn9pvKMgrUx2GkMk8D7I9hqSuXjf6dKtyElqeQrAEe8B3A0RYIUdbuN6rQfXzPnkSAXUdpgRBFL/P4X6uwqPB5CPDMYXQNHuLs5oC7gX8QP+DlvVFXCRhq+SiwE1H9YdGbzbcqF7X7Ldr/XkieE9oELHx9D6wM1BVG1wgw3Af8REG77yoBA+3vs8CHlLT7IObbpvMkO5/iT2UdonHC+QBPhT4M3IuMukNJ1Td0gQBzcquBb6lh3jLf6p0l5L2qfe2Rjlwm0GYCLNXdBZwWEq4yAtpqAp4KMkDs/i8qCHlRaCsB5ugeBz6nwpAXhflW9biQt1X7l3eQOm0CI0TVDwIrmnhg2wgwrAR+VDJqX6qbb5UPq/6L2q9+Qp8rywTbQoCFvC+ABSFBouBWRYADXJxfaSqHhz/N/YX4VNfqzwOuBN5XMqLMxAUWI4uklYfPupCk2uCbxbvAulBdIbgtuyB+tHqIn7gFuAOZHJWWrysbIi7iJ85FtvEgW1qcKltbw2AcNiD2n5WAVHSBANPSVYj6H6ny5m0nwEXs/hLgOa3LMiVuNQEu/v5dEhxk5CeBzcDJ+JOkytAHvmpQ+BGybb0M+JL4GA6+138auFw/97VMI85TwrYC5yB7gLHENZ3qvqLPTdI+U/MbGc8Ug6tEdhAinAfkygSbCoNDRO13AjMB4qPgaPuzEK9fBqNAGakBfer3A54K/y9yIGGOZNW3mP8ScD6+6heBGyidpAZ1wgR9BPE3SVpnKz/TwO36uVSqmwVNrOq+p89KCmE2GIuRNcA4263UB9SpAbaRuQ/f7uNG3jx3Dwl5p1JDyItCEyYwDfxK8qqu/fYUcDVi95UmPE0TYBuZa5Cja0mruhbvrwWewF8baAR1EGCOa7sSYOv7UbCQtxDYpHWNLl5UTYDZsZ3Zsw2OtOevAy7A15zOEmBObgbYS7aQtwxYTkMhL6oTVcESlk1I2EvK222WtwhYy3ioyvqcSjLYqgiwkPcNkvBAvNOzWd4E8DZwZuB7HlSivVUQ4OGf2bsH/8xeEgEesAT4G9GWPCFviJwE3xV4fmkBqsj2Vuckta4kp9GNkbQze2kd7ZW43IT7NkKAzdH3A2fXPKp5kHs9oCxWIGf2FjDumY2gOAT3ArK0H3vRKUP7zCij+s/oPRqP3wmoXQMsYfkMeBI/l78LuAH4E5nNrUXm/+HFD/sebD+FZINJ7ZcD1yNT5SngBSTsJi2uZEKedwONycPAhfp/282d1d+OaHmr1ocdo5G+OdT+tpT2r4fa3xzTPtcLEy5yGgOy2ZMxvYr/n9kbhMq0UQn/L+0MUPj+Zezf/nvQBT7O2GGbo78GvIGv+gYbCRsxJ1AGL4NbUfsiMFk/cRHVTZuFWaq7G3gwI2FBtsfibsXti8DmIrMusAOxRwf/Bapwh4qc2bMRWoi8lbob2RMYVNS+KGyTZBbYYer0MHARcB2+LdpSsp3cegz/zF6WTplAE8BlwBnAHxnbX6pE/B7xexGYIwRx2tuBh4JCzgE3Ia+TuvhJx1A/fwA8j686eR+e1dFZe2tX5aaNpc8bVdY5wHEZV/EZ5BXzt5A3r3vIguYDJR4cfDU/yxQ2b/ssOIQcq1kC3I+Efgfw/gOY1xdt9xaodwAAAABJRU5ErkJggg==;" vertex="1" parent="_iYfOwLK8mp77zguB-YN-1">
          <mxGeometry x="153.93" y="1533" width="36" height="36" as="geometry" />
        </mxCell>
        <mxCell id="_iYfOwLK8mp77zguB-YN-116" value="Dah_Historical" style="image;aspect=fixed;html=1;points=[];align=center;fontSize=11;image=img/lib/azure2/databases/SQL_Data_Warehouses.svg;strokeColor=#0080F0;labelBackgroundColor=#ffffff;strokeWidth=2;shadow=0;dashed=0;" vertex="1" parent="_iYfOwLK8mp77zguB-YN-1">
          <mxGeometry x="148.41" y="1371.33" width="41.52" height="42.17" as="geometry" />
        </mxCell>
        <mxCell id="_iYfOwLK8mp77zguB-YN-117" value="Dah_Rolling" style="image;aspect=fixed;html=1;points=[];align=center;fontSize=11;image=img/lib/azure2/databases/SQL_Data_Warehouses.svg;strokeColor=#0080F0;labelBackgroundColor=#ffffff;strokeWidth=2;shadow=0;dashed=0;" vertex="1" parent="_iYfOwLK8mp77zguB-YN-1">
          <mxGeometry x="148.41" y="1446.4299999999998" width="41.51" height="42.15" as="geometry" />
        </mxCell>
        <mxCell id="_iYfOwLK8mp77zguB-YN-118" value="" style="group" vertex="1" connectable="0" parent="_iYfOwLK8mp77zguB-YN-1">
          <mxGeometry x="604.5" y="1360" width="39.38" height="33.5" as="geometry" />
        </mxCell>
        <mxCell id="_iYfOwLK8mp77zguB-YN-119" value="gold_dahrolling" style="image;aspect=fixed;html=1;points=[];align=center;fontSize=12;image=img/lib/azure2/general/Table.svg;imageBackground=default;" vertex="1" parent="_iYfOwLK8mp77zguB-YN-118">
          <mxGeometry width="38.97422467956777" height="31.670268911786913" as="geometry" />
        </mxCell>
        <mxCell id="_iYfOwLK8mp77zguB-YN-120" value="" style="image;sketch=0;aspect=fixed;html=1;points=[];align=center;fontSize=12;image=img/lib/mscae/Databricks.svg;" vertex="1" parent="_iYfOwLK8mp77zguB-YN-118">
          <mxGeometry x="19.79391806986682" y="14.5" width="19.58608193013322" height="18.804222166373478" as="geometry" />
        </mxCell>
        <mxCell id="_iYfOwLK8mp77zguB-YN-121" value="" style="group;fontSize=11;" vertex="1" connectable="0" parent="_iYfOwLK8mp77zguB-YN-1">
          <mxGeometry x="604.5" y="1440" width="40" height="42.5" as="geometry" />
        </mxCell>
        <mxCell id="_iYfOwLK8mp77zguB-YN-122" value="agora_native" style="image;aspect=fixed;html=1;points=[];align=center;fontSize=12;image=img/lib/azure2/general/Table.svg;imageBackground=default;" vertex="1" parent="_iYfOwLK8mp77zguB-YN-121">
          <mxGeometry width="40.00000000000001" height="32.503809040121894" as="geometry" />
        </mxCell>
        <mxCell id="_iYfOwLK8mp77zguB-YN-123" value="" style="image;sketch=0;aspect=fixed;html=1;points=[];align=center;fontSize=12;image=img/lib/mscae/Databricks.svg;" vertex="1" parent="_iYfOwLK8mp77zguB-YN-121">
          <mxGeometry x="19.898425596749654" y="19.753521126760564" width="20.101574403250382" height="19.299136617572373" as="geometry" />
        </mxCell>
        <mxCell id="_iYfOwLK8mp77zguB-YN-124" value="MSN Video Dashboard" style="shape=image;verticalLabelPosition=bottom;labelBackgroundColor=default;verticalAlign=top;aspect=fixed;imageAspect=0;image=data:image/svg+xml,PHN2ZyB4bWxuczp4bGluaz0iaHR0cDovL3d3dy53My5vcmcvMTk5OS94bGluayIgeG1sbnM9Imh0dHA6Ly93d3cudzMub3JnLzIwMDAvc3ZnIiB2ZXJzaW9uPSIxLjEiIHZpZXdCb3g9IjAgMCA2MzAgNjMwIiBoZWlnaHQ9IjYzMHB4IiB3aWR0aD0iNjMwcHgiPiYjeGE7ICAgICYjeGE7ICAgIDx0aXRsZT5QQkkgTG9nbzwvdGl0bGU+JiN4YTsgICAgPGRlc2M+Q3JlYXRlZCB3aXRoIFNrZXRjaC48L2Rlc2M+JiN4YTsgICAgPGRlZnM+JiN4YTsgICAgICAgIDxsaW5lYXJHcmFkaWVudCBpZD0ibGluZWFyR3JhZGllbnQtMSIgeTI9IjEwMCUiIHgyPSI1MCUiIHkxPSIwJSIgeDE9IjUwJSI+JiN4YTsgICAgICAgICAgICA8c3RvcCBvZmZzZXQ9IjAlIiBzdG9wLWNvbG9yPSIjRUJCQjE0Ii8+JiN4YTsgICAgICAgICAgICA8c3RvcCBvZmZzZXQ9IjEwMCUiIHN0b3AtY29sb3I9IiNCMjU0MDAiLz4mI3hhOyAgICAgICAgPC9saW5lYXJHcmFkaWVudD4mI3hhOyAgICAgICAgPGxpbmVhckdyYWRpZW50IGlkPSJsaW5lYXJHcmFkaWVudC0yIiB5Mj0iMTAwJSIgeDI9IjUwJSIgeTE9IjAlIiB4MT0iNTAlIj4mI3hhOyAgICAgICAgICAgIDxzdG9wIG9mZnNldD0iMCUiIHN0b3AtY29sb3I9IiNGOUU1ODMiLz4mI3hhOyAgICAgICAgICAgIDxzdG9wIG9mZnNldD0iMTAwJSIgc3RvcC1jb2xvcj0iI0RFOTgwMCIvPiYjeGE7ICAgICAgICA8L2xpbmVhckdyYWRpZW50PiYjeGE7ICAgICAgICA8cGF0aCBpZD0icGF0aC0zIiBkPSJNMzQ2LDYwNCBMMzQ2LDYzMCBMMzIwLDYzMCBMMTUzLDYzMCBDMTM4LjY0MDU5Nyw2MzAgMTI3LDYxOC4zNTk0MDMgMTI3LDYwNCBMMTI3LDE4MyBDMTI3LDE2OC42NDA1OTcgMTM4LjY0MDU5NywxNTcgMTUzLDE1NyBMMzIwLDE1NyBDMzM0LjM1OTQwMywxNTcgMzQ2LDE2OC42NDA1OTcgMzQ2LDE4MyBMMzQ2LDYwNCBaIi8+JiN4YTsgICAgICAgIDxmaWx0ZXIgaWQ9ImZpbHRlci00IiBmaWx0ZXJVbml0cz0ib2JqZWN0Qm91bmRpbmdCb3giIGhlaWdodD0iMTE2LjklIiB3aWR0aD0iMTM2LjUlIiB5PSItNi4zJSIgeD0iLTkuMSUiPiYjeGE7ICAgICAgICAgICAgPGZlT2Zmc2V0IHJlc3VsdD0ic2hhZG93T2Zmc2V0T3V0ZXIxIiBpbj0iU291cmNlQWxwaGEiIGR5PSIxMCIgZHg9IjIwIi8+JiN4YTsgICAgICAgICAgICA8ZmVHYXVzc2lhbkJsdXIgcmVzdWx0PSJzaGFkb3dCbHVyT3V0ZXIxIiBpbj0ic2hhZG93T2Zmc2V0T3V0ZXIxIiBzdGREZXZpYXRpb249IjEwIi8+JiN4YTsgICAgICAgICAgICA8ZmVDb2xvck1hdHJpeCBpbj0ic2hhZG93Qmx1ck91dGVyMSIgdHlwZT0ibWF0cml4IiB2YWx1ZXM9IjAgMCAwIDAgMCAgIDAgMCAwIDAgMCAgIDAgMCAwIDAgMCAgMCAwIDAgMC4wNTMwMjExOTc2IDAiLz4mI3hhOyAgICAgICAgPC9maWx0ZXI+JiN4YTsgICAgICAgIDxsaW5lYXJHcmFkaWVudCBpZD0ibGluZWFyR3JhZGllbnQtNSIgeTI9IjEwMCUiIHgyPSI1MCUiIHkxPSIwJSIgeDE9IjUwJSI+JiN4YTsgICAgICAgICAgICA8c3RvcCBvZmZzZXQ9IjAlIiBzdG9wLWNvbG9yPSIjRjlFNjhCIi8+JiN4YTsgICAgICAgICAgICA8c3RvcCBvZmZzZXQ9IjEwMCUiIHN0b3AtY29sb3I9IiNGM0NEMzIiLz4mI3hhOyAgICAgICAgPC9saW5lYXJHcmFkaWVudD4mI3hhOyAgICA8L2RlZnM+JiN4YTsgICAgPGcgZmlsbC1ydWxlPSJldmVub2RkIiBmaWxsPSJub25lIiBzdHJva2Utd2lkdGg9IjEiIHN0cm9rZT0ibm9uZSIgaWQ9IlBCSS1Mb2dvIj4mI3hhOyAgICAgICAgPGcgdHJhbnNmb3JtPSJ0cmFuc2xhdGUoNzcuNTAwMDAwLCAwLjAwMDAwMCkiIGlkPSJHcm91cCI+JiN4YTsgICAgICAgICAgICA8cmVjdCByeD0iMjYiIGhlaWdodD0iNjMwIiB3aWR0aD0iMjE5IiB5PSIwIiB4PSIyNTYiIGZpbGw9InVybCgjbGluZWFyR3JhZGllbnQtMSkiIGlkPSJSZWN0YW5nbGUiLz4mI3hhOyAgICAgICAgICAgIDxnIGlkPSJDb21iaW5lZC1TaGFwZSI+JiN4YTsgICAgICAgICAgICAgICAgPHVzZSB4bGluazpocmVmPSIjcGF0aC0zIiBmaWx0ZXI9InVybCgjZmlsdGVyLTQpIiBmaWxsLW9wYWNpdHk9IjEiIGZpbGw9ImJsYWNrIi8+JiN4YTsgICAgICAgICAgICAgICAgPHVzZSB4bGluazpocmVmPSIjcGF0aC0zIiBmaWxsLXJ1bGU9ImV2ZW5vZGQiIGZpbGw9InVybCgjbGluZWFyR3JhZGllbnQtMikiLz4mI3hhOyAgICAgICAgICAgIDwvZz4mI3hhOyAgICAgICAgICAgIDxwYXRoIGZpbGw9InVybCgjbGluZWFyR3JhZGllbnQtNSkiIGlkPSJDb21iaW5lZC1TaGFwZSIgZD0iTTIxOSw2MDQgTDIxOSw2MzAgTDE5Myw2MzAgTDI2LDYzMCBDMTEuNjQwNTk2NSw2MzAgMS43NTg1MTk3NWUtMTUsNjE4LjM1OTQwMyAwLDYwNCBMMCwzNDEgQy0xLjc1ODUxOTc1ZS0xNSwzMjYuNjQwNTk3IDExLjY0MDU5NjUsMzE1IDI2LDMxNSBMMTkzLDMxNSBDMjA3LjM1OTQwMywzMTUgMjE5LDMyNi42NDA1OTcgMjE5LDM0MSBMMjE5LDYwNCBaIi8+JiN4YTsgICAgICAgIDwvZz4mI3hhOyAgICA8L2c+JiN4YTs8L3N2Zz4=;fontSize=11;" vertex="1" parent="_iYfOwLK8mp77zguB-YN-1">
          <mxGeometry x="871.5" y="1488.58" width="54.82" height="54.82" as="geometry" />
        </mxCell>
        <mxCell id="_iYfOwLK8mp77zguB-YN-125" value="" style="image;aspect=fixed;html=1;points=[];align=center;fontSize=12;image=img/lib/azure2/analytics/Azure_Databricks.svg;" vertex="1" parent="_iYfOwLK8mp77zguB-YN-1">
          <mxGeometry x="502.49" y="1440.1800000000003" width="50.79" height="55" as="geometry" />
        </mxCell>
        <mxCell id="_iYfOwLK8mp77zguB-YN-126" value="" style="group" vertex="1" connectable="0" parent="_iYfOwLK8mp77zguB-YN-1">
          <mxGeometry x="604.5" y="1520" width="39.379999999999995" height="35.5" as="geometry" />
        </mxCell>
        <mxCell id="_iYfOwLK8mp77zguB-YN-127" value="gold_video" style="image;aspect=fixed;html=1;points=[];align=center;fontSize=12;image=img/lib/azure2/general/Table.svg;imageBackground=default;" vertex="1" parent="_iYfOwLK8mp77zguB-YN-126">
          <mxGeometry width="39.38" height="32" as="geometry" />
        </mxCell>
        <mxCell id="_iYfOwLK8mp77zguB-YN-128" value="" style="image;sketch=0;aspect=fixed;html=1;points=[];align=center;fontSize=12;image=img/lib/mscae/Databricks.svg;" vertex="1" parent="_iYfOwLK8mp77zguB-YN-126">
          <mxGeometry x="19.590000000000032" y="16.5" width="19.79" height="19" as="geometry" />
        </mxCell>
        <mxCell id="_iYfOwLK8mp77zguB-YN-129" style="rounded=0;orthogonalLoop=1;jettySize=auto;html=1;entryX=0.013;entryY=0.476;entryDx=0;entryDy=0;entryPerimeter=0;" edge="1" parent="_iYfOwLK8mp77zguB-YN-1" source="_iYfOwLK8mp77zguB-YN-109" target="_iYfOwLK8mp77zguB-YN-125">
          <mxGeometry relative="1" as="geometry" />
        </mxCell>
        <mxCell id="_iYfOwLK8mp77zguB-YN-130" value="" style="edgeStyle=entityRelationEdgeStyle;rounded=0;orthogonalLoop=1;jettySize=auto;html=1;strokeColor=none;" edge="1" parent="_iYfOwLK8mp77zguB-YN-1" target="_iYfOwLK8mp77zguB-YN-133">
          <mxGeometry relative="1" as="geometry">
            <mxPoint x="263.36" y="1434.6600000000003" as="targetPoint" />
            <mxPoint x="324.14999999999975" y="1447.1600000000003" as="sourcePoint" />
          </mxGeometry>
        </mxCell>
        <mxCell id="_iYfOwLK8mp77zguB-YN-131" value="" style="rounded=0;whiteSpace=wrap;html=1;fillColor=none;movable=1;resizable=1;rotatable=1;deletable=1;editable=1;locked=0;connectable=1;" vertex="1" parent="_iYfOwLK8mp77zguB-YN-1">
          <mxGeometry x="301.5" y="1340" width="230" height="300" as="geometry" />
        </mxCell>
        <mxCell id="_iYfOwLK8mp77zguB-YN-132" style="rounded=0;orthogonalLoop=1;jettySize=auto;html=1;" edge="1" parent="_iYfOwLK8mp77zguB-YN-1" source="_iYfOwLK8mp77zguB-YN-110" target="_iYfOwLK8mp77zguB-YN-109">
          <mxGeometry relative="1" as="geometry" />
        </mxCell>
        <mxCell id="_iYfOwLK8mp77zguB-YN-133" value="" style="image;aspect=fixed;html=1;points=[];align=center;fontSize=12;image=img/lib/azure2/security/Key_Vaults.svg;" vertex="1" parent="_iYfOwLK8mp77zguB-YN-1">
          <mxGeometry x="351.5" y="1457.5" width="20" height="20" as="geometry" />
        </mxCell>
        <mxCell id="_iYfOwLK8mp77zguB-YN-134" value="" style="image;aspect=fixed;html=1;points=[];align=center;fontSize=12;image=img/lib/azure2/security/Key_Vaults.svg;" vertex="1" parent="_iYfOwLK8mp77zguB-YN-1">
          <mxGeometry x="452.56" y="1457.5" width="20" height="20" as="geometry" />
        </mxCell>
        <mxCell id="_iYfOwLK8mp77zguB-YN-135" style="edgeStyle=orthogonalEdgeStyle;rounded=0;orthogonalLoop=1;jettySize=auto;html=1;entryX=0.005;entryY=0.276;entryDx=0;entryDy=0;entryPerimeter=0;" edge="1" parent="_iYfOwLK8mp77zguB-YN-1" source="_iYfOwLK8mp77zguB-YN-120" target="_iYfOwLK8mp77zguB-YN-106">
          <mxGeometry relative="1" as="geometry" />
        </mxCell>
        <mxCell id="_iYfOwLK8mp77zguB-YN-136" style="edgeStyle=orthogonalEdgeStyle;rounded=0;orthogonalLoop=1;jettySize=auto;html=1;entryX=0.005;entryY=0.28;entryDx=0;entryDy=0;entryPerimeter=0;" edge="1" parent="_iYfOwLK8mp77zguB-YN-1" source="_iYfOwLK8mp77zguB-YN-122" target="_iYfOwLK8mp77zguB-YN-106">
          <mxGeometry relative="1" as="geometry" />
        </mxCell>
        <mxCell id="_iYfOwLK8mp77zguB-YN-137" style="edgeStyle=orthogonalEdgeStyle;rounded=0;orthogonalLoop=1;jettySize=auto;html=1;" edge="1" parent="_iYfOwLK8mp77zguB-YN-1" source="_iYfOwLK8mp77zguB-YN-127">
          <mxGeometry relative="1" as="geometry">
            <mxPoint x="545.5000000000001" y="1531.75" as="sourcePoint" />
            <mxPoint x="744.5" y="1425.75" as="targetPoint" />
            <Array as="points">
              <mxPoint x="624.5" y="1532" />
              <mxPoint x="744.5" y="1532" />
            </Array>
          </mxGeometry>
        </mxCell>
        <mxCell id="_iYfOwLK8mp77zguB-YN-138" value="" style="group;fontSize=11;" vertex="1" connectable="0" parent="_iYfOwLK8mp77zguB-YN-1">
          <mxGeometry x="735.12" y="1410" width="39.379999999999995" height="35.5" as="geometry" />
        </mxCell>
        <mxCell id="_iYfOwLK8mp77zguB-YN-139" value="pbi_msn_ads" style="image;aspect=fixed;html=1;points=[];align=center;fontSize=12;image=img/lib/azure2/general/Table.svg;imageBackground=default;" vertex="1" parent="_iYfOwLK8mp77zguB-YN-138">
          <mxGeometry width="39.38" height="32" as="geometry" />
        </mxCell>
        <mxCell id="_iYfOwLK8mp77zguB-YN-140" value="" style="image;sketch=0;aspect=fixed;html=1;points=[];align=center;fontSize=12;image=img/lib/mscae/Databricks.svg;" vertex="1" parent="_iYfOwLK8mp77zguB-YN-138">
          <mxGeometry x="19.590000000000032" y="16.5" width="19.79" height="19" as="geometry" />
        </mxCell>
        <mxCell id="_iYfOwLK8mp77zguB-YN-141" value="" style="endArrow=classic;html=1;rounded=0;" edge="1" parent="_iYfOwLK8mp77zguB-YN-1">
          <mxGeometry width="50" height="50" relative="1" as="geometry">
            <mxPoint x="744.5" y="1530" as="sourcePoint" />
            <mxPoint x="834.5" y="1530" as="targetPoint" />
          </mxGeometry>
        </mxCell>
        <mxCell id="_iYfOwLK8mp77zguB-YN-142" value="AdFormat=Display" style="text;html=1;align=center;verticalAlign=middle;whiteSpace=wrap;rounded=0;fontSize=7;textOpacity=70;" vertex="1" parent="_iYfOwLK8mp77zguB-YN-1">
          <mxGeometry x="717.8" y="1380.1599999999999" width="43.35" height="24.5" as="geometry" />
        </mxCell>
      </root>
    </mxGraphModel>
  </diagram>
  <diagram id="MoJWW3UqZaAJVTYm_U77" name="Page-3">
    <mxGraphModel dx="1038" dy="567" grid="1" gridSize="10" guides="1" tooltips="1" connect="1" arrows="1" fold="1" page="1" pageScale="1" pageWidth="850" pageHeight="1100" math="0" shadow="0">
      <root>
        <mxCell id="0" />
        <mxCell id="1" parent="0" />
        <mxCell id="WIKi1naMGfM_hJrwJL8N-23" value="" style="rounded=1;whiteSpace=wrap;html=1;opacity=70;labelBackgroundColor=none;strokeColor=light-dark(#ffffff, #ededed);fontColor=#FFFFFF;fillColor=none;" parent="1" vertex="1">
          <mxGeometry x="320" y="492.23" width="330" height="186.77" as="geometry" />
        </mxCell>
        <mxCell id="WIKi1naMGfM_hJrwJL8N-15" value="Fabric pipeline" style="shape=image;verticalLabelPosition=bottom;verticalAlign=top;imageAspect=0;aspect=fixed;image=data:image/svg+xml,PHN2ZyB4bWxucz0iaHR0cDovL3d3dy53My5vcmcvMjAwMC9zdmciIGZpbGw9Im5vbmUiIHZpZXdCb3g9IjAgMCA0OCA0OCIgaGVpZ2h0PSI0OCIgd2lkdGg9IjQ4Ij4mI3hhOzxwYXRoIGZpbGw9InVybCgjcGFpbnQwX2xpbmVhcl8zNTc0OV8xMTI3OTgpIiBkPSJNMTUuNTU3NCA0NEMxNC43MjkgNDQgMTQuMDkwMyA0My4yNiAxNC4yMSA0Mi40NDAxQzE1Ljk4NjUgMzAuNDEwMSAyNi4yOTYxIDIxLjUwMDEgMzguNDMyMSAyMS41MDAxSDQwLjg4NzJDNDIuNTYzOSAyMS41MDAxIDQzLjc5MTUgMjAuNTAwMSA0My43OTE1IDE4LjgyMDJMNDMuOTMxMiAxOC4xNjAyVjI5LjgzMDFDNDMuOTMxMiAzMS42NzAxIDQyLjQ0NDEgMzMuMTYwMSA0MC42MDc4IDMzLjE2MDFIMzkuMjMwNUMzNC4xMjA2IDMzLjE2MDEgMjkuNjA5NSAzNi41MDAxIDI4LjEwMjUgNDEuNDAwMUwyNy42NjM0IDQyLjgyQzI3LjQ0MzggNDMuNTIgMjYuODA1MSA0NCAyNi4wNzY1IDQ0SDE1LjU3NzNIMTUuNTU3NFoiLz4mI3hhOzxwYXRoIGZpbGw9InVybCgjcGFpbnQxX2xpbmVhcl8zNTc0OV8xMTI3OTgpIiBkPSJNMTUuNTU3NCA0NEMxNC43MjkgNDQgMTQuMDkwMyA0My4yNiAxNC4yMSA0Mi40NDAxQzE1Ljk4NjUgMzAuNDEwMSAyNi4yOTYxIDIxLjUwMDEgMzguNDMyMSAyMS41MDAxSDQwLjg4NzJDNDIuNTYzOSAyMS41MDAxIDQzLjc5MTUgMjAuNTAwMSA0My43OTE1IDE4LjgyMDJMNDMuOTMxMiAxOC4xNjAyVjI5LjgzMDFDNDMuOTMxMiAzMS42NzAxIDQyLjQ0NDEgMzMuMTYwMSA0MC42MDc4IDMzLjE2MDFIMzkuMjMwNUMzNC4xMjA2IDMzLjE2MDEgMjkuNjA5NSAzNi41MDAxIDI4LjEwMjUgNDEuNDAwMUwyNy42NjM0IDQyLjgyQzI3LjQ0MzggNDMuNTIgMjYuODA1MSA0NCAyNi4wNzY1IDQ0SDE1LjU3NzNIMTUuNTU3NFoiLz4mI3hhOzxwYXRoIGZpbGw9InVybCgjcGFpbnQyX2xpbmVhcl8zNTc0OV8xMTI3OTgpIiBkPSJNNS42NjY3IDMwLjY2OTlDNC43NDg1MiAzMC42Njk5IDQgMjkuOTE5OSA0IDI4Ljk5OTlWMTguOTk5OUM0IDE4LjA4IDQuNzQ4NTIgMTcuMzMgNS42NjY3IDE3LjMzSDM1LjYwNzRDMzYuNTI1NiAxNy4zMyAzNy4yNzQxIDE4LjA4IDM3LjI3NDEgMTguOTk5OVYyOC45OTk5QzM3LjI3NDEgMjkuOTE5OSAzNi41MjU2IDMwLjY2OTkgMzUuNjA3NCAzMC42Njk5SDUuNjY2N1oiLz4mI3hhOzxwYXRoIGZpbGw9InVybCgjcGFpbnQzX3JhZGlhbF8zNTc0OV8xMTI3OTgpIiBkPSJNNS42NjY3IDMwLjY2OTlDNC43NDg1MiAzMC42Njk5IDQgMjkuOTE5OSA0IDI4Ljk5OTlWMTguOTk5OUM0IDE4LjA4IDQuNzQ4NTIgMTcuMzMgNS42NjY3IDE3LjMzSDM1LjYwNzRDMzYuNTI1NiAxNy4zMyAzNy4yNzQxIDE4LjA4IDM3LjI3NDEgMTguOTk5OVYyOC45OTk5QzM3LjI3NDEgMjkuOTE5OSAzNi41MjU2IDMwLjY2OTkgMzUuNjA3NCAzMC42Njk5SDUuNjY2N1oiLz4mI3hhOzxwYXRoIGZpbGw9InVybCgjcGFpbnQ0X2xpbmVhcl8zNTc0OV8xMTI3OTgpIiBkPSJNMTUuNTc3MSA0QzE0LjczODggNCAxNC4wOTAxIDQuNzUgMTQuMjA5OCA1LjU3OTk5QzE1Ljk4NjMgMTcuODI5OSAyNi40NjU2IDI2LjkwOTkgMzguODIxMSAyNi45MDk5SDQwLjg4N0M0Mi41NjM3IDI2LjkwOTkgNDMuOTIxIDI4LjI2OTkgNDMuOTIxIDI5Ljk0OTlWMTguMTY5OUM0My45MjEgMTYuMzI5OSA0Mi40MzQgMTQuODQgNDAuNTk3NiAxNC44NEgzOS4yMjAzQzM0LjExMDQgMTQuODQgMjkuNTk5NCAxMS41IDI4LjA5MjQgNi41OTk5OUwyNy42NTMyIDUuMTc5OTlDMjcuNDMzNyA0LjQ4IDI2Ljc5NDkgNCAyNi4wNjY0IDRIMTUuNTg3MUgxNS41NzcxWiIvPiYjeGE7PHBhdGggZmlsbD0idXJsKCNwYWludDVfbGluZWFyXzM1NzQ5XzExMjc5OCkiIGQ9Ik00MC41OTY5IDE0LjgzSDM5LjIxOTZDMzYuODU0MyAxNC44MyAzNC42MTg3IDE0LjExIDMyLjc1MjQgMTIuODVWMjYuMTVDMzQuNjk4NiAyNi42NCAzNi43MzQ2IDI2LjkxIDM4LjgzMDQgMjYuOTFINDAuODk2M0M0Mi41NzMgMjYuOTEgNDMuOTMwMyAyOC4yNyA0My45MzAzIDI5Ljk1VjE4LjE3QzQzLjkzMDMgMTYuMzMgNDIuNDQzMyAxNC44NCA0MC42MDY5IDE0Ljg0TDQwLjU5NjkgMTQuODNaIiBvcGFjaXR5PSIwLjQiLz4mI3hhOzxnIG9wYWNpdHk9IjAuNyI+JiN4YTs8cGF0aCBmaWxsPSJ1cmwoI3BhaW50Nl9saW5lYXJfMzU3NDlfMTEyNzk4KSIgZD0iTTE1LjY1NTkgNC4wMDAwNkMxNC44MTc1IDQuMDAwMDYgMTQuMTY4OCA0Ljc1MDA2IDE0LjI4ODYgNS41ODAwNUMxNi4wNjUxIDE3LjgzIDI2LjU0NDMgMjYuOTEgMzguODk5OCAyNi45MUg0MC45NjU4QzQyLjY0MjQgMjYuOTEgNDMuOTk5OCAyOC4yNyA0My45OTk4IDI5Ljk0OTlWMTguMTdDNDMuOTk5OCAxNi4zMyA0Mi41MTI3IDE0Ljg0IDQwLjY3NjMgMTQuODRIMzkuMjk5MUMzNC4xODkyIDE0Ljg0IDI5LjY3ODEgMTEuNSAyOC4xNzExIDYuNjAwMDVMMjcuNzMyIDUuMTgwMDZDMjcuNTEyNCA0LjQ4MDA2IDI2Ljg3MzcgNC4wMDAwNiAyNi4xNDUxIDQuMDAwMDZIMTUuNjY1OEgxNS42NTU5WiIvPiYjeGE7PC9nPiYjeGE7PGRlZnM+JiN4YTs8bGluZWFyR3JhZGllbnQgZ3JhZGllbnRVbml0cz0idXNlclNwYWNlT25Vc2UiIHkyPSIxOC40MDQ3IiB4Mj0iNDQuMTU1MiIgeTE9IjQ1Ljk2IiB4MT0iMTYuNTQ1NCIgaWQ9InBhaW50MF9saW5lYXJfMzU3NDlfMTEyNzk4Ij4mI3hhOzxzdG9wIHN0b3AtY29sb3I9IiMwRDcwMTIiIG9mZnNldD0iMC4yNiIvPiYjeGE7PHN0b3Agc3RvcC1jb2xvcj0iIzA4NTcxNCIgb2Zmc2V0PSIxIi8+JiN4YTs8L2xpbmVhckdyYWRpZW50PiYjeGE7PGxpbmVhckdyYWRpZW50IGdyYWRpZW50VW5pdHM9InVzZXJTcGFjZU9uVXNlIiB5Mj0iMzcuNzI2MyIgeDI9IjUuMDI4NDgiIHkxPSIyNi4xMTAxIiB4MT0iNTcuNDE0NSIgaWQ9InBhaW50MV9saW5lYXJfMzU3NDlfMTEyNzk4Ij4mI3hhOzxzdG9wIHN0b3AtY29sb3I9IiMxMTRBOEEiIG9mZnNldD0iMC4wNCIvPiYjeGE7PHN0b3Agc3RvcC1vcGFjaXR5PSIwIiBzdG9wLWNvbG9yPSIjMEM1OUEzIiBvZmZzZXQ9IjEiLz4mI3hhOzwvbGluZWFyR3JhZGllbnQ+JiN4YTs8bGluZWFyR3JhZGllbnQgZ3JhZGllbnRVbml0cz0idXNlclNwYWNlT25Vc2UiIHkyPSIyMy45OTk5IiB4Mj0iMzYuMjQ2MiIgeTE9IjIzLjk5OTkiIHgxPSItMTYuODU4NyIgaWQ9InBhaW50Ml9saW5lYXJfMzU3NDlfMTEyNzk4Ij4mI3hhOzxzdG9wIHN0b3AtY29sb3I9IiMxMDdDMTAiLz4mI3hhOzxzdG9wIHN0b3AtY29sb3I9IiM1NkI1MEUiIG9mZnNldD0iMC45NiIvPiYjeGE7PC9saW5lYXJHcmFkaWVudD4mI3hhOzxyYWRpYWxHcmFkaWVudCBncmFkaWVudFRyYW5zZm9ybT0idHJhbnNsYXRlKDMwLjQ3MjggMjEuODMwMikgcm90YXRlKC01Ni4zMjIyKSBzY2FsZSgxMC4xNjM4IDI1Ljg5OCkiIGdyYWRpZW50VW5pdHM9InVzZXJTcGFjZU9uVXNlIiByPSIxIiBjeT0iMCIgY3g9IjAiIGlkPSJwYWludDNfcmFkaWFsXzM1NzQ5XzExMjc5OCI+JiN4YTs8c3RvcCBzdG9wLW9wYWNpdHk9IjAuMyIvPiYjeGE7PHN0b3Agc3RvcC1vcGFjaXR5PSIwIiBvZmZzZXQ9IjEiLz4mI3hhOzwvcmFkaWFsR3JhZGllbnQ+JiN4YTs8bGluZWFyR3JhZGllbnQgZ3JhZGllbnRVbml0cz0idXNlclNwYWNlT25Vc2UiIHkyPSIwLjc5Nzk2NiIgeDI9IjE5Ljk2OTkiIHkxPSIzNy42NTk5IiB4MT0iNDUuODI3MiIgaWQ9InBhaW50NF9saW5lYXJfMzU3NDlfMTEyNzk4Ij4mI3hhOzxzdG9wIHN0b3AtY29sb3I9IiMzMzk4MEYiIG9mZnNldD0iMC4wNCIvPiYjeGE7PHN0b3Agc3RvcC1jb2xvcj0iI0JBRTg4NCIgb2Zmc2V0PSIxIi8+JiN4YTs8L2xpbmVhckdyYWRpZW50PiYjeGE7PGxpbmVhckdyYWRpZW50IGdyYWRpZW50VW5pdHM9InVzZXJTcGFjZU9uVXNlIiB5Mj0iMjEuNCIgeDI9IjQzLjgwMDYiIHkxPSIyMS40IiB4MT0iMzcuNzkyNSIgaWQ9InBhaW50NV9saW5lYXJfMzU3NDlfMTEyNzk4Ij4mI3hhOzxzdG9wIHN0b3Atb3BhY2l0eT0iMCIgc3RvcC1jb2xvcj0iI0U1RkFDMSIvPiYjeGE7PHN0b3Agc3RvcC1vcGFjaXR5PSIwLjUyIiBzdG9wLWNvbG9yPSIjRTVGQUMxIiBvZmZzZXQ9IjAuNTYiLz4mI3hhOzxzdG9wIHN0b3AtY29sb3I9IiNFNUZBQzEiIG9mZnNldD0iMSIvPiYjeGE7PC9saW5lYXJHcmFkaWVudD4mI3hhOzxsaW5lYXJHcmFkaWVudCBncmFkaWVudFVuaXRzPSJ1c2VyU3BhY2VPblVzZSIgeTI9IjEyLjAzMzQiIHgyPSIyOC41MzY1IiB5MT0iLTE0LjkwOTkiIHgxPSIxMi45NDEyIiBpZD0icGFpbnQ2X2xpbmVhcl8zNTc0OV8xMTI3OTgiPiYjeGE7PHN0b3Agc3RvcC1jb2xvcj0iI0ZERTEwMCIgb2Zmc2V0PSIwLjE0Ii8+JiN4YTs8c3RvcCBzdG9wLW9wYWNpdHk9IjAiIHN0b3AtY29sb3I9IiNGRkM2MDAiIG9mZnNldD0iMC45OCIvPiYjeGE7PC9saW5lYXJHcmFkaWVudD4mI3hhOzwvZGVmcz4mI3hhOzwvc3ZnPg==;labelBackgroundColor=none;rounded=1;strokeColor=light-dark(#ffffff, #ededed);fontColor=#FFFFFF;" parent="1" vertex="1">
          <mxGeometry x="448.58653846153845" y="588.5502183406113" width="54.32243115586847" height="54.32243115586847" as="geometry" />
        </mxCell>
        <mxCell id="WIKi1naMGfM_hJrwJL8N-22" style="rounded=1;orthogonalLoop=1;jettySize=auto;html=1;exitX=1.009;exitY=0.553;exitDx=0;exitDy=0;exitPerimeter=0;fontColor=#FFFFFF;labelBackgroundColor=none;strokeColor=light-dark(#ffffff, #ededed);" parent="1" source="WIKi1naMGfM_hJrwJL8N-17" edge="1">
          <mxGeometry relative="1" as="geometry">
            <mxPoint x="356.6394230769231" y="548.6113537117903" as="targetPoint" />
          </mxGeometry>
        </mxCell>
        <mxCell id="WIKi1naMGfM_hJrwJL8N-21" style="rounded=1;orthogonalLoop=1;jettySize=auto;html=1;fontColor=#FFFFFF;labelBackgroundColor=none;strokeColor=light-dark(#ffffff, #ededed);" parent="1" target="WIKi1naMGfM_hJrwJL8N-20" edge="1">
          <mxGeometry relative="1" as="geometry">
            <mxPoint x="440.0048076923077" y="548.345094614265" as="sourcePoint" />
          </mxGeometry>
        </mxCell>
        <mxCell id="WIKi1naMGfM_hJrwJL8N-20" value="Mail activity" style="shape=image;html=1;verticalAlign=top;verticalLabelPosition=bottom;labelBackgroundColor=none;imageAspect=0;aspect=fixed;image=https://cdn0.iconfinder.com/data/icons/logos-microsoft-office-365/128/Microsoft_Office-07-128.png;rounded=1;strokeColor=light-dark(#ffffff, #ededed);fontColor=#FFFFFF;" parent="1" vertex="1">
          <mxGeometry x="544.21" y="514.59" width="58.98" height="58.98" as="geometry" />
        </mxCell>
        <mxCell id="WIKi1naMGfM_hJrwJL8N-24" value="Fabric notebook" style="shape=image;verticalLabelPosition=bottom;labelBackgroundColor=none;verticalAlign=top;aspect=fixed;imageAspect=0;image=data:image/png,iVBORw0KGgoAAAANSUhEUgAAAQAAAAEACAYAAABccqhmAAAABmJLR0QA/wD/AP+gvaeTAAAgAElEQVR4nO2de3Abx53nvwAJgCBFggQlvklRfEiyaJm2JVmOLMcPxRtrE9/GuVtX/thc7VUuV3V1l+zGdmL7nFzdxSknTjlOYl/dH9m7vaqtuk1dbp04G5/tWJYdW0osUZZk+SXxJT5EkyIogm8CBAjM/QEBHAxmBvPomeke9qeKNgTM9K+np7/ffkzPDMDhcDgcDofD4XA4HA6Hw+FwOBwOh8PhcDgcDofD4XA4HA6Hw+FwOBwOh8PhcDgcDofD4XA4HA6HNjxOZ8BuhoeHQ6lU6utra2ufTyaTuxOJRHhtba1sfX3dm06nnc6eKoIguC6WE8fk9XpRWlqa9vv9cZ/PFw0EAhfLyspe83g8f7d79+4l2zJEAZvCAK5cuRJeWlr68erq6gOLi4t1qVTK6SypwoXuTCyv14vKyspIeXn5Sz6f74menp4o4axRh6sNYHh4eP/S0tIv5ufnb04mk9QdKwuioDmWlXFKS0uFmpqa8+Xl5V/fs2fPOcsCOQx1oiDByMhI+8LCwm9mZ2dvpqVb7wZROBXLyWPyer2ora09V15e/mBPT8+4bRmxCdcZQH9///NXr179D4lEwutE/M0gCtbjGInl8/nSdXV1L/T29v6tRVlyBNcYwOXLl+vn5ub6otFomx3xuCjYiEU6TjgcHt26devBrq6uCNGEHcIVBjAyMnLX5OTk71dXVwOk02a1om62WHYeUzAYXKurq7uvp6fnhG1BLYJ5A+jv7//K9PT0/15bWzPV5eeiYCMWLcfk9/vTTU1NX+np6fm/tmXIApg2gP7+/q9MTU39o54ZfkEQ4PF4EAqFUFNTg6qqKgSDQQQCAZSWlspur4bHY6wIra7IRtPXu5+eSVY9aVuxbXa7VCqFRCKB1dVVLC8vIxqNYmlpyci8gNDc3PyVnp6eX+nakSKYNYCRkZG7rly58qZSyy93MoPBIFpaWtDQ0AC/36+6rRpGRa+GFYZA0gTU0qJF2Ga2SyQSmJ6exuTkJOLxuKb0gFxP4G5WhwNMGsDly5frp6amxlZXVwNaTr7f70dnZycaGhoMi9cK0StB0gyMCk5vHpwUNsk0BUHA1NQURkdHkUwmNaVXXl4eb2tr287ixGBhn5cBotFo38rKiqYJv4aGBuzcuVO2e68FO4UvF9OsGXg8noI0tKQpt5/dOJEHj8eDpqYmbNu2DUNDQ4hEMppWy8fq6mpZJBI5DWCHTdkkhiPXys3Q39//vJZLfV6vF7t378aePXsMid/j8TgifpL5EAShoFW3SlB68mjFtqS38/l82L17N7q7uzXtE41G299///3nNCVOEc7XcB2MjIy0j42NDRdb5FNSUoKbbroJNTU1umPQIHo19I7PzWxr9fZ2jvHNbDc3N4ePP/4Yxe4h8fv96fr6+u29vb0TmgJQAFM9gIWFhd+oiT87w793717XiV/cemc/G2nR9R4jDWXiVC8gu11NTQ327NlTdL+1tTVvLBZ7SVPilMCMAQwPD++/du3azUChAMRC2LVrF8LhsO70aajogPqxZTE7PLHSBKza1mnC4TC6u7sBqJ+j2dnZfQMDAzc7mVc9MGMAi4uLv0ilUqotXmNjI5qamnSn7URF1CL0YrjBBEinaeV2jY2NqKurU90+nU4jGo3+D02JUwATBjA5Obl1bm5O1VUDgQB27typO20rxa8kcpITcWZ6AzSYAEu9AADo7u7OW0Mix/z8/K3Dw8Mhm7JkCiYMYH5+/ofFVvt1dHTonu0nVfmsFrkWWFjfYDYPNGxXWlqK9vZ21e2TyaRnfn7+aU2JOwwTBrC0tPQvlH4TBAFlZWVobGzUlaaRiq9nfK7ljzR2iNnpoQANNDY2oqysDIBynVhZWfmyw9nUBPUGMDw8HFpcXKwD5AsbAFpaWohWTD0tuhlRW2EIRvNh5fYk03RqO+k+TU1Nqr285eXl+gsXLlToTtxmqDeAVCr1dbXJP4/Ho6v1z55ws+NzK1px0kZg5fZOp2s30uOor69XPbb19XVPKpX6mtX5Mgv1BhCLxT6v9nsoFFKdlCE9PrdjhSCpGDRM8unZltbt5OqP3+9HZWWl6n7r6+t/rikDDkK9Aaytre1W+z17zV/r+NwoTiwNJhGTFhOgHS09QunxShebSfdbW1u7wZbMm4D6m4GSyaTsqp7sidmyZYvmm1uM4nRFFw9bjO7Pyo09Vm9HshyK1b1EIlFLLJhFUG8A8Xi8TK2QKyqsnWdxWvxizBiBHhOwals70St6I8dRXl6u+nsymSzTlaADUD8ESKVSqnkstigDYPsauRx2HA8rY3yrh35qeQsE1O9ITyaTJcQCWwT1PYBid2CVlFhTxrSKP4sdLS8trbtdedB7vGp1TxAEXY9LcwrqDaAYxYRq9DovCxgZElglahJjd+n3VnXdzZKNWSw2DeZZDKYMwI4CZUX8YvSKwOkxvhPCoKU3QxvUGwA/adqgwQTE26ltT3qmnySbzSionwQ0Ay2r4ezCifyzdCOUVZOBLEN9D8Au3HJCreze03Adn2ZYyacYZg2AxcK2CzMmwGq5kjQKrROVTvR2SEO9AZhZ/WbFtm7AyGw74I7WXWtMq1eX0gL1BsAxhsfj0XwdmvZutlX5IzFRyTrcAFyA2q3StLfudnTdjfZ4zMCKeWx6A2ClG8fyjUAk0HIcWsfkJMuE9bJlygD0tGas4mSForl1F0Pr0mAWod4A3HoC7Dwu2iuyXP60dOW1psVRhnoDsBI7egq0VEZaW3ctKwdJxySdFstsagMgBa9Iyohv2XU7LB4jswbgRGGzeILFOPW0HZZbdzfc8acG9QbAhU4felcOsiruzQD1BmAVm/XE62ndWXighZO4oQ653gDUFslwzFdiWltk0q273rRYMQfXGAArBe4UTj9th9a0xBhNk+W6x5QBGL02vJng5aEO6TrEenlTbwCsF7BV8K67OnrWF2xmqDeAzQwNlZdGcYvhy4LNwQ2AAtxYsUhiZn2B3dCYJzWYNQDWChqgL8+0te5OddvN5J22c6oX6g2AxQJmMc9KnP/0HP7x/D9g8NoAgqVBHGq/E/9631+jqixkOM1i5ePW7jaNUG8AtLIZKuip8T/h6ePfzx3rcmIZr/e/ik+ufohnH3ge5X71d+PRUEbcTNRx9WPBSZC9kUX65xaUFkQJgoBfvPvf849VyPxnYuEKfvfJb3LbOVVGdi/m0huPhXqyaQ1AbmGMm4Wul4Fr/ZhZmdn4QhBw3QEAAO9Pni8oH5ZXV5rJO8t1h6khAKlJJo4y2TLqGz8l/lJmQ2vzQWvX3ciKSpqh3gCMFDDrJ8VqtFTiM1dO57r8+Rtn/ndD3R5rMmcBRsxks9Qh6g2gGPxmH2W0VmKpQGZWZjAyexlK4geA27bfbjhfNLXuem9tdhvMGwCHfMU9M34KauKvKguhe+suojGNQvJpwSTisWYizBoAawVNAruO+fT4u5LA+f/c33obvB75+WMnW3f+8Bj9UG8AVhawIAjUDRWcrlCxZAwfX/3wembktznQctC+DMlg1UQcTUMTu6DeANwKrRXt/clzSKQS8uIXgBJvKW5pudXyfPC7+ezBtQZAS+vOWgXemP2XIGS+3tt4E4I+9RWAenDz3XwsnHvXGoCdsHCitSAIAt4b75P5PvcJt7UZm/1388NcWD4OpgzAqsdAae0psHyitTAwcwnzsbm878TiBzITgGqwtArOKOLeBOvHSr0BmH1ck5FhgJMndW19DW8OH8PFmU9QVlKGg62fwb6WA7bEzl/9l5X8Rlm01+xAfWWD5vLpj1zCu6N/RDwZQ9e2nfhs593wl/iJ5hnYnJN3pKDeAKxE7OI0zBdEY7P47uuPY2LhSk53rw28gs91fR7fuONv4YG1eey7cjrzQUb8EIADbQc1C+0fzvw9Xrzwq40vPgFe+uBF/NejT6O2opZUljkmcf3NQE7eraaHaGwW/+m1b+eJP8sbQ7/HW0PHLYstCAIiyxGMRUcgKIgfgObx/+mxP22IX3QP0ZW5MTz5/76N2ZVZQjknj9mGgOY6JgezBiAtYFaELkdW/JOLk4oz8G9dNmcAxcrnzPipgvG++GNVWQjd27St/js+cKwgmSxT85/iyZcfxezKNWMHQhms1TUpTBiAmqhJFbxTJy9P/FJEref86lzh7zIYNcG+3PJfoSA2ABxQWf0nJboaVTCyzJdTC5N48uVvu8YEWIZ6A2DRVbVSVPwi2mq25/9MsLcTS8bw0dQHirEB4ICOy3+t1a2FX0ryNrUwie++/B1uAg5DvQGQQKsw7DQbPeIv9ZbgSz3/0rKu5vufns2s/pOJnYnvwy3N2lf/fbHnL1DiLdn4QuF5AlpMgIbJWaOw0HgxbwAsFLIUPeL3ejz45h0Po6u227L89I1vzP7L5Wdv400IFnn+n5jOrd34m7segReeog8TmVyYxJM29QSsMhNW554ABg3AaCHT0AsQBAFzsSi++/vHC8UvGXMDgBcefPOOR3BXx70W5imdWf2nIH5A++y/mLu67sUjR56Q9AQ20sx9FICp+Uk8/tuHEVma1h3HKbJmworQlaDeAFh0VaUWYT4+hyd//1jmUl/eDgUpZMR/+BHc03nE0rz2z/QXrP6TmtH+tszqP73lf7jjs3j43sczJlB4YSHvQ2RpGk/+7ttMmYAboN4AtEC6ddeynd7LjvrE77VF/ABwZuxU/heS/LSH21Ff2WA4/cMdn8XD9zye6wnkiz/faSKL03jyn7kJ2IkrDMAKxKsEzY7vaBU/ULj8N/8fgq7ZfyUOd2Z6At7scCAnfkk4INMTYNgEWOuxMm0A0vUAeveRfm/FRI6s+GXG+xCui/+Oh20T/8xyBKPRkY085WUw8z8zz/4Tc7jzs3j4nsdQ4imRBiv4Z2RpGk/+lg0TYE3wUpgwAJLi1JOW2ROqKP78KBnxe66Lv+tzpmLqoW/8lIwZCbnvKnWs/tPCnV134eF7v7MxMShrhJm/DRO4Siw+CVgXvBTqDcDITH+x8bkVVw+kaBc/HBE/APSNSp79t3EXEARkbv7RuvpPK3d23Y2H7832BArDi/8RWbqKJ3/7HUwv2m8CLF/a0wP1BlAMoyfJShMoEL9cS+ew+DOr/z7cyItE/ABwYPvGs/9IVv47u+7Gw0ceK7xEKPqHgMwSgunFq/je7x6zzASsFDoLhsG8AUhxutBlxZ9HpsvvpPgB4P2J7Oq/fNVns1ta4sOtzft0p6u1/O/suhvfyg4HZMQv/s6sCei9YkMqfRZgzgBIFjLpXoA28Wc+OSl+ADg9dmojPxv/y7G3Qd/qP70IgpBvAtdzIHeBAACmF67ie/+sbgJOCJEVoStBvQHQ1L1X25Yl8QtCGmevbKz+k7n6lzf7b2Ulv7PrbnzrSMYEBNmh0sZ304sbJsBqi0sb1BsAbchVtDzxq4z3AefFDwD9kf7c7cVyV/+A/PG/1WR6ApI5gWx+JGU5vTCF777ExiVCFnCtAVg5ySfevkD8+VvmxvsAHeIHgDNjmdl/JfG3h3eYWv2nh2zrfbjrrvyJQdmeQObLyNI0tSbAWq+EaQMoVsBWm0Bx8W/8ixbxC4KA02OnFMUPAAcMdv/VttUyPs+ZQMElQiEn/iyRpWl89zfOmwBrgpfChAHYNbmjJ81oLIonXntUu/gPP0KF+AtW/xUsxBFMrf4ze64Od92Fb9zziGj9gSDbGxAEYHppGv/5t48jqvEZgywK1GqoNwA7Z/o1pwkBP377aUwuyD3DT0H8Ni3vVSJbDn3Zm38UuthVZSHsrNuVt49cWmaEXmy7e3YdwTfvffT68wRks5ljamESz77+Q01xOYVQbwAkID0U6J+5iEuRT6R75o33gWy3nx7xA9cNQGV8fWD7xuo/PSInbbT37DqCb9z7SP5KxMKRACAAH3/6AfqvXiQaXwskh6BOsSkMQC/FTlz/TL90jwJR5cTfRY/4Y8kYPpr8QG6j3McD22+HIAhIp9N2ZE+Ve3Z9bsME5EYCokUDA9OXLMtHMSNkeSEQcy8GMVqwgqDv5R9q2+d/W1gzBci0VA4graTnJ0TP/st8mbd9aYm+Z//ZhVBE/ACZx31ly8vKyWPaoN4AtHSz9Lzbj4QJ7Ny2O7uFrPghAGmk8fOTPwEAW3sBapW4b1R873/h79ln/5m5LEpy27f638Dzx3+CtCDpjUjEDwDddbuhFdZFSxJXDAHsuuafZfe2G7CnrqdQ/JJZ9bSQMYG3ht7QFVNrvvRMxuVW/+UyKt0g//Kf08iKP9e1ys//jU292NWQbwBmJyo3C64wAL2QMIFH73oCjZVNom3kdgTS6RR+fiJjAkYqn3aBq1fugZkBzMfmFcUPZCYArWz9tfJW/xv4+RvPFopfprvVGGrGt+57jBqR05IPrTBtANIxrl2xACAcDOOHR59FS6hNUfzZCpsW0vjZiWfx5nUT0DqJpGX4o7Wi9Y2+Wyh+UWPaXrsDdVvqi6ZjBi35PDH4B/mWX0781c34wZd+jHBFmGg+tSAearEkeClMGICeVlBPmkbyIaY6WIMffP5HaK1uk24IaYUV0gKeP/ETHB88lst/Op1GOp02JHi9+T8zrvzwTwHAfgq6/+8MvIXnjj2DVDq18WVR8fM3DZuBegOw0lXNdMmzFJiAShdbEAS8cPI5vKkyJ2DF2HVmOYLR2ZGC/Ig/HmjTf/OPmSsy0r93Bt7CT9/48Yb4Fcb7YvHXbtlKPK8stuJmoN4A9GLXGFbccofKqvHUn/0QrSHJO/Hk6q8g4PkT6iZAmtPiR3/JiL8qsLH6Tytayk0scHF5STkx+IdC8cteWzUmfqdgwUxcZwAAWRNQa42lPYGn8noCcoldv6adM4FjuvJplPfGTxeYkSD6cKBd+5t/5TDTY9EsftAtflavNjBnAFoLWe8JkI7FtZ5E8XY5Ewi1yWyYrccZJQpCGs+/81O8OWitCUhX/+V8QPRBy80/Sq251jKSw6z4aRAZS2KXg3oDMOOqShOFWlp0o/msDtbgqfslE4N54hd9J6Tx/AlrTeD9iXNIrCfyo4s+lJb40Cta/Ud6/kGJPPGrjPcBulp+Flt5Nag3ACOYmUgze1KlJiAoiH9je2tNIPvo73zxb4jtxsabEPQFbSsfQEb8CuN9gIz4zUz2uk3wUpg3gGInyejJN5unUFn1dRNohZL4c1+lrRkOpNMpnB3vkxH/BrfpePQXibLUJP7r2NHya52oNJom7TBtAFZe2iFx8jZMoE32ioD4u8ycwHOGTECptRqI9GMuNi8Z+OfH3q/x8h/5ll+5yw8UF7+e/JjpERaLzXovgQkDIHHyzHQDzSA7JwDI9ASETE/g7efw5oC8CegpB0HIPPpLZuCf+7g93I76quLP/iMhlJz4U1nxizeELvGrxWNdkHZDvQGQPIEkKrIRqoM1eOqo2iXC3ERB5gaid57D8f7XDc1fiLc9M3r92f8KQ5AD7dat/lMUv0qrD2gTv14j5ChDvQEUw46egJn9suRMIO8S4XVxChv/ysS6Pieg0BPI5kdNADPLEYxln/0nDidCy6O/zR63GfGT7rpzCmHeAAB7TcBIrOxfqKwa3z/6Q7SERBODEvFn/yE2ASMC6JOu/pPsknn2n/I99CTGyBviXy/MgIz4n/qLZxCuqHVE5CQn/lgyKuYMgFQBk95XawWoDtbgvxx9Gk1VzbnGP2+YLrlE+MI7P8Ufho7rzuOZsdMbaRZkFtjfprz6j0TZvNX/Bp57/Znr4s+PrSR+Gq7z64UVoStBvQFoFbwdM/3ifEjv5NNDbXktvn/0GTSGmkWJywZEOp3Cf3v7pxiNXtacfiwZw8dXP1QUPwDcpjD+J9ESDkxfwgvHn0NaSEl+LNy+MaRP/Hpn/0nDstjloN4A9EDKBOyYZKqtqMVTR59BU6hZUfxZ1tPr+P3FVzSn/f7EWSSSicIfridZWuLDza2Fb/7VKy7pX/ZBor+78BJSaZmWX0JjqBlPfYnNlt8tuMoAAGOVWO/adqV09JJnAvkJFmw7tTCpOd28Z//l0tz4eGPTXgR9QVE4+fzrmYQTfzc5P6EYO0tjqBk/eNCaW3r1QjpdPgdgE1pbZS2VmMQJMzQcqKjFU38uMgG5/QVg25Y6jXlI49z4e3n7SicZpK/+MjuBJd02J2qZ8T6wIX4rH+ZBUnxqZcTixJ8YJgxAj4DlWnW9sUjlVysZE/gRmqqaCn8UAI/Hi/t2368prYFIP+Zjc7l98xJCxl/2t92WN4dBmiO7/0xx/sEO8RulWD1jTdxaoN4AihW6FeNzUidaT6tQW7EVT33hGbSHd1zfOfNX6i3Fvzv071Uv2YmRf/WXkLvhbnt4B+oqyT37T+7YbtvxGfyrfV+BR/wGBQHYvnWH7m6/WhyjuKHlJgX17wUwiyDoexeA2f3U0suilG5txVY8++AL6Bt9FyOzl1ER2IKD7Z9Bo0zPQKnCnhmVvvpLyLsNQMviH62oieavPvNvcLDjEE5f/hNWE6vort+FO7vvQmmJz3Kx6RH0ZhV+FtcbAGDOBAAyb52RS1cu7VJvKQ513IlDHXfmttVaSWeWIhibHc1Gub5//jYH2skYgJY8ddfvQnd9/qPGSF2pUfvNCVGzaiTMGYCZbr1RIZPuDUjTlh6T3ljZ/TdW/8mLvyoYQrfOZ/+pxbMTp1t00sNMWqDeAEiP/cyYAGCuN2B1JX5vvA/SLr+Y/a3mn/1nBi37y03uWgXr4iUB9QZAGrOtuZb9nahY8fU4Pp76QFH8EJRX/2mBpPidbs05GzBvAEYETcIEaOP9K2exJrf6D8hcTSjxobfV2Jt/zV5Nsau8aDkvtORDC0wbgLiCGR03k2jNrZof0EOx1X97m27KW/2nBSdbajuuFJDYliWxy8GMAWhZD2Dmcp+ZE2nV1QLt8SWr/4CCYcB+nZf/SI3FN1vrzxrUG4BepzbSopOa5XfKCAZnBjZW/wEycwCC5st/2Rt6SECraXCz2IB6A9CL2UrHohGcGT0tCl6QG7TVtBes/rN6tt1O8fMrBcZh3gCUThAN1/y1rP4jwYWJcwoz/5kvD7QftPU6tttFIwerx8ykAWi9nkyDCYjTzEI67XhyTS5g7qN0/E9ri2lH609LT4cWmLgZyOhNG2Yro5Wryowej9zfrnrxjUJCnvjDFbXYVb/bUDw9mE2btq6/HenTAPUGYBY7Vq+ZRSpovS8q/fItD6HcXwGInjCc5a8O/jUAa+ciWChjO+OwhOsNACDTOlnRdVT6K/a79K++sgFPPfAjdG/bWOdfUxHGf7znYdy983NE8y13HE5Ac+tvdW+LJEzOARiF1ApAPWnYVQl2bO3EM1/+GeZWo1hPr2NrxVZ4TKz71wKJY2O99WdB5GowYwCkCprEBJ+cEdBSEWrKw5bHIHkunIzPYcAArLpMZfauQPFnGpYC2wWL4nf6SgHNUG8AxTAqZjXxGq0wbjYCkqLYTAKjHeYNADBnAlYs/HGTEdB03Zzm1p9VU2PSAOQKW03IxU4OaeHatQLQSmhbIejkOgGldFiZ6VeDegPQWsAkWnOSvQFxmgAbRmBlZbZb/EYgeSMUK1BvAMWQVg6zgrNKsNJ80mIINF9Ptyou6602SZg3ACVo7A1I0xdjpyGwdO3drp4DybkClgzGtQYAOLPwx2wsMSRvTbYbu8SvNB9kFyyJXQ5mDMDM7KwVC3/sgMXKZdXEm565ILOxrIhBK9QbAMmWhFUjYAVS58pNAqMd6g2AJKTG9VbPD7AGLeNnu1t/NxjVpjIAgKwJZNnMZkBSzLSLX8r6+jqxtJyCSQMwW9hWLfzZTEZAuiVkYZ2ANM7a2hqzws9CvQFYvTjFijcAu9UIrBqfOyF+EsexurpqOg2nod4AikHjwh+Whwd2X1ZjpQWV6/EsLCw4lR1iMG8AWWhd+EOrGRi9xm5nfKvSMHLscvtEo1Gi+XIC1xgAQP/CHyfMgMZr3DSJ34wRzszMMCV2OZgxAD0LQVi43k9yKTALE2gk4xmd8Sd5rNFoFLFYjFh6TkG9AZi5vEPCCJxuqUk+dszJ1sqqFYJWxNCS5pUrV4jHcgLqDcAMrPQGlGJKP7MKafHbdc1faZ/19XWMjo7qTo9GXG0AAPmFP1ZdLXAjJHssNA1zRkdHkUwmLY9jB0wagNGJLSeMgMVKQQI9x11sW5rWCayvr+PixYuuOa/UGwDJgiY5ppfO6LulQphFqRycXLBDMubFixcRj8dtzI21UG8ApCG1cIhkmm7AzPi8WJpO7S9lbm4OAwMDRNN0mk1nAFnUegNmW6vNYARWCF4ufbv3V+v69/X1aX5uICs9wk1rAMDGQyBZehW4nZDuzpuJaUcaasfb19eHxcVFYrFogRkDKFYZ1YSmdZJpMy0FFuP0smCSMazI5/nz5zExMUE8XRqg3gD0rAAkEYuV1X8k4pPe3gxOi19upaAgCDh//jyGh4fNZo1aqDeAYpAWlZ3jeKsMwS0z7lalo+V+gGQyiTNnzuDTTz81nTeaYd4ApJBcBkwiHSMxpZB4fyHp/UlgtfiNDm3m5uZw+vRpLC0tEckHzTBpAFpPLK0rAPXGZ7FiqUHyeEi+zWd9fR2ffPIJBgcHVdN10/mg3gDMjutYeeyXmyqVEqRX9JHqBa2vr2NkZASXLl3KW+RTLP3m5mbmhwjUG4BZSAvXTHqbQeRKkJ7MJSH+aDSK8fFxjI6OIpFI6Nq/oaEBt99+O1588UVT+XAa1xtAFquMQC7NzSx0KVasJdC7bzKZRDwex+rqKhYXF3Ht2jVEIhHDS3qbm5tx++23w+v1EsujU2waA8iSSqUQjUYxOzuL+fl5rKysYHV1FYlEouh40q6TytrlN9piWRmnu7sbvb29ufs/WBG6EswYgJmCTqVSmJiYwMTEBCKRCFKplGWx9OIGUTgVy85jKikpwb59+7B9+7xp5h4AAAr3SURBVPbcd+L3ArAK9QZg5iTHYjEMDg4qjvG4KNiI5fQx1dbW4rbbbkNlZWXe9264K5B6AzBCIpHApUuXMDQ0hHQ67XgFYjmOW2NpieP3+7F37150dHTIPpptZWXFsvzZBfMGIJ3cm5iYwLlz57C2tmZLXKtxo/jsjGUkjs/nQ3d3N3bt2oXS0lLFdKQ3B7E4H8CkAYgLOvs5mUzi/PnzGB8ftyyW1dAsCtpjkYhTWVmJjo4OdHR0wOfzFU1zdnaWSdGLod4AtBTw6uoq/vjHP8rerkkyDilYEoXbY1VWVqKpqQnNzc3YunWrrhiRSIRYPpyCegMoxsLCAk6ePKl5QobVikpDHFZjlZaWwufzoaysDBUVFaiqqkJ1dTVqa2sRDAYNxZ2dneWTgDTwzjvv6J7h93g8qK2tRV1dHWpqalBZWYlgMJgb76nhxF2CbsbIsartY9dNUsWGmqycQ+YNQM9kX0VFBbq6utDW1oaysjJD8UiuKGSlkliB0Tv1SG5vdP/19XWMjY0Riek0TBmA0cIuKytDT08P2tvbVZdvGs2LmacRbTasvKnHrjQuX75s+VUmu6DeAMye3O3bt6O3txd+v59QjgrJLgml9ZFfTmPlklm7xb++vo5Lly6ZjkkL1BuAUbxeL2699Va0t7fnfW+2C691/LlZzUDuEq0dsexK4+OPP3bFS0GzuMoAsieztLQUd9xxB+rq6opuS/rR4HL7u9EMrLjLz2xsq9Mp9l4AFod7zBqAUmF7vd6i4henYfWDPrJxsrBmBlZM1pnBKfEnk0mcOnXK9qXlVkO9Aegt7FtvvbVA/HoqsdUCleaFBkMgfSnOCkjGM3J14dSpU1hYWCCWB1qg3gD0sH37drS3txN52IRdwpTLK42PHXOy1XNS/ABw7tw55h/9pYRrDKCsrAy9vb3E0rPbCORiS7HjjcQ0dW9J58VIy3/u3DkMDg5aHsspXGEAgiBgz549uRs4SIrWSSOQYucMu5NYcWxGx/zFWn7WzwNTBqBU2BUVFXlParFCtE4ZAesVTC80iH9ubg7vvvtu3s1lbj0P1BuAloLv7OyUXeHHkhG4tYJphQbhr6+v46OPPkJ/fz/R9w3QDPUGUAyPx4O2tjbVbaxYpWf00t5mF7oYK8tC7+q+4eFhXLx4Udcin5aWFuZfGsq8AYTDYU039ljZhZeaARe5OrSsELx27RrGxsYMvRegqakJhw4dwq9+9SvdcWmCWQPIFraWBT9y+1l1Nx9Nk4a04ZTwE4kE1tbWsLq6ivn5eczOziISiRhe0tvS0oJDhw7B6/UyKXox1BtAsQIOh8O601xcXMQHH3yQ94hwFlez0RRrsxzTrl27cMstt7jG4Kk3gGJs2bJF1/aLi4s4fvw4ksmkRTnaYLOIYjPEKi0txf79+7Fjxw6bcmQPzBuA3gd7XLhwgbj4aaqorMVhIda2bdtw8ODB3HsBaLs/wgzMG4DSY7yUToCZBznSXlFpj8XaMQUCAezduxednZ2Kk7usCF0JpgxA6QSQnnhjraLSFov1Y8q+F+CGG26Az+dT3K7YWgEW5gmoNwCv16v6Lr9kMpk7SVqMoL6+HpOTk7l/c1HQH8euWJWVlejs7ERnZ6eq8LMUezcgqcfPWQn1BuDz+dKpVEqxJOPxeMHJUlv4s3fvXszMzOi+7qsVt4nCzjhOxKqqqkJTUxNaW1vz3gughdXVVdXfA4GA+ltoKYB6AwgEAvF4PF6u9Pvy8nLBSxsB5d5AVVUVjhw5ggsXLiASiRh+w6ubReGmOEDmzb4+nw/BYBAVFRWorKxEOBzG1q1bZd8LoAVBELC0tFTwnRi/30/9s8NYMIAogAIDyBZ2NBpFY2Oj4v5yRlBZWYnDhw8TyyMLYz0WkArI6duBi6VT7NVgwWBwlkhAC6F+kBIMBi9lJ/rEf1m0zupbve5cmi+OdtLpdO5RW1aUJan0pOlMT0+rbl9WVkb944OpN4BAIPCq2u96XtFkh0i5GSgjLpus6K2+6450q58lFoshGo2q7lNeXv4ykeAWQr0BbNu27X+WlJQo/i4IQu4tLVqxS6Cb0QzkemtqPTir80EqLSkjIyOq6ZeWlgrNzc3/i0gGLIR6A9i/f/9COBxW7ecPDQ0ZOtl2itNtZqBV2E4cN+nhg5R0Op33mDC5cqitrb3a29u7QiwjFkG9AQBAKBR6CVCudCsrKxgZGTGcvhMVlBVDMNKCO3VsVswdyDE0NISVlRXVeKFQ6J+IZcRCmDCA1dXVJ3w+n+qZ/eijj0yv8XdKkE50kYvF15oPp/MuzgPpNOVixONxfPjhh6r7BgIBoaKi4ntEM2QRTBjAQw89FG1oaDivtk08Hse5c+eIxKOhZbZi7Gw2TRrELpcfkhS7IvHee+8VfTFoY2Pjmfvuu4+JlwgwYQAAUF1d/XW1yUAAGBsbw+XLl4nFpKWii9EywabnsprWSTsay8Ds/nLlpsbg4CDGx8dVt/F6vaioqPia4czZDDMGcOTIkXNNTU25Jl7pJJ49exZXr14lHp82EQDFW3SWRK0FEj0WNSNUY2pqCmfPni2adktLS98Xv/jFjzRn0mGYMQAACIVCDwYCgbTayUqn0zh58iSmpqYsyYPd4nGLeM1Q7HjNlI+WbScnJ3HixIm8XpUc5eXlqZqami9pCkwJTBnAfffdN97a2vpCse1SqRROnjyJy5cvWyoUkkLc7CKXQ1wGVhihln0HBwfx9ttva7pnpLW19Wf333+/NS2PRTC5iP2Xv/zlyNTUVHux7QRBQFtbG/bt2we/32/Lmv1iMTa7qIth1/P4i52HtbU1vPfee5oXmTU3Nw9/9atf7SKRNzuh/mYgOcLh8MHl5eXxpaWlAKB+MsfHxxGJRHDjjTeio6MDHo/H8leBZ/PDbxJSRnrO7BxSqZFOpzE0NIQPP/yw6Gx/llAoFK+urr6dRP7shtka+tprr905PDz8h3g8rnkYU15ejq6uLrS3tyMYDJoWqJ5Ku1nNoNjYnYZ8AJl7+0dHRzE4OIiVFe0L+ILBYHrnzp2Hjx49+q7ZPDoB07Xy1Vdf/cuhoaH/k0gkdB2Hx+NBOBxGfX09ampqUFVVhWAwCL/fL7u9FRXVTYagd2bebqQxE4kEYrEYFhcXc+8IKHZrrxyBQEDYuXPnX37hC194kWR+7YT5Wnjs2LGHBgYGflmsJ0BTa8NaHDtjsTJHEgwG011dXQ+xLH7ABQYAZIYDV65ceX1xcbGMi4LHsppQKBRvb2+/l9VuvxhXGAAA/PrXv66Lx+OnJycn20mnzYXOTiyraW5uHq6urr79gQceuOZ0XkjgGgPI8vLLLz83Ojr6N3omB7O4URRuPCYnKC8vT7W2tv7swQcffNTpvJDEdQYAAK+88krL8vLyS5OTk/vkFnC4URRuPCYaKCkpQUtLS19NTc2XWFvkowVXGkCWV1999abFxcW/n56evnVtbc3SY+VCdxeBQEBoaGg4U1lZ+TWW1vbrxdUGkOXYsWOhWCz29Nzc3Jfn5ubqk8mk4ePmQncvfr9fqK2tvVpVVfVPW7Zs+R4rt/SaYVMYgJgLFy5UTExM/NtYLHY0Ho/vjsfjtfF4PJhIJErEbyByowC50DOUlJQgEAikysrKYuXl5df8fn9/MBh8pba29u8OHTpE/bP8ORwOh8PhcDgcDofD4XA4HA6Hw+FwOBwOh8PhcDgcDofD4XA4HA6Hw+FwOBwOh8PhcDgcDofD4bib/w+W5BEnDd4GTwAAAABJRU5ErkJggg==;rounded=1;strokeColor=light-dark(#ffffff, #ededed);fontColor=#FFFFFF;" parent="1" vertex="1">
          <mxGeometry x="361.5432692307692" y="511.0218340611354" width="67.90303894483559" height="67.90303894483559" as="geometry" />
        </mxCell>
        <mxCell id="WIKi1naMGfM_hJrwJL8N-25" value="Fabric" style="shape=image;verticalLabelPosition=middle;verticalAlign=middle;imageAspect=0;aspect=fixed;image=data:image/svg+xml,PHN2ZyB4bWxucz0iaHR0cDovL3d3dy53My5vcmcvMjAwMC9zdmciIGZpbGw9Im5vbmUiIHZpZXdCb3g9IjAgMCAyNTYgMjU2IiBoZWlnaHQ9IjI1NiIgd2lkdGg9IjI1NiI+JiN4YTs8ZyBjbGlwLXBhdGg9InVybCgjY2xpcDBfMTI2M18xMjQ1OTApIj4mI3hhOzxwYXRoIGZpbGw9InVybCgjcGFpbnQwX2xpbmVhcl8xMjYzXzEyNDU5MCkiIGQ9Ik0xMC40OTYgMTc2LjYzNEw2Ljc0NjY5IDE5MC4zNTZDNS4zNDkzNyAxOTQuNzQ2IDMuMzkyMDUgMjAxLjE5NCAyLjMzNjA2IDIwNi45MzJDMC44MzIwNjkgMjEwLjkgMC4wMTA3NDIyIDIxNS4yMDQgMC4wMTA3NDIyIDIxOS43QzAuMDEwNzQyMiAyMzguMjM5IDE0LjAxNiAyNTMuNTAyIDMyLjAyMTIgMjU1LjQ5N0MzNy4wODc4IDI1Ni4yMjggNDIuODIxMSAyNTYuMTkgNDkuMjQ3NyAyNTUuMjQ2TDc4Ljc3MjggMjUxLjE3MkM4Ni4xOTY3IDI1MC4xNDggOTIuMjkyNyAyNDQuNzg4IDk0LjI2NiAyMzcuNTU2TDExNC41ODYgMTYyLjkyMkwxMC40OTYgMTc2LjYzNFoiIGNsaXAtcnVsZT0iZXZlbm9kZCIgZmlsbC1ydWxlPSJldmVub2RkIi8+JiN4YTs8cGF0aCBmaWxsPSJ1cmwoI3BhaW50MV9saW5lYXJfMTI2M18xMjQ1OTApIiBkPSJNMzkuMjk0MiAxODAuMTdDOC4xNzQ0NCAxODQuOTkxIDEuNzg1MTYgMjA4LjQ3NCAxLjc4NTE2IDIwOC40NzRMMzEuNTg3NiA5OC45NzA4TDE4Ny4zMTQgNzcuOTA0M0wxNjYuMDc3IDE1NS4wNEMxNjQuOTczIDE1OS4xNzMgMTYxLjUwMSAxNjIuMzQxIDE1Ny4xOTcgMTYyLjk5N0wxNTYuMzI4IDE2My4xNDFMMzguNDE5NSAxODAuMzJMMzkuMjk0MiAxODAuMTdaIi8+JiN4YTs8cGF0aCBmaWxsLW9wYWNpdHk9IjAuOCIgZmlsbD0idXJsKCNwYWludDJfbGluZWFyXzEyNjNfMTI0NTkwKSIgZD0iTTM5LjI5NDIgMTgwLjE3QzguMTc0NDQgMTg0Ljk5MSAxLjc4NTE2IDIwOC40NzQgMS43ODUxNiAyMDguNDc0TDMxLjU4NzYgOTguOTcwOEwxODcuMzE0IDc3LjkwNDNMMTY2LjA3NyAxNTUuMDRDMTY0Ljk3MyAxNTkuMTczIDE2MS41MDEgMTYyLjM0MSAxNTcuMTk3IDE2Mi45OTdMMTU2LjMyOCAxNjMuMTQxTDM4LjQxOTUgMTgwLjMyTDM5LjI5NDIgMTgwLjE3WiIvPiYjeGE7PHBhdGggZmlsbD0idXJsKCNwYWludDNfbGluZWFyXzEyNjNfMTI0NTkwKSIgZD0iTTU2Ljk1MzIgMTEwLjMwM0wyMjkuMzUyIDg0LjgzNjdDMjMzLjQ1MyA4NC4yNzY3IDIzNi43NzYgODEuMjc0IDIzNy44MjEgNzcuMzQzNEwyNTUuNjEzIDEyLjk1NDZDMjU1Ljg1OCAxMi4wNzk5IDI1NS45ODYgMTEuMTU3MiAyNTUuOTg2IDEwLjIwNzlDMjU1Ljk4NiA0LjU3MDYzIDI1MS40MjEgMCAyNDUuNzc4IDBDMjQ1LjM0MSAwIDI0NC45MDQgMC4wMjY2NjY1IDI0NC40ODIgMC4wNzk5OTk0TDc5Ljk4MjQgMjQuMzg5MUM2Mi4xMTU4IDI3LjI1ODUgNDcuNjg5MyA0MC40MzcgNDMuMDA2NyA1Ny42MjYyTDE5LjI4NDIgMTQzLjYwNEMyNC4wNDY4IDEyNi4yMTIgMjYuOTc0OCAxMTUuNzI3IDU2Ljk1MzIgMTEwLjMwM1oiLz4mI3hhOzxwYXRoIGZpbGw9InVybCgjcGFpbnQ0X2xpbmVhcl8xMjYzXzEyNDU5MCkiIGQ9Ik01Ni45NTMyIDExMC4zMDNMMjI5LjM1MiA4NC44MzY3QzIzMy40NTMgODQuMjc2NyAyMzYuNzc2IDgxLjI3NCAyMzcuODIxIDc3LjM0MzRMMjU1LjYxMyAxMi45NTQ2QzI1NS44NTggMTIuMDc5OSAyNTUuOTg2IDExLjE1NzIgMjU1Ljk4NiAxMC4yMDc5QzI1NS45ODYgNC41NzA2MyAyNTEuNDIxIDAgMjQ1Ljc3OCAwQzI0NS4zNDEgMCAyNDQuOTA0IDAuMDI2NjY2NSAyNDQuNDgyIDAuMDc5OTk5NEw3OS45ODI0IDI0LjM4OTFDNjIuMTE1OCAyNy4yNTg1IDQ3LjY4OTMgNDAuNDM3IDQzLjAwNjcgNTcuNjI2MkwxOS4yODQyIDE0My42MDRDMjQuMDQ2OCAxMjYuMjEyIDI2Ljk3NDggMTE1LjcyNyA1Ni45NTMyIDExMC4zMDNaIi8+JiN4YTs8cGF0aCBmaWxsPSJ1cmwoI3BhaW50NV9saW5lYXJfMTI2M18xMjQ1OTApIiBkPSJNNTYuOTUzMiAxMTAuMzAzTDIyOS4zNTIgODQuODM2N0MyMzMuNDUzIDg0LjI3NjcgMjM2Ljc3NiA4MS4yNzQgMjM3LjgyMSA3Ny4zNDM0TDI1NS42MTMgMTIuOTU0NkMyNTUuODU4IDEyLjA3OTkgMjU1Ljk4NiAxMS4xNTcyIDI1NS45ODYgMTAuMjA3OUMyNTUuOTg2IDQuNTcwNjMgMjUxLjQyMSAwIDI0NS43NzggMEMyNDUuMzQxIDAgMjQ0LjkwNCAwLjAyNjY2NjUgMjQ0LjQ4MiAwLjA3OTk5OTRMNzkuOTgyNCAyNC4zODkxQzYyLjExNTggMjcuMjU4NSA0Ny42ODkzIDQwLjQzNyA0My4wMDY3IDU3LjYyNjJMMTkuMjg0MiAxNDMuNjA0QzI0LjA0NjggMTI2LjIxMiAyNi45NzQ4IDExNS43MjcgNTYuOTUzMiAxMTAuMzAzWiIvPiYjeGE7PHBhdGggZmlsbD0idXJsKCNwYWludDZfbGluZWFyXzEyNjNfMTI0NTkwKSIgZD0iTTU2Ljk1MzIgMTEwLjMwM0wyMjkuMzUyIDg0LjgzNjdDMjMzLjQ1MyA4NC4yNzY3IDIzNi43NzYgODEuMjc0IDIzNy44MjEgNzcuMzQzNEwyNTUuNjEzIDEyLjk1NDZDMjU1Ljg1OCAxMi4wNzk5IDI1NS45ODYgMTEuMTU3MiAyNTUuOTg2IDEwLjIwNzlDMjU1Ljk4NiA0LjU3MDYzIDI1MS40MjEgMCAyNDUuNzc4IDBDMjQ1LjM0MSAwIDI0NC45MDQgMC4wMjY2NjY1IDI0NC40ODIgMC4wNzk5OTk0TDc5Ljk4MjQgMjQuMzg5MUM2Mi4xMTU4IDI3LjI1ODUgNDcuNjg5MyA0MC40MzcgNDMuMDA2NyA1Ny42MjYyTDE5LjI4NDIgMTQzLjYwNEMyNC4wNDY4IDEyNi4yMTIgMjYuOTc0OCAxMTUuNzI3IDU2Ljk1MzIgMTEwLjMwM1oiLz4mI3hhOzxwYXRoIGZpbGw9InVybCgjcGFpbnQ3X2xpbmVhcl8xMjYzXzEyNDU5MCkiIGQ9Ik01Ni45NTMyIDExMC4zMDNMMjI5LjM1MiA4NC44MzY3QzIzMy40NTMgODQuMjc2NyAyMzYuNzc2IDgxLjI3NCAyMzcuODIxIDc3LjM0MzRMMjU1LjYxMyAxMi45NTQ2QzI1NS44NTggMTIuMDc5OSAyNTUuOTg2IDExLjE1NzIgMjU1Ljk4NiAxMC4yMDc5QzI1NS45ODYgNC41NzA2MyAyNTEuNDIxIDAgMjQ1Ljc3OCAwQzI0NS4zNDEgMCAyNDQuOTA0IDAuMDI2NjY2NSAyNDQuNDgyIDAuMDc5OTk5NEw3OS45ODI0IDI0LjM4OTFDNjIuMTE1OCAyNy4yNTg1IDQ3LjY4OTMgNDAuNDM3IDQzLjAwNjcgNTcuNjI2MkwxOS4yODQyIDE0My42MDRDMjQuMDQ2OCAxMjYuMjEyIDI2Ljk3NDggMTE1LjcyNyA1Ni45NTMyIDExMC4zMDNaIi8+JiN4YTs8cGF0aCBmaWxsPSJ1cmwoI3BhaW50OF9saW5lYXJfMTI2M18xMjQ1OTApIiBkPSJNNTYuOTUzMiAxMTAuMzAzTDIyOS4zNTIgODQuODM2N0MyMzMuNDUzIDg0LjI3NjcgMjM2Ljc3NiA4MS4yNzQgMjM3LjgyMSA3Ny4zNDM0TDI1NS42MTMgMTIuOTU0NkMyNTUuODU4IDEyLjA3OTkgMjU1Ljk4NiAxMS4xNTcyIDI1NS45ODYgMTAuMjA3OUMyNTUuOTg2IDQuNTcwNjMgMjUxLjQyMSAwIDI0NS43NzggMEMyNDUuMzQxIDAgMjQ0LjkwNCAwLjAyNjY2NjUgMjQ0LjQ4MiAwLjA3OTk5OTRMNzkuOTgyNCAyNC4zODkxQzYyLjExNTggMjcuMjU4NSA0Ny42ODkzIDQwLjQzNyA0My4wMDY3IDU3LjYyNjJMMTkuMjg0MiAxNDMuNjA0QzI0LjA0NjggMTI2LjIxMiAyNi45NzQ4IDExNS43MjcgNTYuOTUzMiAxMTAuMzAzWiIvPiYjeGE7PHBhdGggZmlsbC1vcGFjaXR5PSIwLjQiIGZpbGw9InVybCgjcGFpbnQ5X2xpbmVhcl8xMjYzXzEyNDU5MCkiIGQ9Ik01Ni45NTMyIDExMC4zMDNMMjI5LjM1MiA4NC44MzY3QzIzMy40NTMgODQuMjc2NyAyMzYuNzc2IDgxLjI3NCAyMzcuODIxIDc3LjM0MzRMMjU1LjYxMyAxMi45NTQ2QzI1NS44NTggMTIuMDc5OSAyNTUuOTg2IDExLjE1NzIgMjU1Ljk4NiAxMC4yMDc5QzI1NS45ODYgNC41NzA2MyAyNTEuNDIxIDAgMjQ1Ljc3OCAwQzI0NS4zNDEgMCAyNDQuOTA0IDAuMDI2NjY2NSAyNDQuNDgyIDAuMDc5OTk5NEw3OS45ODI0IDI0LjM4OTFDNjIuMTE1OCAyNy4yNTg1IDQ3LjY4OTMgNDAuNDM3IDQzLjAwNjcgNTcuNjI2MkwxOS4yODQyIDE0My42MDRDMjQuMDQ2OCAxMjYuMjEyIDI2Ljk3NDggMTE1LjcyNyA1Ni45NTMyIDExMC4zMDNaIi8+JiN4YTs8cGF0aCBmaWxsPSJ1cmwoI3BhaW50MTBfbGluZWFyXzEyNjNfMTI0NTkwKSIgZD0iTTU2Ljk1MjcgMTEwLjMwOUMzMS45ODc2IDExNC44MjcgMjUuNzkwMyAxMjIuODY5IDIxLjY2MjMgMTM1LjQ3MkwxLjc4NTE2IDIwOC40OUMxLjc4NTE2IDIwOC40OSA4LjEzNzExIDE4NS4yNDIgMzguODc4MiAxODAuMjcxTDE1Ni4zMzMgMTYzLjE2MkwxNTcuMjAzIDE2My4wMThDMTYxLjUwNyAxNjIuMzYyIDE2NC45NzkgMTU5LjE4OSAxNjYuMDgzIDE1NS4wNjFMMTgzLjU1NCA5MS42MDU1TDU2Ljk1ODEgMTEwLjMwOUg1Ni45NTI3WiIvPiYjeGE7PHBhdGggZmlsbC1vcGFjaXR5PSIwLjIiIGZpbGw9InVybCgjcGFpbnQxMV9saW5lYXJfMTI2M18xMjQ1OTApIiBkPSJNNTYuOTUyNyAxMTAuMzA5QzMxLjk4NzYgMTE0LjgyNyAyNS43OTAzIDEyMi44NjkgMjEuNjYyMyAxMzUuNDcyTDEuNzg1MTYgMjA4LjQ5QzEuNzg1MTYgMjA4LjQ5IDguMTM3MTEgMTg1LjI0MiAzOC44NzgyIDE4MC4yNzFMMTU2LjMzMyAxNjMuMTYyTDE1Ny4yMDMgMTYzLjAxOEMxNjEuNTA3IDE2Mi4zNjIgMTY0Ljk3OSAxNTkuMTg5IDE2Ni4wODMgMTU1LjA2MUwxODMuNTU0IDkxLjYwNTVMNTYuOTU4MSAxMTAuMzA5SDU2Ljk1MjdaIi8+JiN4YTs8cGF0aCBmaWxsPSJ1cmwoI3BhaW50MTJfbGluZWFyXzEyNjNfMTI0NTkwKSIgZD0iTTM4Ljg3OTggMTgwLjI3MkMxMi45MDEzIDE4NC40NzUgNC4zNjgwNCAyMDEuNjggMi4zMzYwNiAyMDYuOTIzQzAuODMyMDY5IDIxMC45MDEgMC4wMTA3NDIyIDIxNS4yMDUgMC4wMTA3NDIyIDIxOS43MDFDMC4wMTA3NDIyIDIzOC4yNCAxNC4wMTYgMjUzLjUwNCAzMi4wMjEyIDI1NS40OThDMzcuMDg3OCAyNTYuMjI5IDQyLjgyMTEgMjU2LjE5MiA0OS4yNDc3IDI1NS4yNDhMNzguNzcyOCAyNTEuMTczQzg2LjE5NjcgMjUwLjE0OSA5Mi4yOTI3IDI0NC43ODkgOTQuMjY2IDIzNy41NTdMMTEyLjc4OSAxNjkuNTFMMzguODg1MSAxODAuMjc4TDM4Ljg3OTggMTgwLjI3MloiIGNsaXAtcnVsZT0iZXZlbm9kZCIgZmlsbC1ydWxlPSJldmVub2RkIi8+JiN4YTs8L2c+JiN4YTs8ZGVmcz4mI3hhOzxsaW5lYXJHcmFkaWVudCBncmFkaWVudFVuaXRzPSJ1c2VyU3BhY2VPblVzZSIgeTI9IjE2Mi45MjIiIHgyPSI1Ny4yOTU2IiB5MT0iMjU2LjAwNCIgeDE9IjU3LjI5NTYiIGlkPSJwYWludDBfbGluZWFyXzEyNjNfMTI0NTkwIj4mI3hhOzxzdG9wIHN0b3AtY29sb3I9IiMyQUFDOTQiIG9mZnNldD0iMC4wNTYiLz4mI3hhOzxzdG9wIHN0b3AtY29sb3I9IiMyMzlDODciIG9mZnNldD0iMC4xNTUiLz4mI3hhOzxzdG9wIHN0b3AtY29sb3I9IiMxNzdFNzEiIG9mZnNldD0iMC4zNzIiLz4mI3hhOzxzdG9wIHN0b3AtY29sb3I9IiMwRTY5NjEiIG9mZnNldD0iMC41ODgiLz4mI3hhOzxzdG9wIHN0b3AtY29sb3I9IiMwOTVENTciIG9mZnNldD0iMC43OTkiLz4mI3hhOzxzdG9wIHN0b3AtY29sb3I9IiMwODU5NTQiIG9mZnNldD0iMSIvPiYjeGE7PC9saW5lYXJHcmFkaWVudD4mI3hhOzxsaW5lYXJHcmFkaWVudCBncmFkaWVudFVuaXRzPSJ1c2VyU3BhY2VPblVzZSIgeTI9IjkwLjcwNDIiIHgyPSI4NS4wMzI1IiB5MT0iMTg4LjQ2NSIgeDE9IjE3NC45MTYiIGlkPSJwYWludDFfbGluZWFyXzEyNjNfMTI0NTkwIj4mI3hhOzxzdG9wIHN0b3AtY29sb3I9IiNBQkU4OEUiIG9mZnNldD0iMC4wNDE3NDc4Ii8+JiN4YTs8c3RvcCBzdG9wLWNvbG9yPSIjMkFBQTkyIiBvZmZzZXQ9IjAuNTQ4OTI2Ii8+JiN4YTs8c3RvcCBzdG9wLWNvbG9yPSIjMTE3ODY1IiBvZmZzZXQ9IjAuOTA2Ii8+JiN4YTs8L2xpbmVhckdyYWRpZW50PiYjeGE7PGxpbmVhckdyYWRpZW50IGdyYWRpZW50VW5pdHM9InVzZXJTcGFjZU9uVXNlIiB5Mj0iMTU0LjU0MiIgeDI9IjM5LjU3MTEiIHkxPSIxODMuNzEyIiB4MT0iLTQ1Ljk2NiIgaWQ9InBhaW50Ml9saW5lYXJfMTI2M18xMjQ1OTAiPiYjeGE7PHN0b3Agc3RvcC1jb2xvcj0iIzZBRDZGOSIvPiYjeGE7PHN0b3Agc3RvcC1vcGFjaXR5PSIwIiBzdG9wLWNvbG9yPSIjNkFENkY5IiBvZmZzZXQ9IjEiLz4mI3hhOzwvbGluZWFyR3JhZGllbnQ+JiN4YTs8bGluZWFyR3JhZGllbnQgZ3JhZGllbnRVbml0cz0idXNlclNwYWNlT25Vc2UiIHkyPSI3MS44MDIxIiB4Mj0iMjQ2Ljk2OCIgeTE9IjcxLjgwMjEiIHgxPSIxOS4yODQyIiBpZD0icGFpbnQzX2xpbmVhcl8xMjYzXzEyNDU5MCI+JiN4YTs8c3RvcCBzdG9wLWNvbG9yPSIjMjVGRkQ0IiBvZmZzZXQ9IjAuMDQzIi8+JiN4YTs8c3RvcCBzdG9wLWNvbG9yPSIjNTVEREI5IiBvZmZzZXQ9IjAuODc0Ii8+JiN4YTs8L2xpbmVhckdyYWRpZW50PiYjeGE7PGxpbmVhckdyYWRpZW50IGdyYWRpZW50VW5pdHM9InVzZXJTcGFjZU9uVXNlIiB5Mj0iMTE0LjYxMiIgeDI9IjE1NS43NDciIHkxPSI5LjkwOTI2IiB4MT0iMTA2LjkyMSIgaWQ9InBhaW50NF9saW5lYXJfMTI2M18xMjQ1OTAiPiYjeGE7PHN0b3Agc3RvcC1vcGFjaXR5PSIwLjYiIHN0b3AtY29sb3I9IiNGNEUwODQiLz4mI3hhOzxzdG9wIHN0b3Atb3BhY2l0eT0iMCIgc3RvcC1jb2xvcj0iI0Y0RTA4NCIgb2Zmc2V0PSIwLjUzNCIvPiYjeGE7PC9saW5lYXJHcmFkaWVudD4mI3hhOzxsaW5lYXJHcmFkaWVudCBncmFkaWVudFVuaXRzPSJ1c2VyU3BhY2VPblVzZSIgeTI9IjQ1LjgzNSIgeDI9IjI1My45OCIgeTE9Ii01NS4yNjQxIiB4MT0iMTg4LjE2MiIgaWQ9InBhaW50NV9saW5lYXJfMTI2M18xMjQ1OTAiPiYjeGE7PHN0b3Agc3RvcC1jb2xvcj0iI0FCRjVFMiIvPiYjeGE7PHN0b3Agc3RvcC1jb2xvcj0iIzRFRTZCRCIgb2Zmc2V0PSIxIi8+JiN4YTs8L2xpbmVhckdyYWRpZW50PiYjeGE7PGxpbmVhckdyYWRpZW50IGdyYWRpZW50VW5pdHM9InVzZXJTcGFjZU9uVXNlIiB5Mj0iMTQzLjYwNCIgeDI9IjEzNy42MzUiIHkxPSIwIiB4MT0iMTM3LjYzNSIgaWQ9InBhaW50Nl9saW5lYXJfMTI2M18xMjQ1OTAiPiYjeGE7PHN0b3Agc3RvcC1jb2xvcj0iIzFGOTM3RSIvPiYjeGE7PHN0b3Agc3RvcC1jb2xvcj0iIzlFRTA5RiIgb2Zmc2V0PSIxIi8+JiN4YTs8L2xpbmVhckdyYWRpZW50PiYjeGE7PGxpbmVhckdyYWRpZW50IGdyYWRpZW50VW5pdHM9InVzZXJTcGFjZU9uVXNlIiB5Mj0iMTQzLjYwNCIgeDI9IjEzNy42MzUiIHkxPSIwIiB4MT0iMTM3LjYzNSIgaWQ9InBhaW50N19saW5lYXJfMTI2M18xMjQ1OTAiPiYjeGE7PHN0b3Agc3RvcC1jb2xvcj0iIzFGOTM3RSIvPiYjeGE7PHN0b3Agc3RvcC1jb2xvcj0iI0MwRUNDNyIgb2Zmc2V0PSIxIi8+JiN4YTs8L2xpbmVhckdyYWRpZW50PiYjeGE7PGxpbmVhckdyYWRpZW50IGdyYWRpZW50VW5pdHM9InVzZXJTcGFjZU9uVXNlIiB5Mj0iMTM1LjIxNiIgeDI9IjIyNC4zODIiIHkxPSIzOS45NzgzIiB4MT0iMTkuMjg0MiIgaWQ9InBhaW50OF9saW5lYXJfMTI2M18xMjQ1OTAiPiYjeGE7PHN0b3Agc3RvcC1jb2xvcj0iIzZBRDZGOSIvPiYjeGE7PHN0b3Agc3RvcC1jb2xvcj0iIzYwRTlEMCIgb2Zmc2V0PSIwLjIyOTUwMSIvPiYjeGE7PHN0b3Agc3RvcC1jb2xvcj0iIzZERTlCQiIgb2Zmc2V0PSIwLjY1MDcxMSIvPiYjeGE7PHN0b3Agc3RvcC1jb2xvcj0iI0FCRTg4RSIgb2Zmc2V0PSIwLjk5MzU0Ii8+JiN4YTs8L2xpbmVhckdyYWRpZW50PiYjeGE7PGxpbmVhckdyYWRpZW50IGdyYWRpZW50VW5pdHM9InVzZXJTcGFjZU9uVXNlIiB5Mj0iODIuNDY2IiB4Mj0iMTQ5Ljc4MSIgeTE9IjU3LjgiIHgxPSIzOC4yNTgiIGlkPSJwYWludDlfbGluZWFyXzEyNjNfMTI0NTkwIj4mI3hhOzxzdG9wIHN0b3Atb3BhY2l0eT0iMCIgc3RvcC1jb2xvcj0id2hpdGUiLz4mI3hhOzxzdG9wIHN0b3AtY29sb3I9IndoaXRlIiBvZmZzZXQ9IjAuNDU4NTExIi8+JiN4YTs8c3RvcCBzdG9wLW9wYWNpdHk9IjAiIHN0b3AtY29sb3I9IndoaXRlIiBvZmZzZXQ9IjEiLz4mI3hhOzwvbGluZWFyR3JhZGllbnQ+JiN4YTs8bGluZWFyR3JhZGllbnQgZ3JhZGllbnRVbml0cz0idXNlclNwYWNlT25Vc2UiIHkyPSI3NS4xMzI4IiB4Mj0iNzcuODcyMiIgeTE9IjE1My4zNDEiIHgxPSI3NS4yMzciIGlkPSJwYWludDEwX2xpbmVhcl8xMjYzXzEyNDU5MCI+JiN4YTs8c3RvcCBzdG9wLW9wYWNpdHk9IjAiIHN0b3AtY29sb3I9IiMwNjNEM0IiIG9mZnNldD0iMC4yMDQ2NDIiLz4mI3hhOzxzdG9wIHN0b3Atb3BhY2l0eT0iMC4yMzY1ODciIHN0b3AtY29sb3I9IiMwNjNEM0IiIG9mZnNldD0iMC41ODU1MyIvPiYjeGE7PHN0b3Agc3RvcC1vcGFjaXR5PSIwLjc1IiBzdG9wLWNvbG9yPSIjMDYzRDNCIiBvZmZzZXQ9IjAuODcyMjg1Ii8+JiN4YTs8L2xpbmVhckdyYWRpZW50PiYjeGE7PGxpbmVhckdyYWRpZW50IGdyYWRpZW50VW5pdHM9InVzZXJTcGFjZU9uVXNlIiB5Mj0iMTYzLjQ4NyIgeDI9Ijg3LjY4NjEiIHkxPSIxNDUuNTYzIiB4MT0iLTcuNjE3OTciIGlkPSJwYWludDExX2xpbmVhcl8xMjYzXzEyNDU5MCI+JiN4YTs8c3RvcCBzdG9wLW9wYWNpdHk9IjAiIHN0b3AtY29sb3I9IndoaXRlIi8+JiN4YTs8c3RvcCBzdG9wLWNvbG9yPSJ3aGl0ZSIgb2Zmc2V0PSIwLjQ1ODUxMSIvPiYjeGE7PHN0b3Agc3RvcC1vcGFjaXR5PSIwIiBzdG9wLWNvbG9yPSJ3aGl0ZSIgb2Zmc2V0PSIxIi8+JiN4YTs8L2xpbmVhckdyYWRpZW50PiYjeGE7PGxpbmVhckdyYWRpZW50IGdyYWRpZW50VW5pdHM9InVzZXJTcGFjZU9uVXNlIiB5Mj0iMTM5LjI5MiIgeDI9IjQyLjYzNTkiIHkxPSIyMzAuMjEzIiB4MT0iNjEuMjI2MyIgaWQ9InBhaW50MTJfbGluZWFyXzEyNjNfMTI0NTkwIj4mI3hhOzxzdG9wIHN0b3Atb3BhY2l0eT0iMCIgc3RvcC1jb2xvcj0iIzA2M0QzQiIgb2Zmc2V0PSIwLjA2NCIvPiYjeGE7PHN0b3Agc3RvcC1vcGFjaXR5PSIwLjEzNSIgc3RvcC1jb2xvcj0iIzA2M0QzQiIgb2Zmc2V0PSIwLjE3Ii8+JiN4YTs8c3RvcCBzdG9wLW9wYWNpdHk9IjAuNTk5IiBzdG9wLWNvbG9yPSIjMDYzRDNCIiBvZmZzZXQ9IjAuNTYyIi8+JiN4YTs8c3RvcCBzdG9wLW9wYWNpdHk9IjAuOSIgc3RvcC1jb2xvcj0iIzA2M0QzQiIgb2Zmc2V0PSIwLjg1Ii8+JiN4YTs8c3RvcCBzdG9wLWNvbG9yPSIjMDYzRDNCIiBvZmZzZXQ9IjEiLz4mI3hhOzwvbGluZWFyR3JhZGllbnQ+JiN4YTs8Y2xpcFBhdGggaWQ9ImNsaXAwXzEyNjNfMTI0NTkwIj4mI3hhOzxyZWN0IGZpbGw9IndoaXRlIiBoZWlnaHQ9IjI1NS45OTgiIHdpZHRoPSIyNTUuOTk4Ii8+JiN4YTs8L2NsaXBQYXRoPiYjeGE7PC9kZWZzPiYjeGE7PC9zdmc+;align=center;textDirection=rtl;labelPosition=right;labelBackgroundColor=none;rounded=1;fontSize=15;strokeColor=light-dark(#ffffff, #ededed);fontColor=#FFFFFF;" parent="1" vertex="1">
          <mxGeometry x="416.4211538461538" y="410" width="56.58586578736299" height="56.58586578736299" as="geometry" />
        </mxCell>
        <mxCell id="WIKi1naMGfM_hJrwJL8N-38" value="" style="group;labelBackgroundColor=none;rounded=1;strokeColor=none;fontColor=#FFFFFF;" parent="1" vertex="1" connectable="0">
          <mxGeometry x="160" y="508.19" width="81.29" height="73.57" as="geometry" />
        </mxCell>
        <mxCell id="WIKi1naMGfM_hJrwJL8N-34" value="" style="shape=image;verticalLabelPosition=bottom;verticalAlign=top;imageAspect=0;aspect=fixed;image=data:image/svg+xml,PHN2ZyB4bWxuczp4bGluaz0iaHR0cDovL3d3dy53My5vcmcvMTk5OS94bGluayIgeG1sbnM9Imh0dHA6Ly93d3cudzMub3JnLzIwMDAvc3ZnIiB2aWV3Qm94PSIwIDAgNDggNDgiIGhlaWdodD0iNDgiIHdpZHRoPSI0OCIgZGF0YS1uYW1lPSJMYXllciAxIiBpZD0idXVpZC05MmY1YTIzNi00YmY2LTQ1ZWUtODAwMC1iMDdhOTg3MzlmMjUiPiYjeGE7ICA8ZGVmcz4mI3hhOyAgICA8bGluZWFyR3JhZGllbnQgZ3JhZGllbnRVbml0cz0idXNlclNwYWNlT25Vc2UiIGdyYWRpZW50VHJhbnNmb3JtPSJtYXRyaXgoMSwgMCwgMCwgMSwgMCwgMCkiIHkyPSIzLjU5OSIgeDI9IjQzLjYyNSIgeTE9IjQ3LjczMyIgeDE9IjIyLjgwMyIgaWQ9InV1aWQtZmIxMzdkZTYtOGRmNC00MjEwLWIxNTUtOWE3YzMyN2E3N2I4Ij4mI3hhOyAgICAgIDxzdG9wIHN0b3AtY29sb3I9IiNjODdlMGUiIG9mZnNldD0iMCIvPiYjeGE7ICAgICAgPHN0b3Agc3RvcC1jb2xvcj0iI2U2YWQxMCIgb2Zmc2V0PSIxIi8+JiN4YTsgICAgPC9saW5lYXJHcmFkaWVudD4mI3hhOyAgICA8bGluZWFyR3JhZGllbnQgZ3JhZGllbnRVbml0cz0idXNlclNwYWNlT25Vc2UiIGdyYWRpZW50VHJhbnNmb3JtPSJtYXRyaXgoMSwgMCwgMCwgMSwgMCwgMCkiIHkyPSIxMy44MzEiIHgyPSIzMi43MjgiIHkxPSI0Ny42MzciIHgxPSIxNS4yOTYiIGlkPSJ1dWlkLWEzMWM2OTVmLTU4ZTctNDA2MS1hNGRiLTIxNzM1Njk2MzAzZCI+JiN4YTsgICAgICA8c3RvcCBzdG9wLWNvbG9yPSIjZTZhZDEwIiBvZmZzZXQ9IjAiLz4mI3hhOyAgICAgIDxzdG9wIHN0b3AtY29sb3I9IiNmNmQ3NTEiIG9mZnNldD0iMSIvPiYjeGE7ICAgIDwvbGluZWFyR3JhZGllbnQ+JiN4YTsgICAgPGxpbmVhckdyYWRpZW50IGdyYWRpZW50VW5pdHM9InVzZXJTcGFjZU9uVXNlIiBncmFkaWVudFRyYW5zZm9ybT0ibWF0cml4KDEsIDAsIDAsIDEsIDAsIDApIiB5Mj0iMjYuMzc5IiB4Mj0iMTguMzk2IiB5MT0iNDguNjAxIiB4MT0iOS4wMTkiIGlkPSJ1dWlkLTM3OWNmMDI1LTc3ZTItNDA5OC1hNTQ3LTZmNGQyMTI3ODAyMCI+JiN4YTsgICAgICA8c3RvcCBzdG9wLWNvbG9yPSIjZjZkNzUxIiBvZmZzZXQ9IjAiLz4mI3hhOyAgICAgIDxzdG9wIHN0b3AtY29sb3I9IiNmOWU1ODkiIG9mZnNldD0iMSIvPiYjeGE7ICAgIDwvbGluZWFyR3JhZGllbnQ+JiN4YTsgIDwvZGVmcz4mI3hhOyAgPHRleHQgZm9udC13ZWlnaHQ9IjcwMCIgZm9udC1zaXplPSI0OCIgZm9udC1mYW1pbHk9IlNlZ29lVUktU2VtaWJvbGQsICdTZWdvZSBVSSciIGZpbGw9IiNiNGI0YjQiIHRyYW5zZm9ybT0idHJhbnNsYXRlKDAgLTE4LjM0MSkiPjx0c3BhbiB5PSIwIiB4PSIwIj40OHg8L3RzcGFuPjwvdGV4dD4mI3hhOyAgPGc+JiN4YTsgICAgPHBhdGggZmlsbD0idXJsKCN1dWlkLWZiMTM3ZGU2LThkZjQtNDIxMC1iMTU1LTlhN2MzMjdhNzdiOCkiIGQ9Ik00Miw0Ni4wMDNWMS45OTdjLS4wMDItMS4xMDMtLjg5Ni0xLjk5Ny0yLTEuOTk3aC0xMmMtMS4xMDUsMC0yLC44OTUtMiwydjMuMTM2aDBWNDhoMTQuMDAxYzEuMTAzLDAsMS45OTctLjg5NCwxLjk5OS0xLjk5N1oiLz4mI3hhOyAgICA8cGF0aCBmaWxsPSJ1cmwoI3V1aWQtYTMxYzY5NWYtNThlNy00MDYxLWE0ZGItMjE3MzU2OTYzMDNkKSIgZD0iTTMwLDEyaC0xMi4wMDFjLTEuMTAzLDAtMS45OTcsLjg5NC0xLjk5OSwxLjk5OFY0OGgxNlYxNGMwLTEuMTA1LS44OTUtMi0yLTJaIi8+JiN4YTsgICAgPHBhdGggZmlsbD0idXJsKCN1dWlkLTM3OWNmMDI1LTc3ZTItNDA5OC1hNTQ3LTZmNGQyMTI3ODAyMCkiIGQ9Ik0yMCwyNEg4Yy0xLjEwNSwwLTIsLjg5NS0yLDJ2MjBjMCwxLjEwNCwuODk1LDIsMiwyaDE0VjI2YzAtMS4xMDUtLjg5NS0yLTItMloiLz4mI3hhOyAgPC9nPiYjeGE7PC9zdmc+;labelBackgroundColor=none;rounded=1;strokeColor=light-dark(#ffffff, #ededed);fontColor=#FFFFFF;" parent="WIKi1naMGfM_hJrwJL8N-38" vertex="1">
          <mxGeometry width="61.41668078206235" height="61.41668078206235" as="geometry" />
        </mxCell>
        <mxCell id="WIKi1naMGfM_hJrwJL8N-17" value="Semantic model" style="shape=image;verticalLabelPosition=bottom;labelBackgroundColor=none;verticalAlign=top;aspect=fixed;imageAspect=0;image=data:image/png,iVBORw0KGgoAAAANSUhEUgAAAQAAAAEACAYAAABccqhmAAAABmJLR0QA/wD/AP+gvaeTAAAgAElEQVR4nO2daXAcx5Xn/92NvnAfJA4CICgKpEiCIilKNj2kRHnt0IoiRVmSZxS6/cGSZmPXsTMf5os3xp92w7uxH2YnrI3YXUuaiQnr8tpaSSuToiWHJa0lkqZoHiIJ8BAIkIBBAMQNEEB3o7v3A1BAVXVVdR15VXf+Iiixq7NevszK9/Lly+wiIJFIJBKJRCKRSCQSiUQikUgkEolEIpFIJBKJRCKRSCQSiUQikUgkEolEIpFIJBKJRCKRSCQSiUQikUgkEolEIpFIJBKJRCKRSCQSiUQikUgkEomEFgHeCjilu7u7Kp1Ov5hIJB5MpVKbkslkbSKRiC0sLAQzmQxv9YiSzWaLtn6R6w4GgygpKclEIpH5cDg8Fo1Gu2Kx2JFAIPDKpk2bphmpSQRfOIC+vr7a6enp/zo7O3twamqqPp1O81aJGCIP9EKun0bdwWAQFRUVw6Wlpe+Fw+Efd3R0jBGvhDBCO4Du7u57pqenfz4xMbEjlUoJrasZ0siKr24ACIVC2ZqamtNlZWUvbtmy5RRXZSwQ0qh6enrWTU5Ovjs6OrrDD2F9MQ/0Ym273bqDwSBqa2tPlZWVPdbR0XGdslqOEc4BXLp06WeDg4P/LplMBs3KxGIxVFdXo6KiAuXl5YhGo4hEIigpKWGpKgIBe92XzWaZD1Yv9bm91+l9XsrbudeJfCdl0+k0UqkU5ubmMDs7i5mZGUxMTCCRSJjeEw6HM/X19S9v3779b21XxABhHMDVq1cbxsfHT4yNja01+j4cDqOpqQkNDQ0oLy/P+d6uMbrFSj4rg2Epn7cTcHqdhD5ey05PT+PmzZsYGhrCwsKC4X21tbW9q1at2tXe3j5suzKKCOEAenp67h8YGPjt7OxsVP9dNBpFW1sbmpqaEAwaBwU0jF8tk9XsTaMeUZ2A09ncqXyeZdPpNIaGhtDX12cYFZSWlibq6+sf6Ojo+IPtCinB3QFcunTpyaGhoTcSiYTGuoPBINra2rB27VpTwwfIGL/6YdKOJOxC2hmwjFKcLnlYLh1Ylk2n0+jr60N/fz/0uaxIJJJZs2bNkx0dHb+yXSEFuI72S5cuPXnjxo039Rn+0tJSbN26FWVlZZb3O1mD50MUw9dD0hGQdAL5ZBWqUbspOzMzg4sXL2J2dlZzPRwOZ5ubm5/s6Oj437YrJQy3Ud/T03N/X1/f7/Uz/+rVq7F582aEQiHL+0mF6KIavh5SjsCuHH05t5EArfKiyLZbNpPJ4OLFixgZGdFcD4fDmebm5m/zWg5wGf1Xr15tGBgYuKZf87e2tqK9vT3HKPWdTMJo/WL4ekg4Are7ErTv8ZtROy2byWTQ3d2NgYEBzfXS0tL5tWvXtvFIDJovrikyNjZ2Qm/8LS0taG9vB7AyQI0GajEbP7Coux399X1o1p9O66YJTflOZNMs297ejjVr1miuz87OxoaHh/9oWxBBmDuArq6un+m3+urr65eN3wqvA8Su8fgFL0buth+c3kezvN+epaLv7bffjlWrVmm+GxsbW3fmzJl/YK4Ty8p6enrWXbt2rVt9yKesrAx333133jU/4O2B+22w0Aydvd4rlwLeZabTaZw+fXo5MZjNZhGJRDKNjY1t27dv77ct0CNMI4CJiYl3FePPZrMIBALo6OgoSuO3mr2dGgDrvvHzUoAGbqKWUCiETZs2IRAILD/vZDIZnJube4+KkiYwcwDd3d33jIyM7FAP8La2trxbfYD4xq8sLdR/jCCxDs+ng9t7ad/jx/U9bcrLy9HS0qK5Njo6evfly5d3sNKBmQOYmpr6ufowRCwWQ1tbG9U6aZ0QNNqlsDOD23ESJPRjdZ8oRi2CDm71bWtrQzS6kg/PZDIYGxt71ZUwFzBxAAMDA6vGx8c1Xq2trc3yhJ8CywGtxsyYSc7gtBwCrz7jKV8Eh2EXta7BYBBr1y7mxJWxNT4+vrO7u7uKhS5MHMDY2Nh/Vp/2U37YQwuv22SKgbPeNSBZn8zyi62DmsbGRk0eLJVKBSYmJn5KvWIwcgAzMzOPqI2rsbGR2uyv3OMlycZ7u5BU/aza4KfZlyZenG5jY6Pm2q1btx4noVM+qDuA7u7uqqmpqXr1NX1jjcjXmSSz6E7qZQkJRyDa2t6pfL+VNcJsfKr/Xl+vMRHMzMw0nD17Nn+G3CPUHUAymXxRn/yrqKjIe58bA/e6WyCS8avxqpvfs/yiY2bYTiajioqK5WRgNptFKpUKpNPpH1JTegkWDuBB9eeamhoA5Gdw0bcKSSC6E6Alm3dZVtFmVVWVRl4qldrvWrhNqDuARCKxSd1ZFRUVttbgrPCL8SuI7Oj81pcKdhPCtNFHxslkcjPtOlk4gFr1ZzsHf5wi6rYXLVge+hEly++lLK0Z3G79dtHbRjKZrCOhjxXU36KZTCZj6s/xeNyyPKu1p1+NX436GCnN+9zWwwoj3ezqK1LbYrEVU8lmszm2QwPqDiCdTmuijHA4TLvKvBSC8SuINIAVnOhkp6z6e55tpdHXapmRSESfA8j/IxmPsHAAAFYenJ39f7uIltjihZuBKVIUQCsM95uz0NsGC/2pOwB9I6wMsBCNkxUsnIBb2XaSvn4zVlp6qCkIByAShe5gaA9kM/lmdcqZ3ZtM6QAskAdVjKER2rtdgxeisZLEqF9Z6yuMAygWA2WBm4HPO2tOOnFIs34niOyAAA45ABLI2d8Zog9Cv6E4i0LoV2EiAIl7SKzBac3Afp7Zre4TSU8vFLwDKITZ3+3AEH0N7AUSbWOReHOqZ9HmAIoZUYzUTzO7HXgl1vyEEDkA0d7QQhqZCbePE339urQQiYKOAFg5C9EHgl9ndtH7lTQ8JreCdgCkKLaBSAMjZ+E1eVmIM7vMAXCgGAycx8xu1+Bp1S8KIrdHiBwADdThlKid73f8lGQrxGiBBL6KAMzWSH5/CKzgvSUljVC8seoLByBapxUKsl+NoXF4iPTOBimEcAByINKB1a/0imlmL7S8BhMHkO/XZH7c2xcBEQeUyDj55WOx9G3BJgELAd59V4gze6G1xytCLAGKFZ47JH4etHqcvH3IL7BqR0E6AFGWFIUyGO3AKlrwc17DDgWbBCxEYyjENulhbQhuk2wSd8gcgAV+1l1UeIfqPJc/Ii69CnIJYBfRHgZLivUVWH6CRV8WpAPIZrNCettCQNQ+9fvMzisy8rUDEHUw+hkWb8kpRngvfcwQOgcgWmcVAvkOZUlWoPFyEtHgGgH4tdNEhkaf+j28JoEIOtCAuQPwGhGIssfPi0IdiLxhdb7ArR608HUOoBApFgMv1vMFokQ0CkLkAIppZhfp4Ys2GL2QzRbGP9TBGhkBEEYOQjrIfqVDwToAWlGFHIh0sOrXYupzmQPIA+3lQjENNpawOF8gdyucI0QOgCWi6cMTkn0h6kEXiTXCRACkZnb9QZdiSS7SRhp2YSKMA7CLHIh0kP0qBkWfA+C5bTg2OIezXwyi58IEbvbfwsxkEgBQVhVBfUspbttag+17GlHbECdeN22y2SxGB2dx5vMb6D4/iqH+GdyaTAEAyqrCqG8pR/vWWmzf04S6xlLO2rpjuX0XFtunPL/yqoi2fQ3+bB8NqMfH77zzjsai9+/fb64MpX8kNF/ZscE5HHn9Crq+HMk9MALt50AggI5dq7Hv2Y2oqY/Z1oE2Vo5zdHAWh39xCRdODBu0T/MfBAIB3PkXDXjo2TtQW7/i6GiciSclc3RwFodev4QLJ4aM26ciEAjgzm/VY//Td6CmPr8jZ92eI0eOaD4/9dRTVG1UqAiAx5r91Kc38MFrl5BKpLW65AydpevZLM4fH8blM6N45IVNuGtvEws1XYeGJz/5M95/tRPJnPap/6LNm3x1dBAXT93EYy91YOfeNa7qZcXJT/6M9167YN4+3dVsNouvjg2i69RNPP5iB3beZ90+v2b37SKUA3CCE2dhVvazd3vx8Vvd2rKq/1qRmFvAr14+j+nxBPZ+b50tPfLpSJpP3r2KI29c1taj+Yt5nYn5NN7+2VeYGpvHtx9dT1w3Evz+3W4cefNyznWDDcecK8n5NN5++StMjSXw7e/dRkU/t7B0OEFmNQnGqU9vaIw/C2XWt+78bFb7gI68fgVn/nAjb33KUVWzP6Q5+cmfjY0/i8VGmM6RmngAh1+/hFOf/Zm4fl45+Ul/jvHntsrgSnap+UscfuMSTv9hgJKWzmEdbTBzAHYHOo01l77s2OAcPnjt0sp3dgx/WUZuufd/3oXx4TmmBm7F6OAs3n+1c/nzstYWs77e8NWf3n2lE+M35yho6o7RwVm895pB+zQYHTwykpbFO6+cF6p9LKHuAET8kcaR168glUirZn1zlg3fog2J+TSOvHGFrJIeOPyLS0gutw+2Zn2zT8DicufwLy7lXOfFodcvLq/5jQ3fetbXl0vOp3H4DXHaxxIhlwC0HEY2m8XY4Bw6vxyxHe5bGT6wsnQ4f3wI48P8Z5HRwdnFbD/gONzPKbdkOFkA544PYYxg+9w+Y3X7nIb7puUAfHV8kGj7SMBi4hTSATjBydZLNpvFmc9vIJvNWJddlmsue+Xbxf9mMll89cWgLV1ocvrzG8gsj3yXhr90WX01k8ng7Bf5cx20OfX5wGL7NNgJ961dRiaTxZkv+OcCWC8bmToAmo2ym2TruTBuLkPR0casbzSgui+MudafFN3nRi31t2X4WeNy3edHLetmMWivavrYyaxvddfi1a8v5LaPRptEyRUBAv8YSL91l+/nona3BIf6b5nKyKuT6r9GXw5dN5bNkqG+acPr+db5+hnfqMzgdWPZLBnqm4GTBF/+K0tXs4ps74iW87JCmHMArDptbjqlqxfImwuARRnV5VtTSQ+akWFW3z6LT+pLecsBmNHJ5sGt6YTmMwnDV5ix+fxEeX8gCZg7gEwm4/kAj9eywNJzJzDr5y3DCTsGbWfWt7ibCdaRn+FVi0+6q1njcvpflLKkYM8BsMBO58UrwrbX+aY7BUuX9YnAsqqIM4UpUFYZthfum6zzDYouU14ZNq2X1cAtq4zYyu5btkj1pbpceWXEl7O4F5idA1AnOWgd9rFDfYv1L8HsGD6gNvyVcg2t5UR09EJ9i6KDQRtyDB+5ZQzvXvzU0FpBREcvz7S+Wd/HBolA41o1jTd6wiI8P9YUVAQA5B9c6ztqjO+D/XDfzEHcvrXOppb0aN9WB/tJPuO1sqE5ZYH2OwVon0YHBy2yMHzlmw0CPD/WcHMANKMAq/Lb9jTm5AqMZnPNlwbhvp5gMIBtexoc6UmDHXvWaNtnM9w3NvyVhgeDAezYze6Xj2Z/duxpwmLz3IX7hmWQRTAYwHZG7bOC9bZgwUUA+ahtiKNj12oAbtb55g/kzt2NqFnN/0UhdY2luPNbDY7Dfe2nbE5zt+1pMv39vBsH7XYvvK6hFHfuWnG0bsN9/d3bdjcJ8fxYwyUHoP7OiRyn9Zrx4DPtCMdCsBPu5zP8LIBIvAT7ntngSD+aHHh+81L7FJyH++or0XgJDjx7h+36rYw7k7E+hamXY8SB5zYjHA15CvfV30RiIRx4epNtvZzoKjq+igBIOYGa+ji+94LBA7cZ7quKIhDI4rGXNqN6lThvB6qtj+P7L22F23BffTUQAL7/b7aiepX27UA8T7PV1sfx/Re3Wupvx/CzABAA/vKv7+T+/HidBOTuAGg32kz+jvsa8eAz7UuF4CjcV74JBLLY/9wd2HEv/7Wjnp33r8H+53KdnF3DV4z/wHObsGNPE5EojiR339+Mh5/dBCPDz+fy1O17+NlNuGsP/bce2XWarJ2pMCcB7eL0wI/VPXsfWYfKmhj+7ysXMT+/ACujB7RDKBovwWMvbRHO+NWD5l89uh5VtTH8n/91fql9y6U0/9NdBQDE4iV4/K87cNe95IyD9ID+9vfWo6Imind+fg6J+bRJKeMsSDQWwl++dKdl+3huV7NCiN8COD7F58IJmLHjvka0barCR29+ja+O5r5UEtAafjAYwLbdTdj3zEbuYaMeo3MWd93XhHV3VOPwG5dw9uggln8JaWL8wWAA2/c0Yv8zd2jCfqv6aGBX9t17m7F+cy0OvX4RZ47eUN1nbPhKtv/A05scPT+/Gng+qL+B8+2339b03MGDB40VcWjQbhxAvnvGh+fw1dFBdJ8fx1DfDG5NJpENAOVVYTS0lqN9ax2272lC9Wr+60U71/SMDc/i7Bc38PW5UQxen8bMUvsqqqJoXFuB27fWYsce+9lwkolZEmXHhudw5osBXDk/guH+GUxPJJbb19Bajg1bVy22z8Cxue1T0mUPHTqk+fz8889TtVFhHAAghhNgJcMK1qGnGxk0jd9pebtRJg25TsvmK3fo0CFNmR/84AfyteCkyru9x0gG4N4RkAoneRm/iMh2uIOJA6C9VuThBBQ5QK4j4LWzwUoOj/ZZ1cnb+HnX7wUhkoD68iwM2sssbrUVRmt54OdB5iREt1tepLJ+RqglgALJLL+burw8fJLOQIQsO+/7ihl5DsABTpyG0QxOw+GIOuhpGLHZd7SThYVGQeYAFJyGYG6XAm6z2qz/XUIeeDF+0YxTNH3cwLsNwuUA9PcaGWW+mchrdr4QHUG+5+D1exL3iLjkIVkvb2M3QsglgL7TWGf5Cy0a8Dp7izhwaeKkvU5+3SgizB0Aq/CchBMA/BMNkFqDk7rfL1uhotTDqz5uDoCFYYlw6IcUIoXTNOoWIUS3ulaocMsBsDj15+U+IzmA+Pv8JAdvIRiCiMlLkRAyB2CGFycAkDFet7L8FhKzDP29RDc8210IjoWrA2C9tieZ3NMf+BEphBVRplsKJUS3q3PB5wD0+MUJ2D0Ewyq3IaJsN/c6zaL7KRfiB4Q4B8DDCQBaY6W1Bie57KANDeN3c3qQF6LpwwLuEYAXvBz/dXq/W/wwqLwavqgOStRISSSEcQBes/xekla8t/h4QuMEIIl6Cwl9W0WKioRxAIC1MdI6/quWXWyOgMTsXSiGTHP7VOQ+EiIHoC7Hc7+/EB0BzSy6X7YKSVNIZwuEPArMe7/fT46Al2GIbPxe4bUs4oFQSwA1Iuz3i+AIeBssbVk0cGrAoiQL1VEwK4R1AIAYTkCRBdBxBMVyQtDtvX6IGEhSkElAr4NGBCegyAOcOQJ5QtD7vU5k0V4S+dm5GCFMEjCfDJFe8iHqIBAllPV6L49QmAZ+0J9LEpBHlp/GEWAjWOcL/LaEoCWTplwW8nltHXLJAfB0AgCdI8Bm8kg7BJazColMP8vdAhHrcEpB5gAU9AODhRPgdQTYqn4/QGKdXchbhfkQTR8zuOYASDgBr4PMD3v9LCF1yEV0Ayj25J8C923AfE7ArOOL8dAPKfL1KS35tO71u3Hy1F8IByDCVl8hOQKes5soW4U86/FDHygIcxRYBCegyALEdgQizNSk5clkIR+EOgfA2wmMDs3iqy8GcbVzHMP9tzAzmUQWQHlVBPUtZWjfWovtu5tQ2xD3VE8+aAy4hYUMOk8O48LJQfR3T2JseBapZAYlkSDqGsrQensVOu6px+ad9QiVBIXQmUadohkzb324LwH08Dj0Mzo0iyNvXEHnlzdXDqGovp+eSGB6Yh7d50fx0S+/xtZdDdj/7EbUrHbnCFhv5R376Dp+9043psbnVq4v/T+VzGCwbxqD16fx5Sf9qKqN4l8/sQHf/M5a2O1Gr+3hbQRWFHqyUDgHALA99HPqswG8/1oXUsnFd9MZbBrmyD53fBBdp2/i8Re2YOfeNYb1i8D0RAK/+G+ncbVzVHM9R7vsyl8mx+bxq/95Dqe/uIHn/vYulFVGLOvgZfyFMPsbwVpH57EeI0gMrHwyPn2vB7/+HxdsG79yJQsglUjjl//9HD59/+pyXaS20EgwfnMOL//9UY3xK7rnXlj5RvnblXMjePknRzE5Om8on0RbRV73u6nHj9ECdQfgxTho7kef+mwAH7399WIZ5Mzz1ldUhvPhG5dx6v8NCGH8ig7zcwt49acnMDY0u3gd+Q0f+jIAbg7cwqv/5UukkumcekjoyhLez0ZUhI0AFEgNNrWckRu38P5rXbYMHzA2fHW5917rxPjNOU1dtCMCq3o++JcuDPXPaHW30N+41YvfDPRO4tAbFzX1ktCd5b0s7vHj7A/4wAEAzsNNI+PIZrPIZDLIZDI48uYVJJPq99GbG77G+E1cRmI+jQ/fvOJYHy9/zBjoncKJ3183nvW1f7E0fPU3nx/pxWDftC+NX3TcPmdSMHcAJAaAl04bHZxF58kRtdTceqCzl2yeyADA+T8OYXx4LqcMaz794CoyasVshvsw+EZpeiadxWcfXPWsm1/OCZA0PN4Gng8uOYB8DbfqMK//HvvZo0NL9TsJ93PL6OOATCaDs8cGPenmlVQyjXN/HFRUchzuaxKBuoJnj91AesF934sw2GmgjEknBi5SX3BZArjpNP39bjuxp2sMXsJ9qzig+/xozrcsuf715OKOhodw38TnYX4uhf6rk6708jrgec7+os/gXuG6BOAxMIb7b2llwHm4b3AnAGBQJ5s1Q33TOc7L3PCBHAdhWHjl4uBSYtEJohu/Prp0MxmR1oulg+F+ECibZfumn9np1OJ9GiE5f8n9yurK0qVbU0nbetBgZioJN+t884LacjOTCUf68DJ+0jJYwlpfIV4KSsIJAPaPAOcavx0zNykn0PhSmm/b8E0L23Ei5rA0XKNyrBJ/NGZ/1jBJApIs51VGqXK01STmNV8A6NeGucZfXhm2rywFyioizmZ9i3Df6OvyqmheHUg/R6drcBGNTGSEOgdAYt2TT0b9mlIHs749w1fK1beUO1WXKA2tFQZXdUZtmhTInzNozNM+t7Oo1TrcqSw38N4qNJPPwpkJ5QAUSM0iRnLWd9TA/qyvlmdu+ArtW2vdKUuItbdXIRINLX1yYvgr5cyIxUNoWV9l+F2+LS+7MziP2Vu05QLr3QVmDsBpw0h1gr7e7bsbV94nCPuzvoFkzadAMIBtf9HIfKtIXU9JJIhtuxo1upkn+azDfU25bBY7dq8xfE+A1XYuy+ctQ393MDsI5PZeknoAQG1DKTq+We853Nd/2r670fT9APlmQS9/9Ow9eBsCgYCtbT07ho8sEAgFcP/B23NCda+HstT9w+N+nrO/V4dJCiGXAGpIdowi66GnNyBsECqvlMtv+FB9isZC2PfkRiI6emVNWyV2fbfVcp2v/ZtBmSXDV1p830O3oX5N2eK3hAeqn4zfqXyvkVHR5gCMINkZ1atjePSHm2C4ALAR7qtdQSAAPP5iB6pXxYjp55VHnt+CprXqhKCTWV9bpmV9FQ48vWnxW8ID0m9hv7o+uwbuJpHJMhrwjQMAyM4+d93bhH1PbVDJth/uKwQCwP5n7sCOPU1EdHKD0eALR4N44T98A6saS+E03FeXqV9Thhd//E2ESgIFZfx27vXLDO4V5j8GItEppDp278F1eOLfblUtB5ZrgFm4rxCNhfDkj7Zh78PriOhihtuBWFUbw4/+025suHOVo3BfYdNdq/Gj/7gb5VXWrwRzCokxQML4nfYrC2Pm4TB89W8D6mUA3l/fvePeJrTdUY0jb13BueNDOQ9B/0iCwQC2727Evic3Egn7aT708soIXvr7XTjxSR8++tVlTGhe75U74wNA7epSPPjEBty9t8X2S0HtwtL5kzRiVslCHnD7LQApAybhTGpWx/HUv9+GB5+cw7njQ+i+MIobfTO4NZlEILBoSI2tFbh9aw127G5C9Sr7bwPmPRACAWDXd1pxz95mdJ2+ic4/DeH6lXGMDs8iMZ9GNF6CuvpSrG2vwpZ7GrB5Rz2CIfL/JgJp4+fdr6RRRyYs8f2PgRQZgHdnUlsfx/2PrMP9j6wzLaOvwy8DMVQSxNZvNGDrNxqWr4kc1uZEYj7aLfDLmAAE+YdBSDgBdV0k/1WffANR5H9ByAiWg9OqLid6+Mn4Ra7HCO4RgAJJ43XiUEgPLtEcAo/BRfrsBs/7Ra/PK8I4AAXS0QBrzOql7RhEGegk9RBht4DlPSz3/xWEcwAAnRmc98zst5nBzQEWnvWTvJ/Ws+K1vWiFEDkAkvflk8fbEYiCKCE6DZk8jN/N7M3b+AEBIgA7nUArqVfIzoD24BLR8L3KyHcvi2UPa5g7AC/rJNIG6+eoQLQchwhy/ZQwFMWZcI8AnEAqQWgkFxDLEYg2q9DUh5Xxk9qW9HqfSM9WiJeCupFF0xHQkm9Wl6j4ZRnh9RSdKHkqHjBPAop86MdIvts6/Dw4RD0hSCOLLsr2KS+4/RgIYH/ox0sdCsuvExPsQXpFhFNvrLPoIm4VspKvwDUHIHI0YDdJI1LewAk8HBipV4gB/jR+r3kKGjBzAFYGRcqInDgCWvvgojoEnmG9PCQkbsQoxEEg0jO4ciiDhzHyOgqcr35eskUzfhHh2SahtgFJHwEWaXvPDwNXpHP8tGTymP3dLn1YjBmhHABAd+CI4Ah4Imp2n5VMWsYvUmLTKUwdgLpxdhsqjwHbh2eUIfIJQa9yRJ7BvcLlHIDT+4vl9F8+RBtQftkKc3vGn6QOoiLcEsCIQjn9lw+/DDa/GT6PzL1fnqUvHICC6Kf/nMj3GyIcFHJyjx+XQ8ruFUt85QAUeJ3+c3JPoSCC4fNIpBXL7wrkbwEc1MXrbAFLeJyNF237sRAduRm+/YdB1LIAcr8rcFqmEBwCrzW9iIeEiu2UoO//YRAn8ljtUYvsFETYpxdBB9IySBl/0eUASEcDImzv8T4ObKUDT1miGr5XOX5eMvjqtwBOOloER6BH1IHil209WnJ5Gb8I44F7BKAmk8lQe+8fIJYzYAmvgSbaD5NIy/G78QMCvhSUxaGfQnMEogwmBT8YPmlZpOotuhyAGcVy+s8Oohm4GX5ZSvBOGIqEEDmAfPfTNFIRogI/DwY8iykAAAd1SURBVCYWuos26xdC6K8gbASghoWR0owKRHvoJBDhhCAPWYVk/IBPHIACq9na6WEfER8sDVi2s5gPCbHsZ185AAXWYbv69+B+yBmQgodjE/WsQCEaPyDAS0FJyPRqlF4eUCE5BN6RjIizvlc5vPs0H9xeCELjTT9mMllvS/nFKYgyOEWd9UnKERUu5wACgQCVHwSJkNFX62GESG8q5k0hnxA0u1+kMwAAAwcQCoWQTqeXP6fTaZSULFZL4wiwvjxvZ6BHVGNkieiG70WWfjJywsLCgua+UCjkSgcnUHcA4XA4k06ng8BipyQSiWUHoKAk2eTpv8LGDycE7Z5UpaFLIpHQfI5Go2mTosQI0q4gEonMq3+lNzMzs/yrPfV1gP4AkbMve4yeMw35JGVZ/bEjwy0zMzOaz9FodM61MJtQdwDxeHxM/XlqasqyPG1DpT0gJYuw6GM38s0MO5PJUFnzO7lXbxuxWGzUk0I2oL4EiMViFwG0KJ/HxsYsSq/g99N/xYgIpwPdOgWvkNgqHBkZ0chZsh2qUI8AysrKPlR/Hh4ednQ/q9laRgbuYN1vykztNkTXw9v41QwNDWk+l5aW/oaIYAuoO4Dq6urXQqHQ8gOanZ3F+Pi4YzksB5nXQVXo0OwbqxCd9D8vLoLxK/ePjo5ifn5++Xo4HM42Nzf/syfhNqDuAO65557JmpoazbR/7do11/J4GKV0BuT6wGmSjUa/i3hOoLe3V/NdXV3d4Pbt2295qsAG1B0AAFRVVb2n/tzb26s5G+AGXgZJIuz0A27b6DWLrpdDGhGNf2FhAb29vZp+qq6u/rVXHe3AxAGUlJT8OBKJLLc4mUzi6tWrRGSLYIR+dwpO9Cdl4Pnkk4akXNK7Bd3d3Ugmk8ufo9FoNh6P/8RTJTZh4gD27ds31tDQcFo9ULq6ujxHAWpEMzxaBkJbJ9oGnk83WrJ5ytLnMtSfk8kkurq6NOUbGhq+fOCBByZJ6WwFEwcAANXV1S+qjzbOzc2hs7OTeD2iGJsZ+QyM5h879fPqD5rySckxk2W3T43u7+zsxNzcynmfUCiEioqKHxJR2gbMHMB3v/vdU83NzafU1y5evOhqR8AuIjsCWohm4Gb4KaIgsfVoVG58fBwXL2q3+pubm088/PDD54kobgNmDgAAKisrH4tGo8t7Oel0GsePH0cqlWIyGEQyALf4xcDNYKGnU/lW/Uli69FIn4WFBRw9elTjXOLxeLqmpuZRzxU6gKkDeOCBB663tra+rB4Ek5OTOHHiBLNBLLqx+N3AjWD9bK3qd9KnJPQ10+fYsWM5R39bW1v/cd++fTc8V+oALudf33rrrZ4bN26sU1/bsGEDdu7cqSnH8nguq7r8asROYdlOkgeEFGgZPwCcPHkSV65c0Vxrbm7ufu6559o9V+oQphGAwtq1a3dVVlZqfvt45coV/OlPf8pJmrAaSKRmqUKcwe1Cq520Q3SjukjIMbpmZPxVVVXz1dXV3/JcqQu4/QLmd7/73X2XL1/+dH5+PqjurNbWVuzatSvnnQEAnx/s6OssdCN2Cs2Zkna9tGSarfmPHTuG/v5+zfV4PJ7ZuHHjvQ899NAxIpU7hOtP4D766KO/unz58i8TiYRGj8rKSuzevRvV1dWG97H6hSDruv0Ab2Ol5YBpGv/4+DiOHj2as+aPRqPZjRs3/tWBAwfeIVK5C7iP5o8//viJy5cvvzU/P69ZjgQCAWzZsgWbN282jAaUMk6hMYAK2SnY6S8WUZHohm8kK5VKobOzE11dXTnfxePxTHt7+xM8jR8QwAEAi8uBnp6ej6ampmL67+LxODZv3oz169fbcgSihOh+dApmfcezT2lvD9OQs7CwgO7ubnR2dmp+4adQVVU1v27duu/wCvvVCDNKf/vb39aPjo7+cWBgYJ3R95FIBLfddhva2tpQW1trKscPhsdbR/2AFcVpqvGD4etljYyM4Nq1a+jt7dWc7VfT3NzcXV1d/a2DBw+OEFPCA8JZy29+85t/6O3t/Rv9kkBNLBZDQ0MD6urqUFlZifLyckSjUYTD4eUyvI1MJEQ0cDNEOyRkRCqVwvz8PGZmZjA5OYnR0VEMDQ0ZzvYKpaWl6dbW1n987LHH/s6zAgQR0koOHz7cMjMz897AwMDdCwsLtu8r1FBV9Pp5t11kQqEQWlpaTtTU1DzK+pCPHYR0AAoffvjhtunp6X8aGhramUgkArwHWjEbGe/6/UY0Gs02NjZ+WVFR8UOWZ/udIrQDUPj444+r5ubmfjoxMfH42NhYQyqVoqI370FezA6mEIhEItm6urrBysrKX5eXl/+E1U96veALB6Dm7NmzZf39/S/Mzc09ND8/v2l+fr4ukUjEE4lEyM77BYrZyHjXXyiEQiFEo9F0LBabi8ViI7FY7FI8Hj9cV1f3yu7du6m/y18ikUgkEolEIpFIJBKJRCKRSCQSiUQikUgkEolEIpFIJBKJRCKRSCQSiUQikUgkEolEIpFIJBKJRCKRSCQSiUQikUgkEolEIpFIJBKJRCKRSCQSiT/4/4MrWFVQB6dsAAAAAElFTkSuQmCC;rounded=1;strokeColor=light-dark(#ffffff, #ededed);fontColor=#FFFFFF;" parent="WIKi1naMGfM_hJrwJL8N-38" vertex="1">
          <mxGeometry x="26.96996443322439" y="24.43665537435012" width="49.13334462564988" height="49.13334462564988" as="geometry" />
        </mxCell>
        <mxCell id="WIKi1naMGfM_hJrwJL8N-10" style="rounded=1;orthogonalLoop=1;jettySize=auto;html=1;fontColor=#FFFFFF;labelBackgroundColor=none;strokeColor=#FFFFFF;" parent="1" source="WIKi1naMGfM_hJrwJL8N-32" target="WIKi1naMGfM_hJrwJL8N-7" edge="1">
          <mxGeometry relative="1" as="geometry">
            <mxPoint x="217.7962577962578" y="150.12102351313973" as="sourcePoint" />
          </mxGeometry>
        </mxCell>
        <mxCell id="WIKi1naMGfM_hJrwJL8N-14" style="rounded=1;orthogonalLoop=1;jettySize=auto;html=1;fontColor=#FFFFFF;labelBackgroundColor=none;strokeColor=#FFFFFF;" parent="1" source="WIKi1naMGfM_hJrwJL8N-7" target="WIKi1naMGfM_hJrwJL8N-9" edge="1">
          <mxGeometry relative="1" as="geometry" />
        </mxCell>
        <mxCell id="WIKi1naMGfM_hJrwJL8N-7" value="User" style="outlineConnect=0;verticalLabelPosition=bottom;verticalAlign=top;align=center;html=1;fontSize=12;fontStyle=0;aspect=fixed;pointerEvents=1;shape=mxgraph.aws4.user;labelBackgroundColor=none;rounded=1;strokeColor=#FFFFFF;fontColor=#FFFFFF;" parent="1" vertex="1">
          <mxGeometry x="409.6798336798337" y="174.5" width="90.16216216216216" height="90.16216216216216" as="geometry" />
        </mxCell>
        <mxCell id="WIKi1naMGfM_hJrwJL8N-9" value="Email&amp;nbsp;" style="shape=image;html=1;verticalAlign=top;verticalLabelPosition=bottom;labelBackgroundColor=none;imageAspect=0;aspect=fixed;image=https://cdn0.iconfinder.com/data/icons/logos-microsoft-office-365/128/Microsoft_Office-07-128.png;rounded=1;strokeColor=#FFFFFF;fontColor=#FFFFFF;" parent="1" vertex="1">
          <mxGeometry x="633.9293139293139" y="178.58333333333334" width="82.07068607068608" height="82.07068607068608" as="geometry" />
        </mxCell>
        <mxCell id="WIKi1naMGfM_hJrwJL8N-12" style="rounded=1;orthogonalLoop=1;jettySize=auto;html=1;fontColor=#FFFFFF;labelBackgroundColor=none;strokeColor=#FFFFFF;" parent="1" source="WIKi1naMGfM_hJrwJL8N-31" target="WIKi1naMGfM_hJrwJL8N-7" edge="1">
          <mxGeometry relative="1" as="geometry">
            <mxPoint x="217.7962577962578" y="237.5" as="sourcePoint" />
            <mxPoint x="442.04573804573806" y="248" as="targetPoint" />
          </mxGeometry>
        </mxCell>
        <mxCell id="WIKi1naMGfM_hJrwJL8N-13" style="rounded=1;orthogonalLoop=1;jettySize=auto;html=1;fontColor=#FFFFFF;labelBackgroundColor=none;strokeColor=#FFFFFF;" parent="1" source="WIKi1naMGfM_hJrwJL8N-27" target="WIKi1naMGfM_hJrwJL8N-7" edge="1">
          <mxGeometry relative="1" as="geometry">
            <mxPoint x="217.7962577962578" y="335.0683333333334" as="sourcePoint" />
            <mxPoint x="414.3035343035343" y="278.33333333333337" as="targetPoint" />
          </mxGeometry>
        </mxCell>
        <mxCell id="WIKi1naMGfM_hJrwJL8N-27" value="PowerBI" style="shape=image;verticalLabelPosition=bottom;verticalAlign=top;imageAspect=0;aspect=fixed;image=data:image/svg+xml,PHN2ZyB4bWxuczp4bGluaz0iaHR0cDovL3d3dy53My5vcmcvMTk5OS94bGluayIgeG1sbnM9Imh0dHA6Ly93d3cudzMub3JnLzIwMDAvc3ZnIiB2aWV3Qm94PSIwIDAgNDggNDgiIGhlaWdodD0iNDgiIHdpZHRoPSI0OCIgZGF0YS1uYW1lPSJMYXllciAxIiBpZD0idXVpZC05MmY1YTIzNi00YmY2LTQ1ZWUtODAwMC1iMDdhOTg3MzlmMjUiPiYjeGE7ICA8ZGVmcz4mI3hhOyAgICA8bGluZWFyR3JhZGllbnQgZ3JhZGllbnRVbml0cz0idXNlclNwYWNlT25Vc2UiIGdyYWRpZW50VHJhbnNmb3JtPSJtYXRyaXgoMSwgMCwgMCwgMSwgMCwgMCkiIHkyPSIzLjU5OSIgeDI9IjQzLjYyNSIgeTE9IjQ3LjczMyIgeDE9IjIyLjgwMyIgaWQ9InV1aWQtZmIxMzdkZTYtOGRmNC00MjEwLWIxNTUtOWE3YzMyN2E3N2I4Ij4mI3hhOyAgICAgIDxzdG9wIHN0b3AtY29sb3I9IiNjODdlMGUiIG9mZnNldD0iMCIvPiYjeGE7ICAgICAgPHN0b3Agc3RvcC1jb2xvcj0iI2U2YWQxMCIgb2Zmc2V0PSIxIi8+JiN4YTsgICAgPC9saW5lYXJHcmFkaWVudD4mI3hhOyAgICA8bGluZWFyR3JhZGllbnQgZ3JhZGllbnRVbml0cz0idXNlclNwYWNlT25Vc2UiIGdyYWRpZW50VHJhbnNmb3JtPSJtYXRyaXgoMSwgMCwgMCwgMSwgMCwgMCkiIHkyPSIxMy44MzEiIHgyPSIzMi43MjgiIHkxPSI0Ny42MzciIHgxPSIxNS4yOTYiIGlkPSJ1dWlkLWEzMWM2OTVmLTU4ZTctNDA2MS1hNGRiLTIxNzM1Njk2MzAzZCI+JiN4YTsgICAgICA8c3RvcCBzdG9wLWNvbG9yPSIjZTZhZDEwIiBvZmZzZXQ9IjAiLz4mI3hhOyAgICAgIDxzdG9wIHN0b3AtY29sb3I9IiNmNmQ3NTEiIG9mZnNldD0iMSIvPiYjeGE7ICAgIDwvbGluZWFyR3JhZGllbnQ+JiN4YTsgICAgPGxpbmVhckdyYWRpZW50IGdyYWRpZW50VW5pdHM9InVzZXJTcGFjZU9uVXNlIiBncmFkaWVudFRyYW5zZm9ybT0ibWF0cml4KDEsIDAsIDAsIDEsIDAsIDApIiB5Mj0iMjYuMzc5IiB4Mj0iMTguMzk2IiB5MT0iNDguNjAxIiB4MT0iOS4wMTkiIGlkPSJ1dWlkLTM3OWNmMDI1LTc3ZTItNDA5OC1hNTQ3LTZmNGQyMTI3ODAyMCI+JiN4YTsgICAgICA8c3RvcCBzdG9wLWNvbG9yPSIjZjZkNzUxIiBvZmZzZXQ9IjAiLz4mI3hhOyAgICAgIDxzdG9wIHN0b3AtY29sb3I9IiNmOWU1ODkiIG9mZnNldD0iMSIvPiYjeGE7ICAgIDwvbGluZWFyR3JhZGllbnQ+JiN4YTsgIDwvZGVmcz4mI3hhOyAgPHRleHQgZm9udC13ZWlnaHQ9IjcwMCIgZm9udC1zaXplPSI0OCIgZm9udC1mYW1pbHk9IlNlZ29lVUktU2VtaWJvbGQsICdTZWdvZSBVSSciIGZpbGw9IiNiNGI0YjQiIHRyYW5zZm9ybT0idHJhbnNsYXRlKDAgLTE4LjM0MSkiPjx0c3BhbiB5PSIwIiB4PSIwIj40OHg8L3RzcGFuPjwvdGV4dD4mI3hhOyAgPGc+JiN4YTsgICAgPHBhdGggZmlsbD0idXJsKCN1dWlkLWZiMTM3ZGU2LThkZjQtNDIxMC1iMTU1LTlhN2MzMjdhNzdiOCkiIGQ9Ik00Miw0Ni4wMDNWMS45OTdjLS4wMDItMS4xMDMtLjg5Ni0xLjk5Ny0yLTEuOTk3aC0xMmMtMS4xMDUsMC0yLC44OTUtMiwydjMuMTM2aDBWNDhoMTQuMDAxYzEuMTAzLDAsMS45OTctLjg5NCwxLjk5OS0xLjk5N1oiLz4mI3hhOyAgICA8cGF0aCBmaWxsPSJ1cmwoI3V1aWQtYTMxYzY5NWYtNThlNy00MDYxLWE0ZGItMjE3MzU2OTYzMDNkKSIgZD0iTTMwLDEyaC0xMi4wMDFjLTEuMTAzLDAtMS45OTcsLjg5NC0xLjk5OSwxLjk5OFY0OGgxNlYxNGMwLTEuMTA1LS44OTUtMi0yLTJaIi8+JiN4YTsgICAgPHBhdGggZmlsbD0idXJsKCN1dWlkLTM3OWNmMDI1LTc3ZTItNDA5OC1hNTQ3LTZmNGQyMTI3ODAyMCkiIGQ9Ik0yMCwyNEg4Yy0xLjEwNSwwLTIsLjg5NS0yLDJ2MjBjMCwxLjEwNCwuODk1LDIsMiwyaDE0VjI2YzAtMS4xMDUtLjg5NS0yLTItMloiLz4mI3hhOyAgPC9nPiYjeGE7PC9zdmc+;labelBackgroundColor=none;rounded=1;strokeColor=#FFFFFF;fontColor=#FFFFFF;" parent="1" vertex="1">
          <mxGeometry x="160" y="270" width="69.35550935550935" height="69.35550935550935" as="geometry" />
        </mxCell>
        <mxCell id="WIKi1naMGfM_hJrwJL8N-31" value="PowerBI" style="shape=image;verticalLabelPosition=bottom;verticalAlign=top;imageAspect=0;aspect=fixed;image=data:image/svg+xml,PHN2ZyB4bWxuczp4bGluaz0iaHR0cDovL3d3dy53My5vcmcvMTk5OS94bGluayIgeG1sbnM9Imh0dHA6Ly93d3cudzMub3JnLzIwMDAvc3ZnIiB2aWV3Qm94PSIwIDAgNDggNDgiIGhlaWdodD0iNDgiIHdpZHRoPSI0OCIgZGF0YS1uYW1lPSJMYXllciAxIiBpZD0idXVpZC05MmY1YTIzNi00YmY2LTQ1ZWUtODAwMC1iMDdhOTg3MzlmMjUiPiYjeGE7ICA8ZGVmcz4mI3hhOyAgICA8bGluZWFyR3JhZGllbnQgZ3JhZGllbnRVbml0cz0idXNlclNwYWNlT25Vc2UiIGdyYWRpZW50VHJhbnNmb3JtPSJtYXRyaXgoMSwgMCwgMCwgMSwgMCwgMCkiIHkyPSIzLjU5OSIgeDI9IjQzLjYyNSIgeTE9IjQ3LjczMyIgeDE9IjIyLjgwMyIgaWQ9InV1aWQtZmIxMzdkZTYtOGRmNC00MjEwLWIxNTUtOWE3YzMyN2E3N2I4Ij4mI3hhOyAgICAgIDxzdG9wIHN0b3AtY29sb3I9IiNjODdlMGUiIG9mZnNldD0iMCIvPiYjeGE7ICAgICAgPHN0b3Agc3RvcC1jb2xvcj0iI2U2YWQxMCIgb2Zmc2V0PSIxIi8+JiN4YTsgICAgPC9saW5lYXJHcmFkaWVudD4mI3hhOyAgICA8bGluZWFyR3JhZGllbnQgZ3JhZGllbnRVbml0cz0idXNlclNwYWNlT25Vc2UiIGdyYWRpZW50VHJhbnNmb3JtPSJtYXRyaXgoMSwgMCwgMCwgMSwgMCwgMCkiIHkyPSIxMy44MzEiIHgyPSIzMi43MjgiIHkxPSI0Ny42MzciIHgxPSIxNS4yOTYiIGlkPSJ1dWlkLWEzMWM2OTVmLTU4ZTctNDA2MS1hNGRiLTIxNzM1Njk2MzAzZCI+JiN4YTsgICAgICA8c3RvcCBzdG9wLWNvbG9yPSIjZTZhZDEwIiBvZmZzZXQ9IjAiLz4mI3hhOyAgICAgIDxzdG9wIHN0b3AtY29sb3I9IiNmNmQ3NTEiIG9mZnNldD0iMSIvPiYjeGE7ICAgIDwvbGluZWFyR3JhZGllbnQ+JiN4YTsgICAgPGxpbmVhckdyYWRpZW50IGdyYWRpZW50VW5pdHM9InVzZXJTcGFjZU9uVXNlIiBncmFkaWVudFRyYW5zZm9ybT0ibWF0cml4KDEsIDAsIDAsIDEsIDAsIDApIiB5Mj0iMjYuMzc5IiB4Mj0iMTguMzk2IiB5MT0iNDguNjAxIiB4MT0iOS4wMTkiIGlkPSJ1dWlkLTM3OWNmMDI1LTc3ZTItNDA5OC1hNTQ3LTZmNGQyMTI3ODAyMCI+JiN4YTsgICAgICA8c3RvcCBzdG9wLWNvbG9yPSIjZjZkNzUxIiBvZmZzZXQ9IjAiLz4mI3hhOyAgICAgIDxzdG9wIHN0b3AtY29sb3I9IiNmOWU1ODkiIG9mZnNldD0iMSIvPiYjeGE7ICAgIDwvbGluZWFyR3JhZGllbnQ+JiN4YTsgIDwvZGVmcz4mI3hhOyAgPHRleHQgZm9udC13ZWlnaHQ9IjcwMCIgZm9udC1zaXplPSI0OCIgZm9udC1mYW1pbHk9IlNlZ29lVUktU2VtaWJvbGQsICdTZWdvZSBVSSciIGZpbGw9IiNiNGI0YjQiIHRyYW5zZm9ybT0idHJhbnNsYXRlKDAgLTE4LjM0MSkiPjx0c3BhbiB5PSIwIiB4PSIwIj40OHg8L3RzcGFuPjwvdGV4dD4mI3hhOyAgPGc+JiN4YTsgICAgPHBhdGggZmlsbD0idXJsKCN1dWlkLWZiMTM3ZGU2LThkZjQtNDIxMC1iMTU1LTlhN2MzMjdhNzdiOCkiIGQ9Ik00Miw0Ni4wMDNWMS45OTdjLS4wMDItMS4xMDMtLjg5Ni0xLjk5Ny0yLTEuOTk3aC0xMmMtMS4xMDUsMC0yLC44OTUtMiwydjMuMTM2aDBWNDhoMTQuMDAxYzEuMTAzLDAsMS45OTctLjg5NCwxLjk5OS0xLjk5N1oiLz4mI3hhOyAgICA8cGF0aCBmaWxsPSJ1cmwoI3V1aWQtYTMxYzY5NWYtNThlNy00MDYxLWE0ZGItMjE3MzU2OTYzMDNkKSIgZD0iTTMwLDEyaC0xMi4wMDFjLTEuMTAzLDAtMS45OTcsLjg5NC0xLjk5OSwxLjk5OFY0OGgxNlYxNGMwLTEuMTA1LS44OTUtMi0yLTJaIi8+JiN4YTsgICAgPHBhdGggZmlsbD0idXJsKCN1dWlkLTM3OWNmMDI1LTc3ZTItNDA5OC1hNTQ3LTZmNGQyMTI3ODAyMCkiIGQ9Ik0yMCwyNEg4Yy0xLjEwNSwwLTIsLjg5NS0yLDJ2MjBjMCwxLjEwNCwuODk1LDIsMiwyaDE0VjI2YzAtMS4xMDUtLjg5NS0yLTItMloiLz4mI3hhOyAgPC9nPiYjeGE7PC9zdmc+;labelBackgroundColor=none;rounded=1;strokeColor=#FFFFFF;fontColor=#FFFFFF;" parent="1" vertex="1">
          <mxGeometry x="160" y="178.57999999999998" width="69.35550935550935" height="69.35550935550935" as="geometry" />
        </mxCell>
        <mxCell id="WIKi1naMGfM_hJrwJL8N-32" value="PowerBI" style="shape=image;verticalLabelPosition=bottom;verticalAlign=top;imageAspect=0;aspect=fixed;image=data:image/svg+xml,PHN2ZyB4bWxuczp4bGluaz0iaHR0cDovL3d3dy53My5vcmcvMTk5OS94bGluayIgeG1sbnM9Imh0dHA6Ly93d3cudzMub3JnLzIwMDAvc3ZnIiB2aWV3Qm94PSIwIDAgNDggNDgiIGhlaWdodD0iNDgiIHdpZHRoPSI0OCIgZGF0YS1uYW1lPSJMYXllciAxIiBpZD0idXVpZC05MmY1YTIzNi00YmY2LTQ1ZWUtODAwMC1iMDdhOTg3MzlmMjUiPiYjeGE7ICA8ZGVmcz4mI3hhOyAgICA8bGluZWFyR3JhZGllbnQgZ3JhZGllbnRVbml0cz0idXNlclNwYWNlT25Vc2UiIGdyYWRpZW50VHJhbnNmb3JtPSJtYXRyaXgoMSwgMCwgMCwgMSwgMCwgMCkiIHkyPSIzLjU5OSIgeDI9IjQzLjYyNSIgeTE9IjQ3LjczMyIgeDE9IjIyLjgwMyIgaWQ9InV1aWQtZmIxMzdkZTYtOGRmNC00MjEwLWIxNTUtOWE3YzMyN2E3N2I4Ij4mI3hhOyAgICAgIDxzdG9wIHN0b3AtY29sb3I9IiNjODdlMGUiIG9mZnNldD0iMCIvPiYjeGE7ICAgICAgPHN0b3Agc3RvcC1jb2xvcj0iI2U2YWQxMCIgb2Zmc2V0PSIxIi8+JiN4YTsgICAgPC9saW5lYXJHcmFkaWVudD4mI3hhOyAgICA8bGluZWFyR3JhZGllbnQgZ3JhZGllbnRVbml0cz0idXNlclNwYWNlT25Vc2UiIGdyYWRpZW50VHJhbnNmb3JtPSJtYXRyaXgoMSwgMCwgMCwgMSwgMCwgMCkiIHkyPSIxMy44MzEiIHgyPSIzMi43MjgiIHkxPSI0Ny42MzciIHgxPSIxNS4yOTYiIGlkPSJ1dWlkLWEzMWM2OTVmLTU4ZTctNDA2MS1hNGRiLTIxNzM1Njk2MzAzZCI+JiN4YTsgICAgICA8c3RvcCBzdG9wLWNvbG9yPSIjZTZhZDEwIiBvZmZzZXQ9IjAiLz4mI3hhOyAgICAgIDxzdG9wIHN0b3AtY29sb3I9IiNmNmQ3NTEiIG9mZnNldD0iMSIvPiYjeGE7ICAgIDwvbGluZWFyR3JhZGllbnQ+JiN4YTsgICAgPGxpbmVhckdyYWRpZW50IGdyYWRpZW50VW5pdHM9InVzZXJTcGFjZU9uVXNlIiBncmFkaWVudFRyYW5zZm9ybT0ibWF0cml4KDEsIDAsIDAsIDEsIDAsIDApIiB5Mj0iMjYuMzc5IiB4Mj0iMTguMzk2IiB5MT0iNDguNjAxIiB4MT0iOS4wMTkiIGlkPSJ1dWlkLTM3OWNmMDI1LTc3ZTItNDA5OC1hNTQ3LTZmNGQyMTI3ODAyMCI+JiN4YTsgICAgICA8c3RvcCBzdG9wLWNvbG9yPSIjZjZkNzUxIiBvZmZzZXQ9IjAiLz4mI3hhOyAgICAgIDxzdG9wIHN0b3AtY29sb3I9IiNmOWU1ODkiIG9mZnNldD0iMSIvPiYjeGE7ICAgIDwvbGluZWFyR3JhZGllbnQ+JiN4YTsgIDwvZGVmcz4mI3hhOyAgPHRleHQgZm9udC13ZWlnaHQ9IjcwMCIgZm9udC1zaXplPSI0OCIgZm9udC1mYW1pbHk9IlNlZ29lVUktU2VtaWJvbGQsICdTZWdvZSBVSSciIGZpbGw9IiNiNGI0YjQiIHRyYW5zZm9ybT0idHJhbnNsYXRlKDAgLTE4LjM0MSkiPjx0c3BhbiB5PSIwIiB4PSIwIj40OHg8L3RzcGFuPjwvdGV4dD4mI3hhOyAgPGc+JiN4YTsgICAgPHBhdGggZmlsbD0idXJsKCN1dWlkLWZiMTM3ZGU2LThkZjQtNDIxMC1iMTU1LTlhN2MzMjdhNzdiOCkiIGQ9Ik00Miw0Ni4wMDNWMS45OTdjLS4wMDItMS4xMDMtLjg5Ni0xLjk5Ny0yLTEuOTk3aC0xMmMtMS4xMDUsMC0yLC44OTUtMiwydjMuMTM2aDBWNDhoMTQuMDAxYzEuMTAzLDAsMS45OTctLjg5NCwxLjk5OS0xLjk5N1oiLz4mI3hhOyAgICA8cGF0aCBmaWxsPSJ1cmwoI3V1aWQtYTMxYzY5NWYtNThlNy00MDYxLWE0ZGItMjE3MzU2OTYzMDNkKSIgZD0iTTMwLDEyaC0xMi4wMDFjLTEuMTAzLDAtMS45OTcsLjg5NC0xLjk5OSwxLjk5OFY0OGgxNlYxNGMwLTEuMTA1LS44OTUtMi0yLTJaIi8+JiN4YTsgICAgPHBhdGggZmlsbD0idXJsKCN1dWlkLTM3OWNmMDI1LTc3ZTItNDA5OC1hNTQ3LTZmNGQyMTI3ODAyMCkiIGQ9Ik0yMCwyNEg4Yy0xLjEwNSwwLTIsLjg5NS0yLDJ2MjBjMCwxLjEwNCwuODk1LDIsMiwyaDE0VjI2YzAtMS4xMDUtLjg5NS0yLTItMloiLz4mI3hhOyAgPC9nPiYjeGE7PC9zdmc+;labelBackgroundColor=none;rounded=1;strokeColor=#FFFFFF;fontColor=#FFFFFF;" parent="1" vertex="1">
          <mxGeometry x="165.77962577962577" y="80" width="69.35550935550935" height="69.35550935550935" as="geometry" />
        </mxCell>
        <mxCell id="nsKQY4hmwuangQq9sZYd-1" value="" style="shape=image;verticalLabelPosition=bottom;labelBackgroundColor=default;verticalAlign=top;aspect=fixed;imageAspect=0;image=data:image/png,iVBORw0KGgoAAAANSUhEUgAAAQAAAAEACAYAAABccqhmAAAABmJLR0QA/wD/AP+gvaeTAAAgAElEQVR4nO2dd3wcxf33P1ekO3WrWNWSjWyMbRnbMZAEklAMpjgmxCGNQCihhJJfQgIJkB95JeR5QksCDyFAYhJ6ANNNCQYMBgw2AQIGGxc1S8jq9U7SSdd2nz/klfb2du+278zevl8v8Olm5zuzu/P57OzM7B7g4ODg4ODg4ODg4ODg4ODg4ODg4ODg4ODg4ODg4ODg4ODg4ODg4ODg4ODg4ODg4EATLqsrYAX79+9fEY/H57EsW2J1XcwgHo9bXQWiYRhm2O/3t9TX139qdV3MxvYG0NraumxycvKqcDj8lYmJiZqJiQk/wzBWV0sxLMs6ZRlcltvtht/vn8zJyen0+XzvFBQU3GZ3U7ClAXR1dZWNjIzcHgwGzxgbGysws5FphSRBZHpZLpcL+fn5wfz8/I1ZWVlXNjQ0DOkSmCBsZQBtbW1VwWDw8aGhoa9Fo1Gi941GQWRyWV6vly0pKXmzuLj4rPr6+l7TCjYYokWihN27dz/Q39//w0gk4ra6LnzsKgi7lpWuvKysLGb27Nn3r1ix4iITq2QY1BtAa2vrssHBwTdGRkZKraxHpgoiU8sqLCwcKCkpOWHJkiW7dKyS6VBtAHv37r2sr6/vr+Fw2NSrPi2N1CnL2LKys7PjVVVVlzc0NKw3pAAToNYA9uzZ86eurq6r5I7oezweFBUVobCwELm5ufD7/XC7ibpb0ISWRq4mr9I8SrZXu22qfKnS4vE4IpEIQqEQRkdHEQwG006dcvHcbjeqqqpuXbFixTWyK00QVBrAnj177ujs7PypnIZSUlKCmpoalJaW6iZ4kmcV1NbNCBMQppthAnpsF4vFMDw8jJ6eHgwNpR/4d7lcmDNnzu3Lli37hawCCII6A2hsbLy+o6Pj/6S78peWlmL+/PnIz89XXZacBuNyKTuEZpiH2SagtwBJ2JbbbmxsDG1tbWmN4GBP4NoVK1bcIrsyBECVATQ3N5964MCBf6ea4svOzsbChQtRXl4uO66SBqRU8HqXb3RMqXxqu9ekbat2u4GBATQ1NSEajUrm8Xq9bGVl5erly5e/LqsQAqDGAPbu3VswODjYFwqF/Nx3wpNUWFiIww8/HH6/Pym/FpEZIXop9DYDNffqRt7fK93eyt6FcLtwOIzdu3djdHRUctv8/PzQokWLyisrK8dlV8hCqBkFC4fDr46Pj/u5Bio8OSUlJVi5ciV8Ph/426hp0Bwul8tU8RtRplQssWPEHSel5Zt9jKyqg8/nw7Jly1BcXCzZvsbGxnI7Ojo2GV4ZnaDCABobG9f29/d/WSq9uLgYhx9+uG6NwArhS9VBaz24xqnUEI00AaO21Tum2HYejwcNDQ0oKiqSzNfX1/fVPXv2nKy6giZChQGMjIz8Q2rQLycnBw0NDXC73bo0FquFL0Y6I5C6mvOFrma/SDEBK2OK4Xa7sXTpUtFbTWDqfAwODj5gSmU0QrwBtLS0nDUyMlIhluZyudDQ0ICsrCzNJ5+Eq74ctNzemGECRkBaLwAAvF4vlixZIpk+MjJStWvXrjNVV9AkiDeAQCDwB+F3XMOfM2cOCgoKNJdBQiPnk+7+XEt9jTYBq7c181wWFBSgpqZG8nwFg0HipwSJNoCWlpa6oaGhQ8SEkJWVhXnz5gHQdtKtFH+6bnsqSN5nq28F9C471XZz586F1+sVTRsZGZnf2toq2nslBaINIBKJ/E5qSeacOXPg9XqJFgKHFqGnQktvwOiRfhK77Ubg9XpRU1MjmhaPxzEyMnKDaZVRAdEGMDY2dqrY9y6XC9XV1Zpi691I5AzEGQWpJmB1XD3LTrVddXW1ZPrExMTXVVXMJIg1AJZl3aOjo5ViacXFxfD5fKY1fEG90oqcP4Wn13ReOkg0gUzpBfh8PsyaNQtAcvsYHR3VdqUyGGINoKmp6UThkl/uoJaVlamOK7dhyL2aKxG60aagNiYJg6A09AJSUVJSIto+IpGIe8+ePcdpLsAgiDWAaDR6qpT4ioqKdGvoarvtegnYCDNwRvqVl601XqqFQRMTE6fpWhEdER++JIB4PL5E7HuXy4W8vDxFsfS8DzfySsWPrbXOLpfL0PEHJfGNrovZiO1Lbm6u5H7GYrEGM+qlBmJ7APF4XHT6xOfzST7Xr+f6diFmLxTSozxnpF/bdkp6hh6PB9nZ2aL54/F4laxKWACxPYBYLCZ6mefmXI1eAadnfj3K1vJAk9JjZcTVmtReAL9OWuvn8XhEYzAMo/6lFAZDbA/A5XJN183MKTVBHYgYIAPMXfhjt5F+znzkzN5oKTdFfo+swBZAbA8A0Ofe3YqpQqPQ0hsg4QpsRh2s3EcS20w6iO0BWAnpJ9IMUyO9F8C/gsvpIZJ+Tq2C6B6AVmidE5eDGVdTI0b6lcS04mqux35Y3dNSgq0NwO6oMQESbgWESNXHCFMxEivGqbRCtAFoOZh2vvrzUTMuYNQcfrpt9RxxVwNthmIGxBqAFSP+NGPkdJ/S2JkiHjsYhTMIaCPMNjEtTz6StODHaEg2CWJ7AFogYUUbDci5glndbbcKNb0eZwzAYIw4wHYTv9pbAb2fl9DzXpuke3ex+LSJng/RBkDzgbUSpVNUmfZQj9yejx32NR1EG4Aa7HZF14IVI/1Wb6eEdPHsYnipsJ0BKIF2s9CzAdulsYvth9Hddqljx30n9yfsrSCjDYAWSBMmSffkfPhLg9NhVI+CtHOVDioMIFNGoq1+DNeqXoBSQzGzjnbpGUlBrAEwDGPogbey+2/FIifaGrGWdfZW7C+tt5PEGoAdoE10gPmDd1b27mg0Rr2xlQE4q7yksbqx61W2VVd3uy6FtpUBGAlNJ1UKM67upBwnK4zCGQTUGaOmb1L1FGg7gVahZMRdLjRc3dVAcpsi1gAy+aQYiZKru5z5a7uKVkmZNLclYg1AD2g+MWZixnEiTbRqUBuL5HZoCwMg+QCThNIRdzuIVg1ayre67kqhxgD495y0HWSzyQTRai2T1MFLsyHaADL1pMiBxmNj1ci8XpDQO9Ebog3AwTihk7qeX22ZUtvbUbR64hgAIdDeSM0SmlErB6143JgEHAMwGZIaBalXR7njPKTVn8bxKeINgLYDykFrvcXQU2j8WDQeI9JMRyvEGgANbkp6/UhBzYi7UabjkAixBqAGlmUNeSDIzo2HlMUyDtZgKwPQitN45UHScSKtp2DU8ytGQZ0B6HEwST4hpGBkQ7ZTl5z2t1URbQBGLcmk9e0tRkDDWIseOCsHxSHaAOSg5kQYNVZAMmY1WNK65Eqxi7DlQqUBZNpJUoKaY2OnLrkczNxX0ntYxBqAlkcv7X5119KgBoJx7NgfRmtvBIEQA5cLKMp1Y95sL75Q70dpgUfHmppDuvfyS/2tJJYcSBe7GMQagBCaF4+oRa99ZVhg8ychPPFuEJ+2hzEVlhebZcECcLmA5fN8+N5XCrFqWR7cAh8ltXtPo/BIgVgDMPqkktRTMHI/m7qj+P2GAeztjPBL5Bc+/RfLstixfxI79k9iSa0P13+nDIdWZRtWN6U4Itcft9UVyCQ4UxP+ZxSv7Ajhgju7ZYk/4XsAuz+fxAV/6cTLH40ZVj8xpI6RHsdJT8Mn5eKhFWJ7ADRj9ZWKZYGH3gzi7peHwSRURZ74D94jIBxl8dvHetHcHcZP1pRCzzZP6wM/cqGlzrY0ADO696Se4EiMxY1PD+GlD4VXbmXi59IYFnhwywg6B2O44axyZMtoMbQ/8KMWGsciiDcAIxdgyDEKmk5oIMTgVw8N4KOWCUGKOvGzvM02fzKKvkAUfzq/EsX5yTMFdlooQ2uvQw3EjgGY7aZm35/rzYHBGC68q8cQ8XPbfto2iQvuPIDWnjBxx8ku9+RmQ6wBaEWqUQobrtE/QmoGn7SFccFfe9HeFxWk6Cd+7ovOwSguuqsTHzYLjcaBRmxpAEaOJJPGix+O47K/92FkLMb7loUR4ucYDcXxP+u78NS2gJaq2xLa2h3xYwBCuAOaSfdpYrAs8I/NAax/LZAkYuGGeoqfyxNjWNzyTD/a+yP4+TdmJy0akgPt55D2+gOEG4DU8k65B13ubABJi4LkEImx+P0Tg3hlR8gS8fNjPr51BL0jUfz+rEr4s8nvUNpBtHpC/hlzSGB4LIYr7u0jQvwcWz4dw6X3HMDgaFzmXjiQArUGoKQXoOd2ZiF2H9nSE8F5d/Zix/4wMeLn0j77fBI/vL0d+zrDMvYucyCtXQmh1gDsgtxBo/ebwrjo7j50D8eJEz9HfyCKi+/6HFs/M3f5MCnQNPjHQY0BiB1QmnoBWkaHn3t/DFfe34+xScZ08SfOJ0iLn4sZmmRw1f2d2PDOsPQOORADsYOAtM7P67tScWqk/97NwZkvZlKTNjZC/FJpggJ4oVgwDPCnZ/vQ0h3GNWdWwKNmisDBFIg1AL3Rc0bADGOaiLD4zWODeHv3BFcovwbCCqkQf7KIxeMlpwnz8cXP//7Z90bQMxzFjedWI99P14tGMmW2gJpbACmMOEn8B1msuK8bCDK49O99VIufY/vecVx8Zzt6hoWrFO2NcLUpqVBvAEqQuzzYygGc5u4oLrirB3sORLjK8WuauDHh4ufSmrrDOP+ONuw5MAk7Y3XbUQPxBiBHmEoG+eQK3YqT+F7jJC7+Wx96R+JcJfg1StzYLPGz4vnkip/7ZiAYxSV3teGtXaO8IukRihBSLhhaIdoA1BzUdM8BKIlp5kl99j9j+Pn9AxifZLjC+TURVkxiZD45n2bxC8tWIX4ubWKSwdX3dWD9K/2gBZJ6h0ZA7SCg2JSgUb8LaOQyYYYBbnthGE9s482dqxU/yBX/9D8si/Wb+tA3EsE1Z1bB6yFjhkBLz1JNbFKg0gC0HlBS1v6Hwgx+89ggtu7h3RvbWPz8bZ97bxjdQxHcfH4d8v3mdETV9ALVlkELRN8CCEnX/TKqe2/ESe0PxnHp3/ozUvzc5/f2jePCO1rQNcR/aal2rOq20yZ+gGADUHsCjToJesb9rCOCc+/owd4uXsNPIX7WhuJnD+Zp6Qnj3NtasKN1HEoh4f6chJ6kFog1ADNQ2lj0aFxbdk3g8vV9GBzjzQ2nEb9omuHiZ2G0+DlGxuO4/J42bPpI/AUjJAjdrtjSAIzs3mtpeBveHcOvHxnARCRRkLw/UpRltvhhivi5tEiMwW8e/hzrN/XaRug01J/KQUC9UTooqHT7OMPiz88H8PT20cSmr0r8El10iTR+PlLFz/3DgsX6Tb3oHo7gum/XIMtLV/eaBsELoaIHQNJYgNL4wRCDn/5jwBF/GvHzy37+P8O49O4WjIw7LxgxGmINQI8uoNEj/enydA7FcPE9ffiwZdIRv0zxc19+0hrC+bc3oa2X7OXDtF3xhRBrAKkgaaRfyqR2todx4V/70NYXdcSvUPzcHwcGwvjRHc34qEX5DIGDPKg0ACWYNcjHz/f6pxO44t4BDI/HHfGrFD/3IRiK43/+th///mAIqTDzSpxuVoKmGQtqDYDEkX6GYfHgliD+99FBhKOMI36N4uc+R2Jx/PbRDtz5QnfybitEyRiSmulHksUuBtGzAHquzzZ6pH/qRzmHsenjCSSKBTYWv0QddRQ/MLO7D77ei87BMH73gzpdX0Fu5HMApEO0AaTD6DX9cuMHQgyufXgQH++PwBG/eJown1Lxc39v3jGC3pEI/nxRPUry5TdfM54DoBFibwGMmO4zYqT/wGAMl9zTT5j4WYiJjp+HRvFzn3e2jeOC2/Zhv8gMgbNqUBnEGoBR6GkCn7ZHcOFd/Wjvj4Es8fM/2kv83D+dgxH86PZ9eH9fkBih02g+VBmA1ME0Y5BPmOeFD0O4Yv0AAiEG8sUvbBCO+NWIn/swOhHHT9e34Pn/DMJBHcSOASh1T6MH+fh5/rE5iH9s5l5tpUT8EE9zxD+znVSayLFjAURjDH7/aDv6RiK48ORKOCiDqh5AOszoCWx4Z9QRfzrxs4lpRomfn/a3f3fjqXfoedUYKdjKANSgxAT2HIjgzpcd8acVv7BsibSE7TSIn0u77blO7OucgBRm34/TMA5gOwPQ42CLDeQwDItbngsgFp+6vNlC/LwrNb3in94JRGMMbn6iXfNiIbWkWhlIKlQYgNJRVaWrvbifIUsVf9u+MPZ1RmGZ+FnoL35h2bqLnxVNS9hOs/gTt9vVNo7te4PQgp7PhJAO0Qag5aCmW5stjJuurI3vj0O2+FkDxC8mVF6aMB4Z4kdSWsJ2OoufS352Wx+MIrFXyFArfA5iZwGUIrWcU+1IP59IjMX7zWH54k+MKJFnKs0I8UulCb+3o/gBFtv3BhGNMcjyqr++0SxqJRDdA5DC6MUWwnhN3VGEY1JC1lv809dvR/z8/8sUPwBMRhi09CSuEky1hkTv9kTTYiAqDUAJetxCdA7F+Qn8rRK+10f8/I+O+JWKn6NzIDyzlYTIjbhwkCx2MYi+BZDq1pux6IefbzJy8Kos0kgPbuiInyDxg2UxGopRJ0YrILYHkO7kmbHoh8uXrANH/CSLHwAYHXp+mQCxBiAH00yAkRKrI34SxS8k00StBKJvAYxA7e3Awdz8QI74iRW/8YJPdXtKE9T0AFLN36uJpaIG/ACO+HURPztdtt7ip0uG1kFsD4BbZCEHveb7U2zNz5gh4hcXuL7iF9RRV/GbdWGgG2INQCl6mYBU1+7gB9niZyXTHPGbKf5MFLUSbGMAgDIT4BoG92/afMSIX0QggjwZL36TNZ/uRTUMw4imk4CtDABINgG9biPkiV/uswLCbR3x0yB+4UUj1Ta0QLwByBn0E9tGy8KfpO+l/nLEP7MFgeJXIkZaHt/VG6INQMtUi94mcDCVv2HC9474RdIsE788AWeq6PkQawB6nBAtJgAIxwUc8dMo/kwVtlyINQC90LLwZyavI37rxC8u8HTiZxn5i3LU3ipojUUC1CwE0oKWk5KQ1xH/zBZ6ip/VV/xSS4KNhjbxAwT3AFLd6xu/8Ec0AP+PzBW/qFBn0pLjiafNJImUnZRHpI6EiZ9WqO0BmLcEOCkKPeJnxctKDCJYiitIS8hnQ/HTeNXWE2oNALDCBGgQ/5ScJbvoCV9JvRNQJB9F4hevp3bUtjeSTYbYWwC5qL0dAGSs/kvYXg/xi1yleXmEaRCkyRM/HPEbIH45kC52MagxgFSrsPSa80+5wivhgyN+O4ifNrEaAdEGoHR6RulzAErzOeJPTEsoO0XaTBI54leKXc2CaANQilHPAUxtNP0//hcJaY74CRG/TcVqBLYwANVXdJEYonkd8SekJZSdIm0myUjxi5eVDqOv6LQsM6bSAOSsxtK++i/hW/HPjvgl04Tfmy9+/USnpCdJstjFIN4A1L4CTKsJAGK9AUf8JIhftI4KxE+bSI2E2HUAeripvvntJH42OV+GiN8hEWINQC90NxGDxJ8oSaPFL6hHBonfrFfJ0wLxtwB6oPk5gOlAU/8zQvzJ8YT5HPHLFb/orpoEbYZBnQFo+YUfQP7qP5EAU//MfJGUxvvCEb+l4hdvI0Zf/WkTP0CwAej9NKC2vI74pdKE35MqfgdxqB0D0O0ZfxnbsqzT7add/GbO+9MEsT0AOeg51SfvBDrip0P82sWol6BJXxtAtQEAyUKWuz3/b3l5HfFzH4ryvFhcm4PyoiwAQH8gij0d4xgei4nkEcZMjleY60VFcTa8LmBkPIae4QhYVvAufRnid7mAueV+1JXnoKbMz8tqjADFHlAjWexiUGMA6d7JrvY5ALG8aTYWfpEx4v/yokL88IRyrFyQD4878XgxLIsdreN45I1ubN0VSN4fQbyyQi++e2wlVi0vxtxyf0Ks0YkYtu0O4MmtPdjROppW/KUFWTjnxBqcdtRslBVmQStqF5/RCNEGIPf13/zP+q/+S9hI+IVNxZ9YVq7Pheu/PxcnrSiGFG6XCyvn52Pl/EPx9q4AfvdIK0YnYokx2amr9A+Or8ClX58Df5b4EFRBjhenHFGKU44oxRufDOHGx1sxMhZNqD97cF/XHDUbv/pOPfJzPKKx1Lzw086CF0LlIOD0wJzIidJj4Y9oDGLEz4rHNEj8+X43/nbFoSnFL+TYpUW492eLUJTnnemis4DH7cLvzj4EV36zTlL8QlYtL8H9v2hAVUn2TM0P7uv5q2vw+3MPVSx+fvsRtqVMmPrjQ6UBpEOv3xSY+SMp1ULxJ3WCDRM/wOKGc+ZiUW0ulDK/Kgc3njcfLl7Zl329GmuOKlMUh2VZzCnz4y+XLYY/2z0t/lXLS3DF6XNT5ksldKMxuzy12NIAAP1MIDlOqjftUi5+Fglpq5bNwtcaiqAGlmVx1MICfP2LU4JfXJuLH55YpSoWAMyryMGP19QBYJHr8+Da782Hy6Wv0LVe/WkRPR/iDUDLSdXrZMzESPOabV6a4eJnIRJvJk2V+AVln7+6AmrgH/MLT65GtteFC06uhlvluxu5z9/+ajlKC7Jw5lcrUJzvTdnFd5AHsYOAejqpPs8CaBB/CoGrFn9Snpk0reKflefFySuLsWiOeNc/GIrjtmc/x+sfDyPOAietKMa1352LnOzkYzynzIdHftmAQypzRGPFGRYb3urBqx8PYjIcxxGHFuKiU2pQlJfcNH1Zbtx5+WLUlovHAoBnt/Xgvlc60DcSweHzCvCr79Tj0Jo8ye2n9zrD7v05iDUAvdFmApkh/qMXF+DcVRX4wvy8lFfr6x5owfv7gtN/v/zhAKIxBjeeXy+6vVD8fPHc+fzneOSN7umD0dwVwoeNATx09VJkeZM7qKnE/Mp/+/GHx5q5QrCjJYDL/7oLT16/ErPypKcHM3mVIPG3AEK0LgFWdW+Y+D/+twkb0Cr+XJ8bN503D3dcMh9HLMhPKf7P2scTxM8F2fzJEJo6Q4klp7k3HwhG8eTWXv7BAMCipTuElz8clKyDGHGGxfp/f84VPP39yFgUG7f3KoqVjlRtyMqBRzVQZQB6HVB1+e0p/ny/B/dcsQAnrpgFOdz/Wjcv3kxMlmFx85PtiMUY2efoj0+1IRyJJ9b3IHe/0M5bWZieh1/vRHvfhMBMpmI+vqUTE+G4aD49xUmy0KUg2gBSuahWI1Cf3z7iB4AbzqnDYpnTfK9+NIi3do4Iaze9U5/uH8PNT7Yla1CE9S8fwBs7+Fd5XkyWxeBoFFffu1dSuHze2jmEe15qFxU/APQHIrj9mdb0lZIBjSJPBdEGIAdzewM0iJ8VzScm/tVfEJ/mE+vCvvbxEG74V5uwdknd943vDeDXDzZjbFJcuOEog1uebMO9Lx8Q1HmmbI5P94/ikr/sQufgpGgslgUee7ML1/xzL+IxRpg6vQ3A4pl3u3H7M62IxRlefu0XEBq6+amwxSCg1lF+WcuACRN/+njCmKwgDIsfra5I2XAnwnH8Z18Qz2wbwHt7g8LaJYmf4/Udw9jRMoqzT6jEsYcXo2JWNvoDEby7ewT/2tKD7gRBi4ufS9vbMY6zbtqBb3+1EqccORvzKnIQCMXwUdMI/rWlC3s+H5O88rO84woA/3qjA+98Noizjq/BCcvLUFKQ/rkB4VSkErjtGUZoTuRgCwMAtJtA6hh6iF+8kVol/oU1OaivTHwIZ6quLALjMdz6dAfe2hVANMpM50mILCH+g0EwGIzijo0duGPj50lpYvnExM8xEY7j4dc78fDrnck9Hpni5z6394Zw8+NNuGVDI5YdUojrzlqI+VV5Bi4cIxsqbgHkdrX0GiCUjGET8QPA8kPyDtYv+dj+70Nt2LxjWLX4xfaKn5YUM4X4+Xm0in/m49Rx/KQ1iCvu/ARjE1GkgzZhy4VYA4jH4+qn7YxwcxuJHwCqS7JFj1PHQBgfNAVF6yEU/5LaXFx8ajWmO00axH/6l8rx50sWwZflEs2jRPwr5hfgR6fUJpXFP+ZTn1gMBCPYukvZlKOdsM0tgBB9Vv/xzcQ+4gdYeCSsf3wyLkv8X1lSiP977nzk+T2YU+bHTY/vx2SUTdorCPIJxe/xuHDpmlqcd1INXC7g7z9dimvv24eeoUlBDinxswlfn3F0Ba757gJkeV0oLcyeGfgTET9HSGLAkl9Pu2JbAwBmTpwuRiD8RLH4wQJDEnPs8yv9KCvMwkAwkpj7YCWK8rz48WnVOPMr5dNX/tOOLEVDXR5ufrINHzQGEgOmEH/D3Hxc8916LK6dWd3XMDcfj167HPe80I5nt/UhGmcS6y8Rr6bMj6u+VY+vLi2Z/u67x1bj8EMKceuGZuxqC/ByzeTzul046jD5jzrLgSbDsLUBcOjVG7CL+FkAjZ0TECPL68YfzjsE197fiuGx6LT4D5uTizVHluKMo8uQ60t+/r6u3I+7r1iEDxoDePrdPry7exiTYf7o91Q9/FlufPGwIqw7phzHLCmGK6HHP7VNvt+DX36nHj9YVYMn3+7C5h2D6B0OJ4nf63Fj5YJCfP2L5Vi9sgxekW7N4tp83HfVCmzfM4Rn3unCtt1DiMSm4mR53Lj62/NRO1v62QIlYqZxEJBoAxA7mGoPsBYTmGpX9hE/wOK/zaOYiDDIyU4WzYr6fDx7/VL8t3kU0TiDpXPzMbtI3qu2jlpYhCMPLUQszqKlewLdQ2EEQzEU5npQWezD/KoceD3TgwYpFw3VlPpw5bpD8LNvzkPnwCT294YwMh6DP8uNiuJsLKjKQ46IGSXD4ujFxTh6cTEmIwx2tgUxMhrBsvoiVBT7pHNRJmY1EGsARhx8tbcEJfkHG5lNxA8AkxEGz783iO8dOxti5Pjc+KrCdwHwz5nHDSysycHCGumrq5KYNWX+hBd9qqkTAPiz3Thqobxlz5kAsbMAqTB0qk+wDcuyqK/IMkn8LMwQP8d9r3VjeCz9FFgqWJYFwzBgGCbhmOmBNc98qM9L4/sJqDQAQJ+DKvXkljB2eZEXNSUeCIXFQm/xwzTxA/gcoN8AAA/nSURBVCxGxmK4/qE2RJOW0SYjPD580RuBlaLJpCXCVBmA8ICqGaCRI3gxTlqRz4/G0zad4ue++rApiKv/2TK9dj/d8TG6UesV34w6Cg2RRog2ADkilWqgSgWebrt1XyqCz+uCncTPfXhvbxBn37obmz8eAiM4BmZezUi4dVDTlki/yqeC2EHAdAgPup4Lf8TilBZ48P1ji/DAG8O2Ej/3qXsojF8/2IrqUh+OXVqE044owWESrwSLMyye3NqHLZ8MIsYAJy4vxvePr1T8zj+Oj5qDeO3jfkxOxrHy0CKcduRseDzqYu3cH8RDmz9HXyCCZfMKceGpc0VfL8aHa0s0C1ktVBpAqt6Anqv/hLHOO74Y7+0NYW+n8PFUCsTPisSfrvLU3+WzsnHmMWVYtXwWqkqkp8f++NTUIh2OXW1jGB6L4YrTayXzSPHMuz24+YkWTP0SGIsX3+/DW58O4taLFkPpqdzREsBld34yNabBAp/tD+D9vUN46JojkO11pxS4lullvWOaCdG3AGrQexSaHyvL68JN51aiqpg/J26A+Fkk5TNS/C4XcM6qCjx5XQPOPqEipfi7BsPYuL1f8C2Lx97qQX8gIppHilA4jrtfbJ8WP8dbOwfx3t5hRbFYlsVdz7dOi5+L19I9jk0f9JoiVJoG/zioMAA1B1XPE8Ave3ahF3+9pAbzK31IFKuO4hdumyKNn0+N+Kd+rWcefrK2JvFBHAke2dItGCeY+hyJMbjjufa0+aeKnTqe973SgcBYLHlfAPxlYxuisdSi5Q/Abf64Dx+3BBLOBcejb3QgzugvSFpEngpiDUAPJ9Xbibl4FbO8WH/5HJx59KyDP5JJp/gB4Iq1NThlZQnksPvzccHVn1cqy+LVjwax4a0eyfz887Hlk0E8vLkreV8O0tw5jj883gSGST8r0dIdwo2PN4mKH2DR0j2ODW92StZJDXYQP0CwAeiJ3ieLZVlke4Gff2M2HryyDmuOLIR/ekmtkeJnRfPJFf9MZ2Xq7xX1+TjruPIUezpDS3cIv/xnI2JxLm6i+Dlue7YND7zWmVC8ULTPv9eH/32gCQyb/KzATDgWL/2nF799eB/C0eQpNi7mx80BXPaXTzA6LuxJ8GKywJ0bm7Hpg96kGJkOlYOAapAa2NMac+7sLFx3ZgV+cUY5drVPoLEzjP5ADJPR5EdMUw74iZeQIplN+r94SOm0b3y5NO1AW+9IBM+824fH3uzhCVFc/FN/srj7xc+xfc8wLjplDlYeWgi3ywWWBXa1jeKfr3Rg2+7EF4uKiZ9j04d9+Kx9FD9eMxfHLy+dHsxr7w3h0S2d2Li9BwwjNEZeDBZgwSIWB37z4G68tXMA55xYiyV1Bal3PAXpjENshopUMsYAOLTOFEidzGwPsLI+B0fMV/5DmqQRj7N49K1evPLfQTR3jQs0Li1+vgg/bg7iiubdyM/xoqwoC4PBCIKhmEg3XVr83OeO/glc/8BeZHtdqC71YXQijoFgmLdJavHz2fxRLzZ/1IvyIh9OWFGGi9fUozBXvgzSDSaSLHYxiDYAqUUXeolYKoZeC0n07G2Yya1Pt+O57f2SAk8nfn7a6EQUo9wrt1SIn58vEmPR1jsxI2qF4uen9Y1MYsObB7CjZQT3X32k6KPEQmgTtxyoHQPQ42SIPcRixKAhTQ1nIBjF8+8NyBJ/WWEWjl1aDCnxsyIiFsbjsiydl4+LT6tLShPmkyP+8iIfvnZ4qWiaMN/ejlFs3z2ETIXoHkA65PYE5N6zGXnFFtaBxN4By7LoGQ6LrGtPFv+cMj9uv2Qhasp8uPP5Djz2Zrdq8a9aUYrfnrMQOdluVJX4cPOGZkRiTPL4ggzxN8wtxC0XNaCkIBs3Pb4Pz2/vhpT4uXg9w+K/O5AQXcNqQZIvAFQbAJAoXq0HWq+VhHLL4mNVuUIOqfDDn+3GZER8wM/lAtZ+cTZ+dkYd8nOm3pPwszPq8IX6Avzxqf3oD0Rki78wx4ufnDEPZxw98zPka79UgSV1BfjDY43YuT/Iy5Va/L4sN849qQ4XnFI33Z3/zdmLsGJ+Ee54thmBsSjExA8WWDK3MOk4CKca5UBbbw+gyAD4Diw1NmDkMmCjEdsnIwYr05Hr8+Cqb9Xh5ifaET/YE2AB+LwurFpegh+cUIVDq5MHOo89vBhHHVaEp9/pwTPbetE5MCkp/spiH844ugLfObYKBTnJTfCQyhzce+VyvL1zEBve6sRHzYGpzoCI+Gfle3HaURU4e1Utymclr2Bc+6VKHHd4KZ7a2oln3+1Cz9BkgvjP/FoNltQVSB4v2gStFGINQM2z5nqK1yojEKuDGFy9jFjIsvaLZVhcm4ctnw4hzgCLa3Nx1MIi0deH8cnJduOcVdU4Z1U1WrpD2Ll/FD3DYYxOxFCQ40VlcTYa5hZgQXWe6PRj4gAqcNyyUhy3rBSDwQg+ag6grTeE4HgU/mwPymdl47DafDTMLTy4GEs6XkFuFs4/eS7OWz0XeztG8WHTMEZGI1h5aDG+0iAcK5B3jOwCsQagBT278iQYAb8eUn/rzfyqHMyvqtGQPxfzq+RPiaban9LCbKxeKf7qMqkY4j0qYHFdARZrWANgN2xpAID+wjVrei8Trjp8jBhU0+MYkhLDaGxrABxGDOxpNRcaGobRyDkGVo24a7mtou3cEm8AenR9jerGG7mgyK5IDeAaEdfKOLRArAEY8cJJo6b5+PPmVo8VkIqRV0cSxE+rcRBrAEahpTegtNuaiWagZv5cr/KsikOr+AEKDUDvEy4Uqd5LgTnsZgZWz5sbdZ6MiEXyG4OpNAA97umFSzuNFiitZmDUYJ0WSBI/zVd/gHADkDPdk05MSpZxAuaIk8TnAtQuujITI8aErMxPAkQbgByMahRmilLvZcBKyjEjrx444jcGKg1A6uDr/bYfvWOqKV+IHk8/GpXXCEgTvtIYpB1PIVQagBRGiNZqIxBi9ii7VRixb0aL31kIZCBKXZe01X96lJ0p0Ch+WiHWALS6qVWr//SInamQvFDIrueGWAPQC6ONQGlsuzYktRh9PBzxp8b2BsBh1DJgLjaH1uf0MwUahK8lDi1jNRljAICxg4RGlmEn7Lw82BkENAA9ngaUimlk153WlX9GkOnLg0mGaANItd7ciNd+mTUIlQmGkMnLg2mCaANIhRYTsLrbbkdDsEo0JCwUotkwqDUAIL1w1XbbrX4jMA2GQEKjN1P8Sp8p4eM8DagjUgfYTqv/zFjqrAQSxM7HyIVCWmKTLHQpiDWAVCOqYt9n2jLgVMitL2nCTodR9/mZvFaAWANQi92WAauB1sYohVEPN1m9VoAEbGcAAHmr/xzUoeW+24g86eKItQnSzYFYA3C5XKI3VErus8xYt+8Ygf4oufXTM77WOLFYTCp2XJcCDYBkAxjn/80d2HA4rDiWWQ/wOGagDT0G4uTENyqWVNv0er1juhWsM8QagNfr7RU7yJOTk2AYBm536t+pE8PI5wG4+ByOGaTHzKWzRos/FotJGoDH4+nWrXCdUa4ik8jKyvpM7HuWZREIBFTHNavRceWQfg9oBvxjwbIsGIYx5HcfUpWtZzwxAoGAZFp2drZoWyYBYg3A6/W+LJU2MDCgOb7ZVx+7m4FQ5MJ9tuIYmLlQqL+/P2lb7j+32/2SrhXREWINYPXq1Vt8Pp/oiF9XV5du5VjRKGk2hFQiT7WtFXU0M15XV5fo/vr9fmbt2rVbdauMzhBrAC6Xi5k1a1aPWGPr7+/HxMSEruVZJUi5YjIbJUKXymM2RpQrZ5/Hx8fR29srml5cXNypa4V0hlgDAIC8vDzR2wCGYdDa2mrYCbdahGaaghqhm11HORhRvtjti9g+Nzc3S5ZfUFDwou4V0xGiDcDr9f7O4/GIpjU1NSEajQIwzvlJaNgcqRqh0iuznHxayjMTPevD3z9ukDJd7EgkgsbGRtG0rKwstqCg4AZdKmcQRBvAmjVrDpSXl7eKpUUiEezZsyfhO6MaJmmNXgyu0Yr9l07MJAtcCi31TLXPSuPu3Llz+kIkjF1eXt580kknid8bEALRBgAA5eXl13GfhSessbERQ0NDCdsb2YBJEQetotUDJfuqptejhP7+fjQ2NorGdrlcKCoq+pWigBZAvAGsWrXqidmzZ/eInRyGYbB9+3ZEIpGkNDOMwGjRZbLQhUjtu169GKXbh8NhbNu2TTJfZWVl5+mnn/6coqAWQLwBAEBZWdkFUiv/xsfH8e677yIeF19ubbRo9BCmI3RxzLhVURMnHo/j7bffxvj4uGi6x+NBeXn5eZorZwJUGMCpp566qba2dptUen9/P9555x1JEwDMeSorVcOk+X7bTPhjGUYfIzVxY7EY3n777aSFP3zq6urePu20017XUjezoMIAAGDBggUnz5o1K2Hyn99Aenp68MYbbyAUCknGMLPbLhyEc0hEaII0LA8eHx/Ha6+9hu5u6aX9s2bNCtXW1p6qpX5mQo0BLF++fLyqqur0rKwsVuoEDg0N4dVXX0VHR0fKWHoYgZKreSZf7eWMuJt5XNSW1d7ejk2bNmF4eFhyG5/Px9bV1a055phj9F2lZiDUPbL24osvXtPU1HRzuvcCVFZWYtmyZSguLk4bM9WTe0Y3Tjs8NahkVN4q1JY9NDSEHTt2oKenJ+V2Ho8HixYtuur000+/TVVBFkFl63vhhRf+X1NT08/knNSKigrU19ejuroaXq/408/C6Rsrsbr8VKgRkdW9HrX3+Z2dnWhubpZc4svH5XJh4cKFt61bt+4qNXW0EnJbWxpeeumlW5qamn7FH/hLdbI9Hg/KyspQUlKCwsJC+P1++Hw+M6qqGTNNwS63Kkr2IRKJYGJiAoFAAIODg+jv75f95imPx4MFCxbctG7dul+rrauVUGsAAPDyyy9fsn///rtDoZD4emEdoOH+1CnLGnJzc+P19fWXrF279j6r66IWqg0AADZv3rykq6vrzb6+vtla4thVEGaLz65iF1JRUdFXXV193CmnnLLX6rpogXoD4Ni4cePfOzo6LpqcnEw5s+GIj76ySCI3NzdeW1v793Xr1l1hdV30wDYGAACbN2+uGB4efrSnp+f4cDjstqsg7FoWyfj9fqa6uvp1r9d7zre+9a0+q+ujF7YyAI4nnniiJDs7+/ahoaFvDg0NFerZiO0qPkfoybhcLpSUlARKS0ufKSgo+Pnq1avVv4ySUGxpAHxefPHFpdFo9MrJycmvjY6O1oZCIX80Gk2733YVnyN0abKysti8vLzJvLy8jtzc3LdzcnJuX7NmzW6r62UktjcAMbZu3bpwbGxsAcuylWaWS+OPR2YCHo+nx+VyNZ566qnNVtfFwcHBwcHBwcHBwcHBwcHBwcHBwcHBwcHBwcHBwcHBwcHBwcHBwcHBwcHBwcHBwcEhFf8feBMfAEaHOdYAAAAASUVORK5CYII=;strokeColor=light-dark(#ffffff, #ededed);" vertex="1" parent="1">
          <mxGeometry x="374.57" y="610" width="41.85" height="41.85" as="geometry" />
        </mxCell>
        <mxCell id="nsKQY4hmwuangQq9sZYd-9" value="" style="endArrow=classic;startArrow=classic;html=1;rounded=0;entryX=0.55;entryY=1.024;entryDx=0;entryDy=0;entryPerimeter=0;strokeColor=light-dark(#ffffff, #ededed);" edge="1" parent="1">
          <mxGeometry width="50" height="50" relative="1" as="geometry">
            <mxPoint x="395.34" y="608.98" as="sourcePoint" />
            <mxPoint x="395.6399406504289" y="578.9245459406471" as="targetPoint" />
          </mxGeometry>
        </mxCell>
      </root>
    </mxGraphModel>
  </diagram>
</mxfile>
